<svg width="1262" height="1117" viewBox="0 0 1262 1117" fill="none" xmlns="http://www.w3.org/2000/svg">
<g clip-path="url(#clip0_1597_26440)">
<rect width="1262" height="1117" fill="white"/>
<rect width="1262" height="1117" fill="url(#paint0_linear_1597_26440)"/>
<path d="M982 925.5L905 1041L906 933.5L982 925.5Z" fill="#5984D0"/>
<path d="M257.125 143.173L334.125 27.6733L333.125 135.173L257.125 143.173Z" fill="#5984D0"/>
<path d="M1117 831L1222 783.5L1143 763.5L1014.5 840.5L981 926L1117 831Z" fill="#214482"/>
<path d="M122.125 237.673L17.1255 285.173L96.1255 305.173L224.625 228.173L258.125 142.673L122.125 237.673Z" fill="#6190E4"/>
<path d="M980.5 926L1117 832L1015 840.5L980.5 926Z" fill="#5984D0"/>
<path d="M258.625 142.673L122.125 236.673L224.125 228.173L258.625 142.673Z" fill="#5984D0"/>
<path d="M791 965.5L718 897L906.5 934.5L791 965.5Z" fill="#6D8EC9"/>
<path d="M448.125 103.173L521.125 171.673L332.625 134.173L448.125 103.173Z" fill="#77A4F4"/>
<path d="M1236.5 848L1295.5 536V1129L301 1143L414 1073.5L466.5 1094.5L574.5 1030.5L641.5 1039L752 1063.5L848 1059L906 1039.5L1018 1025L1074.5 965.5L1171 974.5L1203.5 930L1236.5 848Z" fill="#214482"/>
<path d="M2.62549 220.673L-56.3745 532.673V-60.3267H1190.63L825.125 -4.82666L772.625 -25.8267L664.625 38.1733L597.625 29.6733L487.125 5.17334L391.125 9.67334L333.125 29.1733L221.125 43.6733L164.625 103.173L68.1255 94.1733L35.6255 138.673L2.62549 220.673Z" fill="#6190E4"/>
<path d="M1250.5 972L1281 994.5V1133H1036.5L1043.5 1074.5L1075 966L1116 832L1204 928.5L1250.5 972Z" fill="#16366E"/>
<path d="M-11.3745 96.6733L-41.8745 74.1733V-64.3267H202.625L195.625 -5.82666L164.125 102.673L123.125 236.673L35.1255 140.173L-11.3745 96.6733Z" fill="#29529B"/>
<path d="M1043.5 1074.5L891.5 1116.5V1124.5H1216.5L1143.5 1047L1079.5 1030.5L1043.5 1074.5Z" fill="#142743"/>
<path d="M195.625 -5.82666L347.625 -47.8267V-55.8267H22.6255L95.6255 21.6733L159.625 38.1733L195.625 -5.82666Z" fill="#213E71"/>
<path d="M1075 965.5L1018.5 1025.5L1078.5 1029.5L1171 973.5L1075 965.5Z" fill="#5984D0"/>
<path d="M164.125 103.173L220.625 43.1733L160.625 39.1733L68.1255 95.1733L164.125 103.173Z" fill="#5984D0"/>
<path d="M414 1073.5L409.5 1132.5L575 1124.5L466.5 1096L414 1073.5Z" fill="#16366E"/>
<path d="M753 1062.5L700 1121.5L573 1031L575 1007.5L642 1040.5L741.5 976.5L753 1062.5Z" fill="#16366F"/>
<path d="M486.125 6.17334L539.125 -52.8267L666.125 37.6733L664.125 61.1733L597.125 28.1733L497.625 92.1733L486.125 6.17334Z" fill="#3E68B5"/>
<path d="M1177.01 1227.12C1177.1 1226.43 1177.03 1225.7 1176.77 1225L1176.74 1224.92L1225.37 1197.44L1326.39 1256.36C1326.35 1256.46 1326.31 1256.57 1326.27 1256.67L1177.01 1227.12ZM1170.39 1168.54C1170.62 1168.49 1170.85 1168.44 1171.08 1168.35C1171.89 1168.06 1172.56 1167.55 1173.06 1166.92L1224.2 1196.75L1176.18 1223.89C1175.35 1222.75 1174.04 1222.06 1172.65 1222.02L1170.39 1168.54ZM1040.35 1141.64C1040.38 1141.07 1040.29 1140.48 1040.08 1139.9C1039.95 1139.54 1039.77 1139.21 1039.57 1138.91L1110.01 1076.46L1166.52 1160.66C1165.84 1161.26 1165.36 1162.03 1165.13 1162.88L1040.35 1141.64ZM1043.23 1078.82C1043.72 1078.81 1044.22 1078.72 1044.71 1078.55C1047.06 1077.68 1048.28 1075.07 1047.41 1072.71C1047.21 1072.17 1046.92 1071.69 1046.55 1071.28L1076.95 1033.46L1077.04 1033.51L1036.9 1137.05L1036.88 1137.04L1043.23 1078.82ZM608.501 1167.41L589.564 1131.35C590.676 1130.57 591.37 1129.33 591.481 1128L696.8 1120.82C696.844 1121.01 696.896 1121.21 696.967 1121.4L608.501 1167.41ZM540.18 1188.78C539.872 1188.61 539.547 1188.48 539.21 1188.39L554.603 1119.55L582.436 1127.1C582.355 1127.78 582.426 1128.5 582.68 1129.2C582.931 1129.88 583.332 1130.47 583.828 1130.93L540.18 1188.78ZM363.825 1199.11C363.806 1198.65 363.718 1198.18 363.55 1197.73C363.35 1197.18 363.053 1196.7 362.69 1196.29L377.996 1178.8L440.636 1205.73C440.611 1205.81 440.589 1205.9 440.57 1205.98L363.825 1199.11ZM342.946 1163.74L376.866 1178.32L361.807 1195.52C360.641 1194.74 359.134 1194.5 357.716 1195.02L342.004 1164.85C342.379 1164.53 342.697 1164.15 342.946 1163.74ZM404.684 1144.11L404.685 1144.12C404.884 1144.66 405.182 1145.14 405.545 1145.56L377.676 1177.39L343.413 1162.66C343.544 1162.21 343.608 1161.74 343.594 1161.26L404.838 1144.68L404.684 1144.11ZM414.422 1077.85C414.858 1077.82 415.297 1077.73 415.728 1077.57C416.769 1077.19 417.586 1076.47 418.1 1075.58L448.66 1088.3L411.534 1138.81C411.092 1138.5 410.6 1138.28 410.08 1138.14L414.422 1077.85ZM504.836 1011.31C504.911 1011.4 504.99 1011.48 505.071 1011.55L449.374 1087.33L418.548 1074.5C418.788 1073.62 418.77 1072.66 418.432 1071.74C418.366 1071.56 418.287 1071.39 418.202 1071.22L504.836 1011.31ZM571.25 1008.81C571.292 1009.14 571.369 1009.47 571.486 1009.79C571.588 1010.07 571.715 1010.32 571.86 1010.57L555.433 1023.59L512.669 1009.15C512.688 1009.05 512.707 1008.95 512.722 1008.85L571.25 1008.81ZM899.198 935.364L791.253 963.906L721.071 899.672C721.313 899.326 721.508 898.948 721.646 898.549L899.198 935.364ZM977.68 926.388C977.72 926.551 977.769 926.714 977.827 926.876C978.1 927.617 978.543 928.243 979.098 928.729L951.535 969.776L909.892 936.108C910.313 935.423 910.548 934.632 910.563 933.815L977.68 926.388ZM1049.48 877.566L985.461 922.249C985.118 921.871 984.716 921.561 984.276 921.321L1015.09 841.942L1049.48 877.566ZM1112.21 832.411C1112.25 832.6 1112.3 832.789 1112.37 832.977C1112.44 833.163 1112.52 833.339 1112.61 833.51L1050.46 876.888L1016.14 841.346L1112.21 832.411ZM1139.35 766.381C1139.77 766.91 1140.3 767.331 1140.89 767.624L1120.07 828.43C1118.87 827.047 1116.9 826.472 1115.07 827.141C1113.29 827.796 1112.16 829.454 1112.1 831.246L1017.36 840.056L1139.35 766.381ZM1216.24 782.661C1216.16 783.283 1216.21 783.927 1216.41 784.558L1183.33 799.88L1146.62 766.169C1146.83 765.873 1147 765.554 1147.13 765.22L1216.24 782.661ZM1233.37 843.759L1233.33 843.769C1232.83 843.956 1232.38 844.23 1231.98 844.56L1184.26 800.738L1216.91 785.624C1217.81 787.064 1219.45 787.87 1221.14 787.724L1233.37 843.759ZM1316.7 1023.29C1316.4 1023.81 1316.2 1024.38 1316.12 1024.98L1245.41 1024.68L1250.62 976.086C1251.11 976.076 1251.61 975.989 1252.09 975.812C1252.73 975.577 1253.28 975.21 1253.73 974.756L1316.7 1023.29ZM1314.49 1141.67C1314.09 1141.7 1313.69 1141.78 1313.29 1141.93C1312.63 1142.17 1312.07 1142.55 1311.61 1143.02L1262.98 1106.53L1318.47 1029.58C1318.89 1029.81 1319.35 1029.97 1319.82 1030.06L1314.49 1141.67ZM1139.96 1049.91C1140.89 1050.72 1142.12 1051.13 1143.37 1051.01L1168.02 1159.79L1167.95 1159.81C1167.79 1159.87 1167.64 1159.94 1167.49 1160.01L1110.9 1075.68L1139.96 1049.91ZM1082.21 1032.94C1082.74 1032.47 1083.15 1031.89 1083.42 1031.25L1138.44 1045.89C1138.34 1046.59 1138.41 1047.33 1138.68 1048.05C1138.81 1048.41 1138.98 1048.73 1139.19 1049.03L1110.24 1074.7L1082.21 1032.94ZM1045.25 1070.25L1057.37 1028.7L1074.72 1030.22C1074.76 1030.51 1074.84 1030.8 1074.94 1031.09C1075.18 1031.74 1075.55 1032.29 1076.02 1032.75L1045.67 1070.5C1045.54 1070.41 1045.39 1070.33 1045.25 1070.25ZM892.802 1113.74L905.207 1044.59C905.798 1044.62 906.404 1044.54 906.994 1044.32C908.374 1043.81 909.357 1042.71 909.765 1041.41L1038.65 1073.54C1038.56 1074.1 1038.57 1074.69 1038.71 1075.28L895.599 1116.27C895.06 1115.02 894.019 1114.12 892.802 1113.74ZM883.67 1108.57L888.276 1114.79C887.017 1116.01 886.518 1117.89 887.158 1119.64C887.498 1120.56 888.11 1121.31 888.868 1121.82L862.11 1174.6L883.67 1108.57ZM797.159 1111.61L845.267 1063.03C846.007 1063.6 846.91 1063.93 847.85 1063.96L858.199 1177.21C858.007 1177.26 857.816 1177.31 857.626 1177.38C857.26 1177.51 856.926 1177.69 856.619 1177.9L797.159 1111.61ZM766.918 1144.06C766.751 1143.6 766.519 1143.19 766.237 1142.83L796.334 1112.44L855.745 1178.68C855.522 1178.94 855.334 1179.22 855.175 1179.52L767.076 1146.65C767.27 1145.82 767.235 1144.92 766.918 1144.06ZM705.509 1118.27C705.299 1117.7 704.984 1117.2 704.596 1116.77L749.944 1066.46C750.687 1066.98 751.574 1067.26 752.491 1067.27L761.519 1141.21C761.373 1141.25 761.227 1141.3 761.081 1141.35C760.045 1141.73 759.23 1142.45 758.715 1143.33L705.62 1121.04C705.865 1120.16 705.848 1119.2 705.509 1118.27ZM591.221 1126.07C590.94 1125.3 590.474 1124.66 589.893 1124.17L625.323 1067.38L697.101 1117.95C696.859 1118.48 696.718 1119.06 696.693 1119.65L591.424 1126.83C591.378 1126.58 591.313 1126.32 591.221 1126.07ZM573.516 1034.97C573.659 1034.99 573.803 1034.99 573.947 1034.99L578.047 1065.54L585.791 1123.23C585.656 1123.27 585.519 1123.31 585.384 1123.36C584.117 1123.83 583.186 1124.8 582.725 1125.96L554.859 1118.41L573.516 1034.97ZM536.442 1188.5C536.001 1188.66 535.601 1188.88 535.246 1189.15L469.407 1098.31C469.876 1097.87 470.236 1097.33 470.48 1096.74L553.471 1119.24L538.046 1188.23C537.513 1188.22 536.971 1188.31 536.442 1188.5ZM449.469 1206.11C449.423 1205.87 449.363 1205.64 449.278 1205.4C448.752 1203.97 447.58 1202.96 446.214 1202.59L454.146 1161.29L533.484 1192.33C533.453 1192.65 533.456 1192.98 533.494 1193.3L513.751 1196.31L449.469 1206.11ZM461.898 1093.81C461.66 1094.69 461.677 1095.64 462.014 1096.57C462.132 1096.88 462.282 1097.18 462.457 1097.45L412.515 1139.45L449.774 1088.76L461.898 1093.81ZM467.72 1090.69C466.776 1090.37 465.725 1090.36 464.718 1090.73C463.677 1091.11 462.861 1091.83 462.347 1092.73L450.487 1087.79L504.916 1013.74L467.72 1090.69ZM569.471 1029.56C569.313 1030.35 569.359 1031.2 569.657 1032.01C569.689 1032.1 569.727 1032.18 569.763 1032.26L473.696 1089.87L555.663 1024.9L569.471 1029.56ZM574.805 1012.67L573.715 1025.9C573.263 1025.92 572.809 1026.01 572.361 1026.18C571.214 1026.6 570.342 1027.43 569.844 1028.45L556.756 1024.03L572.59 1011.48C573.204 1012.08 573.973 1012.49 574.805 1012.67ZM637.758 1038.14L578.472 1030.45C578.472 1029.93 578.388 1029.4 578.198 1028.88C577.641 1027.36 576.356 1026.32 574.881 1026L575.972 1012.77C576.422 1012.75 576.878 1012.66 577.324 1012.49C578.299 1012.14 579.074 1011.48 579.591 1010.66L637.824 1037.92L637.758 1038.14ZM718.111 901.542L740.135 973.393C737.987 974.368 736.92 976.846 737.745 979.097C737.784 979.202 737.83 979.302 737.875 979.402L645.679 1036.43C645.416 1036.1 645.113 1035.82 644.779 1035.58L715.76 901.319C716.496 901.594 717.305 901.679 718.111 901.542ZM746.222 975.812C745.407 973.816 743.323 972.695 741.254 973.048L719.229 901.197C719.616 901.021 719.967 900.797 720.279 900.534L789.907 964.262L746.222 975.812ZM827.003 998.213C826.792 998.515 826.619 998.841 826.487 999.184L746.524 978.113C746.575 977.729 746.575 977.336 746.524 976.944L790.933 965.202L827.003 998.213ZM902.268 936.294L833.766 997.444C832.553 996.355 830.795 995.954 829.158 996.554C828.645 996.742 828.191 997.017 827.795 997.351L792.28 964.845L901.993 935.837C902.075 935.996 902.168 936.148 902.268 936.294ZM907.168 1035.85C906.768 1035.69 906.345 1035.58 905.909 1035.53L906.031 1017.75L906.574 938.241C906.913 938.199 907.251 938.123 907.586 937.999C908.191 937.778 908.719 937.44 909.158 937.021L950.879 970.753L907.168 1035.85ZM1014.68 1022.34C1014.25 1023.05 1014.01 1023.88 1014.01 1024.73L956.763 1032.3L939.951 1034.52L909.708 1038.52L909.699 1038.48C909.389 1037.64 908.851 1036.95 908.185 1036.44L951.794 971.493L1014.68 1022.34ZM983.101 929.742L1016.45 1020.69C1016.07 1020.89 1015.72 1021.14 1015.42 1021.43L952.449 970.516L980.072 929.377C980.987 929.834 982.052 929.981 983.101 929.742ZM1065.46 894.115L986.138 923.204L1050.31 878.42L1065.46 894.115ZM1113.44 834.636L1073 888.825C1071.88 888.197 1070.51 888.042 1069.21 888.517C1067.21 889.249 1066.05 891.232 1066.25 893.252L1051.28 877.741L1113.28 834.472L1113.44 834.636ZM1230.52 846.833L1121.18 831.459C1121.19 830.991 1121.12 830.517 1120.97 830.048L1183.11 801.272L1231.19 845.421C1230.89 845.85 1230.66 846.328 1230.52 846.833ZM1202.7 923.683C1202.33 923.82 1201.98 924.006 1201.67 924.223L1198.45 920.672L1230.42 858.111L1205.33 923.532C1204.49 923.327 1203.58 923.361 1202.7 923.683ZM1210.77 1024.53C1210.72 1024.19 1210.65 1023.86 1210.52 1023.53C1210.31 1022.94 1209.98 1022.42 1209.58 1021.99L1248.1 975.388C1248.52 975.651 1248.97 975.847 1249.46 975.963L1244.23 1024.67L1210.77 1024.53ZM1237.88 1083.96C1237.46 1083.97 1237.03 1084.04 1236.62 1084.16L1208.65 1028.96C1209.82 1028.24 1210.58 1027.03 1210.77 1025.7L1244.11 1025.84L1237.88 1083.96ZM1316.36 1027.15C1316.44 1027.4 1316.56 1027.63 1316.68 1027.85L1241.21 1085.31C1240.61 1084.7 1239.86 1084.28 1239.03 1084.08L1245.28 1025.85L1316.12 1026.15C1316.16 1026.48 1316.23 1026.82 1316.36 1027.15ZM1241.93 1090.74C1242.57 1089.62 1242.72 1088.24 1242.24 1086.94C1242.16 1086.69 1242.04 1086.46 1241.92 1086.24L1317.39 1028.78L1317.52 1028.9L1262.05 1105.83L1241.93 1090.74ZM1237.51 1139.85C1237.09 1139.63 1236.63 1139.47 1236.16 1139.38L1238.46 1093.02C1238.83 1092.98 1239.18 1092.9 1239.54 1092.77C1240.2 1092.53 1240.77 1092.15 1241.22 1091.67L1261.35 1106.78L1237.51 1139.85ZM1310.37 1145.48L1239.88 1143.4C1239.83 1143.03 1239.76 1142.65 1239.62 1142.28C1239.37 1141.6 1238.96 1141.01 1238.46 1140.54L1262.29 1107.48L1310.9 1143.96C1310.64 1144.43 1310.46 1144.94 1310.37 1145.48ZM1231.22 1145.75C1232.2 1147.88 1234.67 1148.95 1236.92 1148.12C1238.52 1147.54 1239.58 1146.14 1239.84 1144.57L1307.21 1146.56L1176.1 1162.85L1231.22 1145.75ZM1211.12 1119.16L1231.83 1140.99C1231.01 1141.99 1230.64 1143.31 1230.87 1144.63L1173.72 1162.36C1173.56 1161.97 1173.35 1161.6 1173.09 1161.28L1211.12 1119.16ZM1083.49 1027.96C1083.45 1027.86 1083.41 1027.77 1083.37 1027.68L1111.78 1010.35L1139.6 1043.41C1139.23 1043.81 1138.95 1044.26 1138.74 1044.76L1083.72 1030.12C1083.82 1029.41 1083.75 1028.67 1083.49 1027.96ZM1074.39 970.343C1074.7 970.39 1075.01 970.409 1075.32 970.393L1078.14 1025.1C1077.97 1025.14 1077.81 1025.19 1077.65 1025.25C1075.97 1025.87 1074.88 1027.37 1074.7 1029.04L1057.7 1027.55L1074.39 970.343ZM1042 1069.87L1021.11 1028.48C1022.08 1027.82 1022.75 1026.81 1022.99 1025.69L1056.18 1028.6L1044.15 1069.84C1043.46 1069.68 1042.72 1069.68 1042 1069.87ZM909.957 1039.67L986.441 1029.55L1014.16 1025.89C1014.2 1026.02 1014.24 1026.15 1014.28 1026.28C1015.14 1028.62 1017.72 1029.83 1020.06 1029.01L1040.91 1070.31C1040.04 1070.8 1039.38 1071.55 1038.99 1072.41L909.973 1040.25C909.982 1040.06 909.974 1039.86 909.957 1039.67ZM851.176 1062.7C852.254 1061.66 852.77 1060.13 852.496 1058.61L901.205 1041.73C901.644 1042.83 902.47 1043.68 903.472 1044.15L883.261 1106.05L851.176 1062.7ZM755.973 1065.69C756.577 1064.99 756.952 1064.11 757.047 1063.19L814.562 1061.62L843.703 1060.83L843.752 1060.99C843.919 1061.44 844.151 1061.85 844.433 1062.21L796.375 1110.73L755.973 1065.69ZM702.817 1115.58L719.883 1056.39L747.997 1062.36C747.944 1063 748.022 1063.65 748.256 1064.29C748.448 1064.81 748.731 1065.28 749.075 1065.68L703.698 1116.02C703.42 1115.84 703.126 1115.69 702.817 1115.58ZM740.204 981.698L719.059 1055.02L646.684 1039.66C646.736 1039.03 646.658 1038.37 646.425 1037.73C646.386 1037.63 646.339 1037.52 646.294 1037.42L738.491 980.399C738.955 980.97 739.544 981.411 740.204 981.698ZM826.454 1002.39C826.565 1002.69 826.706 1002.98 826.87 1003.24L801.07 1023.62L745.912 979.873C746.033 979.672 746.135 979.461 746.224 979.244L826.208 1000.32C826.131 1001 826.203 1001.71 826.454 1002.39ZM985.991 927.658L1045.93 953.972L1019.67 1020.31C1018.99 1020.14 1018.27 1020.12 1017.55 1020.28L984.2 929.34C984.96 928.944 985.57 928.357 985.991 927.658ZM1066.75 894.889C1067.17 895.702 1067.81 896.341 1068.57 896.763L1046.36 952.883L986.459 926.585C986.672 925.861 986.707 925.081 986.532 924.308L1066.75 894.889ZM1172.18 969.499C1171.37 969.21 1170.48 969.148 1169.6 969.36L1118.81 835.732L1118.95 835.328C1119.04 835.27 1119.14 835.206 1119.23 835.141L1197.04 920.859L1172.18 969.499ZM1199.99 929.52C1200.24 930.196 1200.64 930.775 1201.13 931.24L1174.49 967.562L1197.88 921.786L1200.8 925.008C1199.78 926.216 1199.41 927.925 1199.99 929.52ZM1246 971.083L1205.69 972.213L1204.93 932.452C1205.23 932.407 1205.53 932.332 1205.83 932.224C1206.32 932.043 1206.76 931.783 1207.14 931.471L1246.84 968.874C1246.37 969.52 1246.08 970.284 1246 971.083ZM1203.77 1028.9C1204.87 1029.61 1206.25 1029.85 1207.58 1029.44L1229.19 1072.09L1203.77 1028.9ZM1234.17 1086.02L1147.31 1047.76C1147.57 1046.86 1147.57 1045.87 1147.22 1044.92C1146.82 1043.83 1146.05 1042.99 1145.1 1042.48L1169.59 978.204C1170.43 978.408 1171.34 978.373 1172.22 978.052L1172.43 977.961L1235.32 1084.81C1234.86 1085.14 1234.48 1085.55 1234.17 1086.02ZM1146.84 1048.84L1233.66 1087.07C1233.34 1088.01 1233.33 1089.06 1233.7 1090.07C1233.9 1090.6 1234.18 1091.07 1234.53 1091.47L1211.09 1117.44L1146.47 1049.35C1146.6 1049.18 1146.73 1049.01 1146.84 1048.84ZM1167.11 976.628C1167.49 977.109 1167.97 977.499 1168.5 977.783L1144.01 1042.06C1143.16 1041.86 1142.25 1041.89 1141.38 1042.21C1141.06 1042.33 1140.77 1042.48 1140.49 1042.66L1112.79 1009.74L1167.11 976.628ZM1078.45 968.921C1078.99 968.325 1079.37 967.593 1079.54 966.805L1166.11 973.992C1166.13 974.444 1166.22 974.901 1166.38 975.348C1166.42 975.444 1166.46 975.535 1166.5 975.627L1112.03 1008.83L1078.45 968.921ZM1022.83 1023.15C1022.65 1022.68 1022.41 1022.25 1022.11 1021.88L1072.59 969.642C1072.81 969.785 1073.03 969.909 1073.27 970.012L1056.51 1027.45L1023.1 1024.53C1023.08 1024.07 1022.99 1023.61 1022.83 1023.15ZM1070.66 964.832C1070.47 965.663 1070.51 966.555 1070.82 967.415C1071 967.892 1071.25 968.32 1071.55 968.695L1021.26 1021.06C1021.1 1020.94 1020.93 1020.84 1020.76 1020.74L1047 954.444L1070.66 964.832ZM1070.46 897.323L1074.24 961.386C1074 961.431 1073.77 961.492 1073.53 961.578C1072.43 961.982 1071.58 962.77 1071.07 963.734L1047.43 953.354L1069.66 897.197C1069.92 897.263 1070.19 897.304 1070.46 897.323ZM1114.37 835.35C1114.47 835.41 1114.57 835.464 1114.68 835.515L1091.95 909.209L1074.64 895.173C1075.35 894.026 1075.55 892.583 1075.05 891.222C1074.8 890.557 1074.42 889.989 1073.94 889.526L1085.24 874.379L1114.37 835.35ZM1167.52 970.487L1092.93 910.003L1115.8 835.876C1116.38 835.987 1116.99 835.984 1117.6 835.852L1168.5 969.777C1168.14 969.972 1167.81 970.21 1167.52 970.487ZM1079.37 964.283C1078.93 963.094 1078.05 962.2 1076.98 961.712L1092.56 911.209L1166.78 971.398C1166.51 971.837 1166.32 972.32 1166.21 972.825L1079.64 965.638C1079.62 965.186 1079.53 964.73 1079.37 964.283ZM1075.44 961.317L1071.63 897.251C1071.87 897.205 1072.11 897.146 1072.34 897.059C1072.94 896.837 1073.47 896.501 1073.91 896.084L1091.58 910.414L1075.86 961.369C1075.72 961.346 1075.58 961.327 1075.44 961.317ZM1203.07 1021.86C1202.13 1022.78 1201.63 1024.08 1201.72 1025.42L1179.47 987.62L1203.07 1021.86ZM1204.69 1020.82C1204.44 1020.91 1204.22 1021.03 1204 1021.15L1173.69 977.162C1174.53 976.406 1175.06 975.359 1175.17 974.24L1204.55 973.416L1205.45 1020.62C1205.19 1020.67 1204.94 1020.73 1204.69 1020.82ZM1203.77 932.471L1204.52 972.246L1175.14 973.07C1175.1 972.784 1175.03 972.497 1174.92 972.216C1174.67 971.538 1174.28 970.96 1173.79 970.494L1202.08 931.933C1202.59 932.221 1203.17 932.403 1203.77 932.471ZM852.142 1057.5C851.57 1056.27 850.507 1055.41 849.278 1055.05L865.921 1019.87L901.256 1038.25C900.943 1038.97 900.818 1039.78 900.915 1040.59L852.142 1057.5ZM755.7 1059.47C754.862 1058.65 753.734 1058.19 752.555 1058.18L748.64 1026.44L743.149 981.935C743.294 981.898 743.439 981.853 743.582 981.8C744.202 981.573 744.74 981.223 745.184 980.79L800.126 1024.37L755.7 1059.47ZM843.518 1058.79C843.477 1059.08 843.465 1059.37 843.48 1059.66L757.02 1062.02C756.974 1061.73 756.901 1061.44 756.797 1061.16C756.697 1060.88 756.571 1060.63 756.427 1060.39L801.069 1025.12L843.518 1058.79ZM831.304 1005.33L844.619 1056.4C844.309 1056.75 844.058 1057.15 843.869 1057.57L802.013 1024.37L827.618 1004.14C828.594 1005.06 829.944 1005.51 831.304 1005.33ZM864.881 1019.33L848.065 1054.88C847.532 1054.87 846.987 1054.95 846.457 1055.15C846.155 1055.26 845.872 1055.4 845.611 1055.56L832.437 1005.03C833.258 1004.7 833.934 1004.15 834.418 1003.48L864.881 1019.33ZM741.329 982.026C741.546 982.059 741.765 982.073 741.986 982.074L747.552 1027.18L751.393 1058.32C751.248 1058.36 751.103 1058.4 750.961 1058.45C749.635 1058.94 748.671 1059.98 748.236 1061.21L720.208 1055.26L741.329 982.026ZM699.672 1115.57C699.359 1115.68 699.067 1115.83 698.797 1116L645.284 1042.6C645.81 1042.1 646.207 1041.48 646.445 1040.81L718.735 1056.15L701.672 1115.32C701.015 1115.25 700.334 1115.33 699.672 1115.57ZM1079.3 1024.98L1076.48 970.175L1076.66 970.12C1076.98 970.003 1077.28 969.852 1077.55 969.676L1111.02 1009.45L1082.76 1026.68C1081.92 1025.63 1080.65 1025 1079.3 1024.98ZM1233.78 1139.58C1233.38 1139.73 1233 1139.93 1232.67 1140.18L1211.9 1118.29L1235.4 1092.25C1235.97 1092.64 1236.61 1092.89 1237.28 1093L1234.98 1139.32C1234.58 1139.35 1234.18 1139.44 1233.78 1139.58ZM1246.25 973.107C1246.47 973.697 1246.79 974.214 1247.2 974.647L1208.67 1021.25C1208.06 1020.86 1207.35 1020.62 1206.62 1020.56L1205.72 973.384L1246.03 972.253C1246.07 972.54 1246.15 972.825 1246.25 973.107ZM1230.64 849.606C1230.97 850.528 1231.58 851.271 1232.34 851.787L1197.61 919.744L1120.1 834.356C1120.53 833.85 1120.84 833.255 1121.02 832.618L1230.36 847.992C1230.35 848.528 1230.44 849.073 1230.64 849.606ZM904.866 1016.93L904.739 1035.55C904.445 1035.6 904.152 1035.67 903.862 1035.78C903.039 1036.08 902.36 1036.6 901.856 1037.24L866.423 1018.81L904.621 938.054C904.876 938.137 905.136 938.199 905.402 938.235L904.866 1016.93ZM903.563 937.552L865.382 1018.27L834.97 1002.45C835.349 1001.46 835.388 1000.33 834.995 999.259C834.872 998.925 834.713 998.619 834.527 998.334L903.044 937.169C903.208 937.31 903.383 937.437 903.563 937.552ZM577.948 1032.56C578.108 1032.26 578.235 1031.94 578.324 1031.61L637.609 1039.3C637.609 1039.82 637.694 1040.35 637.884 1040.86C638.173 1041.65 638.663 1042.31 639.272 1042.81L624.987 1065.71L577.948 1032.56ZM470.555 1093.43C470.525 1093.35 470.485 1093.27 470.45 1093.18L505.182 1072.36L570.362 1033.27C570.891 1033.94 571.59 1034.43 572.373 1034.72L553.727 1118.1L470.79 1095.61C470.89 1094.9 470.82 1094.16 470.555 1093.43ZM464.86 1099.31L453.262 1159.69L413.254 1144.03C413.585 1143.08 413.601 1142.01 413.226 1140.98C413.17 1140.83 413.106 1140.68 413.036 1140.54L463.211 1098.35C463.688 1098.79 464.25 1099.11 464.86 1099.31ZM443.441 1202.7C443.246 1202.77 443.062 1202.86 442.883 1202.95L411.579 1146.26C412.036 1145.94 412.422 1145.54 412.726 1145.09L453.038 1160.86L445.052 1202.42C444.517 1202.42 443.973 1202.5 443.441 1202.7ZM533.749 1191.18L454.371 1160.12L466.01 1099.54C466.617 1099.58 467.243 1099.49 467.851 1099.27C468.064 1099.19 468.263 1099.1 468.455 1098.99L534.41 1189.99C534.132 1190.36 533.909 1190.76 533.749 1191.18ZM586.953 1123.09L579.161 1065.04L575.108 1034.84C575.237 1034.8 575.366 1034.76 575.494 1034.72C576.2 1034.46 576.8 1034.04 577.276 1033.52L624.366 1066.7L588.913 1123.53C588.307 1123.24 587.638 1123.09 586.953 1123.09ZM625.946 1066.38L640.264 1043.43C641.315 1043.91 642.549 1044 643.721 1043.57C643.936 1043.49 644.139 1043.39 644.335 1043.28L697.897 1116.76L697.723 1116.96L625.946 1066.38ZM762.682 1141.08L753.655 1067.13C753.801 1067.09 753.947 1067.05 754.094 1066.99C754.458 1066.86 754.793 1066.68 755.099 1066.47L795.55 1111.57L765.403 1142.01C764.626 1141.42 763.671 1141.08 762.682 1141.08ZM859.364 1177.1L849.016 1063.85C849.208 1063.81 849.399 1063.76 849.588 1063.69C849.816 1063.61 850.028 1063.5 850.233 1063.39L882.816 1107.42L860.034 1177.18C859.814 1177.14 859.59 1177.11 859.364 1177.1ZM889.862 1113.8C889.637 1113.88 889.424 1113.99 889.219 1114.1L884.116 1107.2L903.357 1048.28L891.65 1113.53C891.06 1113.5 890.453 1113.58 889.862 1113.8ZM1169.16 1159.55L1144.51 1050.75C1144.92 1050.6 1145.29 1050.4 1145.63 1050.16L1210.31 1118.31L1172.26 1160.46C1171.38 1159.8 1170.28 1159.46 1169.16 1159.55ZM1144.47 767.82C1144.98 767.633 1145.43 767.36 1145.83 767.03L1182.18 800.414L1121.24 828.636L1142 768.002C1142.8 768.166 1143.65 768.122 1144.47 767.82ZM554.339 1024.45L469.453 1091.74C469.243 1091.54 469.017 1091.36 468.773 1091.2L506.777 1012.58C507.721 1012.9 508.772 1012.91 509.778 1012.54C510.925 1012.12 511.798 1011.28 512.295 1010.26L554.339 1024.45ZM378.807 1177.88L406.427 1146.33C407.594 1147.11 409.102 1147.34 410.521 1146.82L410.545 1146.81L441.919 1203.63C441.594 1203.93 441.317 1204.27 441.095 1204.65L378.807 1177.88ZM1037.98 1137.47L1078.13 1033.94C1078.98 1034.15 1079.9 1034.12 1080.78 1033.79C1080.94 1033.73 1081.09 1033.67 1081.24 1033.59L1109.35 1075.48L1038.8 1138.03C1038.55 1137.82 1038.27 1137.63 1037.98 1137.47ZM1173.67 1165.92C1173.9 1165.41 1174.03 1164.85 1174.06 1164.28L1310.46 1147.33C1310.49 1147.48 1310.54 1147.62 1310.59 1147.76L1310.65 1147.9L1225.38 1196.09L1173.67 1165.92ZM1329.37 1253.74C1329.25 1253.77 1329.13 1253.81 1329.01 1253.85C1328.17 1254.16 1327.49 1254.69 1326.98 1255.35L1226.55 1196.77L1311.23 1148.93C1312.09 1150.08 1313.47 1150.76 1314.91 1150.74L1329.37 1253.74ZM1334.84 1256.56C1334.17 1254.7 1332.4 1253.56 1330.53 1253.58L1316.07 1150.58C1316.19 1150.55 1316.31 1150.51 1316.42 1150.47C1318.79 1149.6 1320 1146.99 1319.13 1144.63C1318.56 1143.06 1317.2 1142 1315.67 1141.72L1321 1030.11C1321.4 1030.08 1321.8 1030 1322.19 1029.85C1324.55 1028.99 1325.76 1026.38 1324.9 1024.02C1324.03 1021.66 1321.41 1020.45 1319.06 1021.31C1318.42 1021.55 1317.87 1021.92 1317.42 1022.37L1254.45 973.832C1255.1 972.702 1255.28 971.298 1254.79 969.975C1253.93 967.617 1251.31 966.405 1248.96 967.271C1248.46 967.451 1248.02 967.711 1247.64 968.025L1207.95 930.621C1208.81 929.436 1209.07 927.862 1208.53 926.387C1208.14 925.302 1207.37 924.464 1206.42 923.955L1233.83 852.462C1234.68 852.666 1235.59 852.632 1236.47 852.311C1238.83 851.446 1240.04 848.832 1239.18 846.474C1238.45 844.504 1236.51 843.34 1234.52 843.512L1222.29 787.477L1222.32 787.467C1224.68 786.603 1225.89 783.989 1225.02 781.63C1224.15 779.272 1221.55 778.061 1219.19 778.926C1217.91 779.391 1216.99 780.362 1216.52 781.526L1147.42 764.085C1147.5 763.396 1147.43 762.68 1147.17 761.983C1146.31 759.625 1143.7 758.414 1141.34 759.28C1138.98 760.145 1137.77 762.757 1138.63 765.116C1138.67 765.206 1138.71 765.292 1138.74 765.377L1014.97 840.133L1014.66 839.81L1014.4 840.479L1012.39 841.696L1013.99 841.547L983.185 920.892C982.335 920.682 981.415 920.714 980.531 921.039C978.719 921.704 977.589 923.403 977.554 925.223L910.437 932.652C910.397 932.487 910.348 932.325 910.29 932.163C909.424 929.805 906.811 928.593 904.453 929.458C902.305 930.247 901.114 932.486 901.572 934.662L721.881 897.402C721.929 896.773 721.851 896.125 721.619 895.494C720.755 893.136 718.141 891.925 715.783 892.79C713.425 893.655 712.214 896.268 713.079 898.627C713.409 899.527 713.996 900.259 714.724 900.773L643.743 1035.04C642.761 1034.67 641.649 1034.64 640.588 1035.03C639.612 1035.38 638.838 1036.04 638.32 1036.86L580.088 1009.6C580.384 1008.67 580.39 1007.64 580.028 1006.66C579.163 1004.3 576.55 1003.09 574.192 1003.95C572.544 1004.56 571.461 1006.01 571.249 1007.64L512.72 1007.68C512.676 1007.35 512.601 1007.02 512.482 1006.7C511.617 1004.34 509.005 1003.13 506.646 1004C504.287 1004.86 503.076 1007.48 503.941 1009.83C504.008 1010.01 504.086 1010.18 504.172 1010.35L417.537 1070.26C416.33 1068.92 414.39 1068.38 412.595 1069.03C410.236 1069.9 409.026 1072.51 409.891 1074.87C410.455 1076.41 411.76 1077.45 413.254 1077.76L408.916 1138.01C408.408 1138.01 407.893 1138.09 407.389 1138.28C405.216 1139.08 404.022 1141.36 404.523 1143.55L343.405 1160.1C343.378 1160.01 343.353 1159.92 343.321 1159.83C342.455 1157.47 339.842 1156.26 337.484 1157.12C335.125 1157.99 333.914 1160.6 334.779 1162.96C335.644 1165.32 338.257 1166.53 340.616 1165.66C340.755 1165.61 340.889 1165.55 341.02 1165.49L356.679 1195.57C355.025 1196.72 354.283 1198.88 355.01 1200.86C355.875 1203.22 358.488 1204.43 360.846 1203.56C362.356 1203.01 363.392 1201.74 363.717 1200.28L440.462 1207.15C440.482 1207.61 440.569 1208.08 440.736 1208.53C441.601 1210.89 444.215 1212.1 446.573 1211.24C448.311 1210.6 449.421 1209.01 449.542 1207.28L462.407 1205.32L533.783 1194.44C534.687 1196.73 537.253 1197.89 539.575 1197.04C541.933 1196.18 543.144 1193.56 542.279 1191.2C542.027 1190.52 541.625 1189.93 541.128 1189.47L584.774 1131.62C585.884 1132.23 587.237 1132.37 588.517 1131.9L588.529 1131.9L608.007 1168.99L697.511 1122.44C698.663 1124.09 700.822 1124.84 702.805 1124.11C703.841 1123.73 704.655 1123.01 705.171 1122.12L758.265 1144.42C758.022 1145.3 758.038 1146.26 758.377 1147.19C759.242 1149.55 761.855 1150.76 764.214 1149.89C765.313 1149.49 766.157 1148.7 766.664 1147.74L854.763 1180.62C854.569 1181.45 854.605 1182.35 854.921 1183.22C855.786 1185.57 858.4 1186.78 860.758 1185.92C863.117 1185.05 864.327 1182.44 863.463 1180.08C863.123 1179.16 862.51 1178.41 861.752 1177.89L889.911 1122.36C890.875 1122.7 891.96 1122.72 892.995 1122.34C895.061 1121.58 896.246 1119.49 895.928 1117.39L1039.03 1076.4L1038.87 1075.84C1039.41 1077.32 1040.64 1078.35 1042.07 1078.7L1035.72 1136.92C1035.23 1136.93 1034.73 1137.02 1034.24 1137.19C1031.89 1138.06 1030.67 1140.67 1031.54 1143.03C1032.4 1145.39 1035.02 1146.6 1037.38 1145.74C1038.76 1145.23 1039.75 1144.11 1040.15 1142.8L1164.97 1164.05C1164.96 1164.58 1165.05 1165.12 1165.24 1165.65C1165.88 1167.39 1167.48 1168.51 1169.23 1168.62L1171.48 1222.14C1171.3 1222.18 1171.11 1222.23 1170.93 1222.29C1168.57 1223.16 1167.36 1225.77 1168.23 1228.13C1169.09 1230.49 1171.71 1231.7 1174.07 1230.84C1175.33 1230.37 1176.25 1229.41 1176.72 1228.26L1326.04 1257.82C1326 1258.44 1326.08 1259.07 1326.31 1259.69C1327.17 1262.05 1329.79 1263.26 1332.15 1262.39C1334.5 1261.53 1335.71 1258.92 1334.84 1256.56Z" fill="#EBEFF6"/>
<path d="M62.1143 -158.447C62.0284 -157.752 62.0984 -157.028 62.3558 -156.325L62.3892 -156.247L13.7553 -128.764L-87.2631 -187.685C-87.2214 -187.79 -87.1797 -187.894 -87.1464 -188L62.1143 -158.447ZM68.7311 -99.8664C68.5011 -99.8214 68.2728 -99.7631 68.0461 -99.6798C67.2372 -99.3832 66.5674 -98.8783 66.0658 -98.251L14.9218 -128.081L62.9498 -155.219C63.7772 -154.079 65.0877 -153.392 66.4799 -153.347L68.7311 -99.8664ZM198.771 -72.971C198.748 -72.3936 198.834 -71.8021 199.045 -71.2247C199.175 -70.8673 199.351 -70.5407 199.555 -70.2399L129.115 -7.7901L72.606 -91.9899C73.2825 -92.5823 73.7623 -93.3579 73.9956 -94.2111L198.771 -72.971ZM195.893 -10.1462C195.403 -10.1354 194.907 -10.0504 194.42 -9.87212C192.061 -9.00648 190.85 -6.39375 191.715 -4.03513C191.914 -3.49191 192.21 -3.01286 192.571 -2.60297L162.18 35.2109L162.086 35.1609L202.23 -68.3737L202.244 -68.3712L195.893 -10.1462ZM630.624 -98.7367L649.562 -62.6767C648.449 -61.8952 647.755 -60.6605 647.645 -59.3291L542.325 -52.1424C542.281 -52.3382 542.23 -52.534 542.159 -52.7273L630.624 -98.7367ZM698.945 -120.105C699.253 -119.938 699.578 -119.807 699.916 -119.714L684.523 -50.876L656.689 -58.4235C656.771 -59.1116 656.7 -59.829 656.446 -60.5247C656.194 -61.2087 655.794 -61.7919 655.298 -62.2609L698.945 -120.105ZM875.301 -130.44C875.319 -129.978 875.407 -129.511 875.575 -129.055C875.775 -128.508 876.073 -128.026 876.436 -127.614L861.129 -110.13L798.49 -137.053C798.514 -137.137 798.536 -137.223 798.556 -137.31L875.301 -130.44ZM896.18 -95.0642L862.259 -109.643L877.318 -126.844C878.485 -126.065 879.991 -125.83 881.409 -126.349L897.121 -96.174C896.747 -95.8532 896.429 -95.4791 896.18 -95.0642ZM834.442 -75.4396L834.441 -75.4429C834.241 -75.9886 833.943 -76.4702 833.58 -76.8826L861.449 -108.717L895.713 -93.9895C895.582 -93.5404 895.518 -93.0688 895.531 -92.5906L834.288 -76.0086L834.442 -75.4396ZM824.704 -9.17229C824.268 -9.14729 823.828 -9.05981 823.398 -8.90152C822.356 -8.51994 821.54 -7.79675 821.025 -6.90446L790.465 -19.6241L827.591 -70.1341C828.034 -69.83 828.525 -69.6034 829.045 -69.4701L824.704 -9.17229ZM734.29 57.3599C734.215 57.2766 734.135 57.1983 734.055 57.1208L789.752 -18.6526L820.578 -5.82304C820.338 -4.94408 820.356 -3.98514 820.693 -3.06453C820.759 -2.88539 820.838 -2.71544 820.924 -2.54965L734.29 57.3599ZM667.876 59.861C667.833 59.5336 667.757 59.2062 667.639 58.8829C667.537 58.6071 667.411 58.3497 667.265 58.1072L683.692 45.0861L726.456 59.5202C726.437 59.6211 726.418 59.7219 726.404 59.8243L667.876 59.861ZM339.928 133.309L447.872 104.767L518.054 169.001C517.813 169.348 517.618 169.726 517.479 170.125L339.928 133.309ZM261.445 142.285C261.405 142.122 261.357 141.96 261.298 141.797C261.026 141.057 260.583 140.43 260.028 139.944L287.591 98.897L329.234 132.565C328.813 133.251 328.578 134.041 328.562 134.858L261.445 142.285ZM189.642 191.108L253.664 146.424C254.008 146.802 254.41 147.113 254.85 147.353L224.036 226.732L189.642 191.108ZM126.918 236.262C126.877 236.073 126.825 235.884 126.757 235.696C126.689 235.511 126.606 235.335 126.517 235.163L188.67 191.786L222.983 227.327L126.918 236.262ZM99.7789 302.292C99.3581 301.763 98.8291 301.342 98.2359 301.05L119.055 240.244C120.258 241.626 122.23 242.202 124.052 241.533C125.839 240.878 126.965 239.219 127.03 237.428L221.762 228.617L99.7789 302.292ZM22.8865 286.012C22.9615 285.391 22.9116 284.746 22.7116 284.115L55.7957 268.793L92.5047 302.504C92.2981 302.8 92.129 303.119 91.9965 303.453L22.8865 286.012ZM5.7572 224.915L5.79053 224.904C6.29877 224.717 6.74866 224.443 7.14856 224.113L54.8626 267.935L22.22 283.05C21.3119 281.609 19.6707 280.804 17.9877 280.949L5.7572 224.915ZM-77.5737 45.3802C-77.2737 44.8636 -77.0738 44.2904 -76.9905 43.6939L-6.28174 43.9963L-11.4971 92.5876C-11.9887 92.5976 -12.4803 92.6843 -12.9636 92.8618C-13.605 93.0967 -14.155 93.4633 -14.6049 93.9173L-77.5737 45.3802ZM-75.3658 -72.9934C-74.9659 -73.0259 -74.566 -73.1076 -74.1661 -73.2526C-73.5079 -73.495 -72.9413 -73.8782 -72.4832 -74.3506L-23.8527 -37.8607L-79.34 39.0925C-79.7648 38.8625 -80.2231 38.7017 -80.6979 38.6159L-75.3658 -72.9934ZM99.1657 18.7605C98.2376 17.9548 97.0045 17.5482 95.754 17.6665L71.108 -91.1176L71.1788 -91.1393C71.3363 -91.1968 71.4879 -91.2634 71.6345 -91.3367L128.23 -7.00612L99.1657 18.7605ZM156.914 35.7341C156.382 36.2014 155.973 36.7822 155.709 37.4262L100.688 22.7845C100.781 22.0789 100.712 21.3399 100.45 20.625C100.319 20.2676 100.144 19.9402 99.9397 19.6394L128.888 -6.02551L156.914 35.7341ZM193.88 -1.57568L181.757 39.9748L164.407 38.4576C164.361 38.166 164.287 37.8736 164.182 37.5845C163.944 36.9363 163.571 36.3789 163.11 35.9232L193.451 -1.8298C193.59 -1.73732 193.732 -1.65234 193.88 -1.57568ZM346.324 -45.064L333.918 24.0784C333.328 24.0492 332.721 24.1367 332.131 24.3517C330.752 24.8591 329.768 25.9646 329.36 27.2668L200.472 -4.86411C200.566 -5.43147 200.552 -6.02051 200.418 -6.60538L343.527 -47.5935C344.065 -46.3446 345.107 -45.4514 346.324 -45.064ZM355.455 -39.8969L350.849 -46.1205C352.108 -47.3327 352.607 -49.2164 351.968 -50.9627C351.628 -51.89 351.015 -52.6356 350.257 -53.1514L377.015 -105.926L355.455 -39.8969ZM441.967 -42.9345L393.859 5.63847C393.118 5.07527 392.216 4.74452 391.275 4.70869L380.927 -108.54C381.118 -108.584 381.31 -108.635 381.5 -108.705C381.866 -108.839 382.2 -109.019 382.506 -109.23L441.967 -42.9345ZM472.207 -75.3821C472.374 -74.928 472.606 -74.5181 472.888 -74.1549L442.792 -43.7685L383.38 -110.009C383.604 -110.268 383.792 -110.551 383.95 -110.851L472.049 -77.9756C471.856 -77.1425 471.891 -76.2452 472.207 -75.3821ZM533.617 -49.5988C533.827 -49.0265 534.141 -48.5224 534.53 -48.0992L489.182 2.2101C488.439 1.69772 487.551 1.4128 486.634 1.40529L477.606 -72.5411C477.753 -72.5794 477.899 -72.6244 478.044 -72.6777C479.081 -73.0576 479.896 -73.7766 480.41 -74.6614L533.506 -52.3707C533.261 -51.4876 533.277 -50.5253 533.617 -49.5988ZM647.904 -57.392C648.185 -56.6264 648.652 -55.9849 649.232 -55.4925L613.802 1.29614L542.025 -49.2789C542.266 -49.8088 542.407 -50.3853 542.432 -50.976L647.701 -58.1602C647.747 -57.9028 647.812 -57.6453 647.904 -57.392ZM665.61 33.7004C665.466 33.687 665.323 33.6812 665.179 33.6812L661.078 3.13571L653.335 -54.561C653.47 -54.5977 653.607 -54.6385 653.741 -54.6877C655.009 -55.1525 655.939 -56.1248 656.401 -57.2879L684.267 -49.733L665.61 33.7004ZM702.684 -119.827C703.124 -119.988 703.524 -120.21 703.879 -120.481L769.719 -29.6351C769.25 -29.1918 768.889 -28.6561 768.645 -28.0696L685.655 -50.5694L701.08 -119.552C701.613 -119.549 702.154 -119.633 702.684 -119.827ZM789.657 -137.434C789.703 -137.199 789.763 -136.962 789.848 -136.728C790.373 -135.296 791.546 -134.289 792.912 -133.912L784.98 -92.6181L705.641 -123.66C705.672 -123.98 705.67 -124.303 705.631 -124.629L725.374 -127.638L789.657 -137.434ZM777.227 -25.1344C777.466 -26.0134 777.449 -26.9715 777.111 -27.8922C776.994 -28.2096 776.844 -28.5053 776.668 -28.7794L826.61 -70.7756L789.352 -20.0873L777.227 -25.1344ZM771.405 -22.0118C772.349 -21.6977 773.401 -21.6869 774.407 -22.0552C775.448 -22.4376 776.264 -23.1607 776.778 -24.0522L788.639 -19.1158L734.21 54.933L771.405 -22.0118ZM669.654 39.1124C669.813 38.3193 669.767 37.4753 669.469 36.6605C669.436 36.5747 669.399 36.4947 669.363 36.4114L765.43 -21.1995L683.463 43.773L669.654 39.1124ZM664.321 56.0061L665.41 42.7708C665.862 42.75 666.317 42.6608 666.764 42.4975C667.912 42.0768 668.784 41.2403 669.281 40.223L682.37 44.6404L666.535 57.1908C665.921 56.5951 665.152 56.1852 664.321 56.0061ZM601.368 30.5369L660.653 38.2277C660.653 38.7475 660.737 39.2758 660.927 39.7931C661.485 41.3136 662.769 42.3525 664.244 42.67L663.153 55.9053C662.704 55.9269 662.248 56.0152 661.801 56.1794C660.827 56.5359 660.052 57.195 659.534 58.0098L601.301 30.7569L601.368 30.5369ZM521.014 167.131L498.99 95.2804C501.138 94.3056 502.205 91.827 501.381 89.5767C501.341 89.4717 501.296 89.3717 501.251 89.2709L593.446 32.2457C593.709 32.5698 594.013 32.8539 594.347 33.0897L523.366 167.355C522.63 167.08 521.821 166.994 521.014 167.131ZM492.903 92.8609C493.718 94.8571 495.803 95.9785 497.871 95.6253L519.896 167.476C519.51 167.652 519.158 167.876 518.847 168.139L449.218 104.412L492.903 92.8609ZM412.122 70.4602C412.334 70.1586 412.506 69.8321 412.639 69.4896L492.601 90.5606C492.55 90.9439 492.55 91.3371 492.602 91.7295L448.192 103.472L412.122 70.4602ZM336.858 132.379L405.359 71.2292C406.572 72.3181 408.33 72.7197 409.968 72.119C410.481 71.9316 410.935 71.6566 411.331 71.3225L446.846 103.828L337.133 132.836C337.05 132.678 336.958 132.525 336.858 132.379ZM331.958 32.8197C332.358 32.9864 332.78 33.0947 333.216 33.1422L333.094 50.9272L332.551 130.432C332.213 130.474 331.875 130.551 331.54 130.674C330.935 130.896 330.407 131.234 329.968 131.653L288.246 97.9206L331.958 32.8197ZM224.443 46.3349C224.88 45.6234 225.117 44.797 225.115 43.9463L282.363 36.3781L299.175 34.1553L329.418 30.157L329.427 30.1887C329.737 31.0343 330.274 31.7283 330.941 32.2365L287.332 97.1808L224.443 46.3349ZM256.025 138.931L222.671 47.9854C223.057 47.7854 223.405 47.5372 223.709 47.2473L286.677 98.1572L259.053 139.296C258.138 138.84 257.073 138.692 256.025 138.931ZM173.666 174.559L252.988 145.469L188.819 190.254L173.666 174.559ZM125.688 234.038L166.124 179.848C167.243 180.477 168.618 180.632 169.917 180.156C171.911 179.424 173.08 177.441 172.871 175.421L187.847 190.933L125.849 234.202L125.688 234.038ZM8.60651 221.84L117.942 237.214C117.937 237.683 118.005 238.157 118.152 238.625L56.0123 267.402L7.94 223.253C8.23993 222.824 8.4649 222.345 8.60651 221.84ZM36.4251 144.991C36.8 144.853 37.1416 144.667 37.4582 144.451L40.6741 148.002L8.70654 210.562L33.7924 145.141C34.6339 145.346 35.5503 145.312 36.4251 144.991ZM28.3603 44.1446C28.402 44.4796 28.477 44.8153 28.6019 45.1444C28.8185 45.7334 29.1435 46.2508 29.5434 46.6824L-8.97278 93.285C-9.39764 93.0226 -9.84753 92.8259 -10.3307 92.7101L-5.10706 44.0013L28.3603 44.1446ZM1.24994 -15.2834C1.6665 -15.2934 2.09137 -15.3617 2.50793 -15.4917L30.4765 39.7123C29.3018 40.4371 28.5436 41.6477 28.3603 42.9741L-4.98206 42.8316L1.24994 -15.2834ZM-77.2321 41.5236C-77.3154 41.2769 -77.432 41.0462 -77.557 40.8262L-2.08264 -16.6322C-1.48279 -16.029 -0.732971 -15.6041 0.0917969 -15.4058L-6.15674 42.8266L-76.9905 42.5233C-77.0321 42.1892 -77.1071 41.8535 -77.2321 41.5236ZM-2.8075 -22.0652C-3.44067 -20.9454 -3.599 -19.5657 -3.11578 -18.2619C-3.03247 -18.0152 -2.91577 -17.7845 -2.79083 -17.5637L-78.2652 39.8939L-78.3901 39.7765L-22.9196 -37.1575L-2.8075 -22.0652ZM1.61646 -71.1805C2.03302 -70.9523 2.49127 -70.7923 2.96613 -70.7065L0.666687 -24.3463C0.30011 -24.3071 -0.0581055 -24.2297 -0.416382 -24.0989C-1.07452 -23.8564 -1.64111 -23.474 -2.09937 -23.0016L-22.2281 -38.1065L1.61646 -71.1805ZM-71.2418 -76.8051L-0.749634 -74.7264C-0.707947 -74.3531 -0.632996 -73.9799 -0.491394 -73.6116C-0.241455 -72.9218 0.166809 -72.3344 0.666687 -71.8646L-23.1695 -38.8096L-71.775 -75.2854C-71.5167 -75.7553 -71.3334 -76.2694 -71.2418 -76.8051ZM7.90668 -77.0734C6.92358 -79.2112 4.45752 -80.2726 2.20801 -79.4495C0.608398 -78.8621 -0.458069 -77.4683 -0.71637 -75.8969L-68.0842 -77.884L63.0282 -94.1769L7.90668 -77.0734ZM28.0104 -50.4886L7.29846 -72.3128C8.11499 -73.3142 8.48157 -74.6381 8.25659 -75.9553L65.4076 -93.6887C65.5692 -93.2921 65.7792 -92.928 66.0325 -92.6048L28.0104 -50.4886ZM155.64 40.7171C155.675 40.8129 155.719 40.9045 155.759 40.9962L127.345 58.3189L99.5298 25.264C99.8931 24.8666 100.18 24.41 100.382 23.916L155.403 38.5576C155.309 39.2641 155.379 40.0022 155.64 40.7171ZM164.731 98.3305C164.427 98.283 164.115 98.2639 163.802 98.2805L160.987 43.5689C161.151 43.5289 161.315 43.4806 161.477 43.4214C163.158 42.8058 164.25 41.3011 164.43 39.6348L181.422 41.1212L164.731 98.3305ZM197.125 -1.19827L218.018 40.1972C217.044 40.8579 216.379 41.8618 216.131 42.9807L182.946 40.0781L194.98 -1.16747C195.67 -1.01083 196.403 -1.01082 197.125 -1.19827ZM329.169 29.0081L252.685 39.1199L224.963 42.7849C224.928 42.6525 224.889 42.5208 224.841 42.3909C223.983 40.0506 221.405 38.8434 219.061 39.6682L198.213 -1.64067C199.082 -2.12807 199.745 -2.87206 200.135 -3.74103L329.153 28.4199C329.144 28.6157 329.152 28.8115 329.169 29.0081ZM387.949 5.97757C386.872 7.01566 386.355 8.5453 386.63 10.0591L337.921 26.9461C337.482 25.8388 336.655 24.9965 335.654 24.5191L355.864 -37.3775L387.949 5.97757ZM483.152 2.9841C482.548 3.68643 482.173 4.56207 482.078 5.48769L424.563 7.05231L395.423 7.84546L395.373 7.68718C395.207 7.23311 394.974 6.82237 394.693 6.4608L442.751 -42.0614L483.152 2.9841ZM536.308 -46.9028L519.242 12.2803L491.129 6.31332C491.181 5.67764 491.103 5.02196 490.87 4.38377C490.677 3.85973 490.394 3.39566 490.051 2.99408L535.428 -47.3452C535.705 -47.1661 535.999 -47.0178 536.308 -46.9028ZM498.921 86.9756L520.066 13.6516L592.441 29.0114C592.39 29.6479 592.467 30.3045 592.701 30.9427C592.74 31.0476 592.786 31.1485 592.831 31.2493L500.635 88.2745C500.171 87.7038 499.581 87.2622 498.921 86.9756ZM412.672 66.2829C412.56 65.9796 412.419 65.6972 412.255 65.4331L438.055 45.0494L493.213 88.8002C493.093 89.001 492.99 89.2126 492.902 89.4292L412.918 68.3524C412.994 67.6734 412.923 66.9677 412.672 66.2829ZM253.134 141.015L193.197 114.701L219.455 48.3662C220.133 48.5378 220.857 48.552 221.573 48.3895L254.926 139.334C254.166 139.729 253.556 140.317 253.134 141.015ZM172.38 173.784C171.958 172.972 171.316 172.332 170.554 171.91L192.767 115.791L252.666 142.088C252.454 142.813 252.419 143.593 252.594 144.366L172.38 173.784ZM66.9431 99.1745C67.7538 99.4636 68.6486 99.5252 69.5292 99.3136L120.318 232.941L120.18 233.345C120.081 233.404 119.985 233.467 119.891 233.533L42.0905 147.814L66.9431 99.1745ZM39.1328 139.154C38.8829 138.477 38.483 137.898 37.9998 137.433L64.6387 101.112L41.249 146.887L38.3247 143.665C39.3495 142.457 39.716 140.748 39.1328 139.154ZM-6.87323 97.5907L33.4341 96.4601L34.1923 136.221C33.8923 136.266 33.5925 136.341 33.2925 136.449C32.801 136.63 32.3677 136.89 31.9844 137.202L-7.71472 99.7993C-7.24817 99.1536 -6.95654 98.3897 -6.87323 97.5907ZM35.3587 39.7748C34.2589 39.0608 32.8759 38.8275 31.5429 39.2341L9.93958 -3.41194L35.3587 39.7748ZM4.9574 -17.3421L91.8199 20.9108C91.5533 21.8131 91.5591 22.8054 91.9082 23.7576C92.3073 24.8449 93.0804 25.6847 94.0269 26.1937L69.5334 90.469C68.691 90.2657 67.7821 90.3007 66.9081 90.6215L66.6948 90.7122L3.80762 -16.1382C4.26581 -16.4698 4.64911 -16.8797 4.9574 -17.3421ZM92.2889 19.8377L5.46558 -18.396C5.78217 -19.3391 5.79053 -20.3897 5.42389 -21.3945C5.22394 -21.9244 4.94067 -22.3918 4.59076 -22.7958L28.0354 -48.7649L92.6522 19.3253C92.5206 19.4886 92.3973 19.6586 92.2889 19.8377ZM72.0186 92.0453C71.6329 91.5646 71.1571 91.1747 70.6255 90.8906L95.1199 26.6136C95.9622 26.8161 96.8713 26.7828 97.7452 26.462C98.0643 26.3446 98.36 26.1938 98.6342 26.018L126.332 58.9346L72.0186 92.0453ZM160.68 99.7519C160.133 100.348 159.758 101.081 159.589 101.868L73.0184 94.6814C72.9976 94.2298 72.9084 93.7724 72.7451 93.325C72.7093 93.2292 72.6677 93.1384 72.626 93.0467L127.096 59.841L160.68 99.7519ZM216.3 45.5235C216.473 45.995 216.719 46.4191 217.016 46.7915L166.532 99.0312C166.317 98.8887 166.091 98.7646 165.855 98.6613L182.612 41.2245L216.026 44.1463C216.045 44.6054 216.133 45.0677 216.3 45.5235ZM168.462 103.841C168.654 103.01 168.617 102.118 168.302 101.258C168.127 100.782 167.877 100.353 167.576 99.9784L217.868 47.6138C218.028 47.7313 218.194 47.8363 218.367 47.9313L192.124 114.229L168.462 103.841ZM168.669 171.35L164.881 107.288C165.121 107.243 165.36 107.181 165.597 107.095C166.699 106.691 167.547 105.903 168.052 104.94L191.694 115.319L169.466 171.476C169.206 171.41 168.939 171.37 168.669 171.35ZM124.759 233.324C124.656 233.264 124.551 233.21 124.443 233.159L147.173 159.465L164.482 173.501C163.777 174.647 163.58 176.09 164.08 177.451C164.324 178.116 164.71 178.685 165.186 179.147L153.883 194.294L124.759 233.324ZM71.6087 98.1864L146.193 158.67L123.329 232.797C122.744 232.686 122.134 232.69 121.526 232.821L70.6222 98.8962C70.9871 98.7013 71.3188 98.463 71.6087 98.1864ZM159.76 104.391C160.196 105.579 161.076 106.474 162.142 106.961L146.565 157.464L72.3444 97.2757C72.6143 96.8358 72.8076 96.3535 72.9167 95.8486L159.487 103.035C159.508 103.487 159.597 103.943 159.76 104.391ZM163.683 107.356L167.498 171.422C167.259 171.469 167.02 171.528 166.784 171.614C166.181 171.836 165.655 172.173 165.217 172.589L147.545 158.259L163.262 107.304C163.401 107.328 163.542 107.346 163.683 107.356ZM36.0585 46.8165C37 45.8917 37.4999 44.5895 37.4083 43.2565L59.6531 81.0536L36.0585 46.8165ZM34.434 47.8496C34.6839 47.7605 34.9088 47.648 35.1254 47.5238L65.4343 91.5112C64.5928 92.2677 64.0671 93.3142 63.9537 94.4331L34.5756 95.257L33.6757 48.0512C33.934 48.0046 34.184 47.9413 34.434 47.8496ZM35.3587 136.203L34.6006 96.4276L63.983 95.6036C64.0288 95.8894 64.0995 96.176 64.2037 96.4576C64.452 97.1349 64.8478 97.7131 65.3368 98.1797L37.0499 136.74C36.5334 136.453 35.9586 136.27 35.3587 136.203ZM386.984 11.1764C387.555 12.4019 388.618 13.2667 389.847 13.6208L373.204 48.8061L337.87 30.4244C338.182 29.6996 338.307 28.894 338.211 28.0842L386.984 11.1764ZM483.426 9.20349C484.264 10.0191 485.391 10.4874 486.571 10.4949L490.486 42.2309L495.977 86.7382C495.831 86.7756 495.687 86.8206 495.544 86.8731C494.924 87.1006 494.386 87.4505 493.942 87.8829L438.999 44.3038L483.426 9.20349ZM395.607 9.88499C395.648 9.59756 395.661 9.30595 395.646 9.01103L482.106 6.65741C482.152 6.94566 482.224 7.23227 482.328 7.51637C482.428 7.78882 482.554 8.04459 482.698 8.28537L438.057 43.5564L395.607 9.88499ZM407.821 63.3394L394.507 12.272C394.817 11.9204 395.068 11.5255 395.257 11.1006L437.113 44.3021L411.508 64.5316C410.532 63.6176 409.182 63.1636 407.821 63.3394ZM374.244 49.3468L391.06 13.7974C391.593 13.8033 392.138 13.7191 392.669 13.5242C392.971 13.4134 393.253 13.2734 393.515 13.1093L406.688 63.6402C405.868 63.9734 405.192 64.5191 404.708 65.1939L374.244 49.3468ZM497.796 86.6474C497.58 86.614 497.361 86.5999 497.139 86.599L491.574 41.4911L487.732 10.3549C487.877 10.3182 488.022 10.2732 488.165 10.2216C489.491 9.73503 490.455 8.69444 490.89 7.45973L518.917 13.4084L497.796 86.6474ZM539.454 -46.8945C539.767 -47.0103 540.058 -47.1577 540.328 -47.3294L593.841 26.0771C593.315 26.5762 592.919 27.1927 592.681 27.8675L520.39 12.5236L537.453 -46.642C538.111 -46.5779 538.791 -46.652 539.454 -46.8945ZM159.821 43.6956L162.641 98.4988L162.464 98.5538C162.146 98.6704 161.85 98.8212 161.576 98.997L128.107 59.2245L156.368 41.9976C157.21 43.0474 158.48 43.6689 159.821 43.6956ZM5.34058 -70.9081C5.74884 -71.0572 6.12378 -71.2614 6.45703 -71.5063L27.2272 -49.6172L3.7243 -23.5765C3.15771 -23.9622 2.51624 -24.2197 1.84143 -24.3238L4.14087 -70.6473C4.54077 -70.6798 4.94067 -70.7623 5.34058 -70.9081ZM-7.12317 95.5661C-7.33978 94.9763 -7.66473 94.4589 -8.073 94.0265L30.4515 47.4247C31.0681 47.8129 31.7762 48.0504 32.5093 48.1095L33.4092 95.2895L-6.90656 96.4201C-6.94824 96.1335 -7.02319 95.8486 -7.12317 95.5661ZM8.48987 219.067C8.15662 218.145 7.54846 217.402 6.79028 216.887L41.5156 148.929L119.024 234.318C118.592 234.823 118.281 235.418 118.105 236.056L8.76477 220.682C8.77313 220.145 8.68982 219.6 8.48987 219.067ZM334.26 51.7454L334.387 33.1197C334.681 33.0738 334.974 32.9997 335.264 32.8931C336.086 32.5914 336.765 32.0741 337.269 31.4317L372.703 49.865L334.504 130.619C334.25 130.536 333.989 130.475 333.723 130.438L334.26 51.7454ZM335.562 131.121L373.743 50.4065L404.155 66.2271C403.776 67.2168 403.737 68.3416 404.131 69.4147C404.253 69.7479 404.412 70.0545 404.599 70.3394L336.081 131.505C335.917 131.363 335.743 131.236 335.562 131.121ZM661.177 36.1106C661.017 36.4139 660.891 36.733 660.802 37.0662L601.516 29.3772C601.516 28.8573 601.432 28.3283 601.242 27.8109C600.953 27.0186 600.462 26.3612 599.854 25.8638L614.138 2.9666L661.177 36.1106ZM768.57 -24.7595C768.601 -24.6737 768.64 -24.5929 768.676 -24.5113L733.943 -3.68187L668.764 35.405C668.235 34.7368 667.536 34.2394 666.753 33.9545L685.398 -49.4264L768.335 -26.9407C768.236 -26.2284 768.305 -25.4819 768.57 -24.7595ZM774.265 -30.6415L785.864 -91.0151L825.872 -75.3612C825.541 -74.4056 825.525 -73.3342 825.9 -72.3103C825.956 -72.1578 826.019 -72.0112 826.089 -71.8687L775.914 -29.6751C775.438 -30.1125 774.875 -30.4399 774.265 -30.6415ZM795.685 -134.024C795.88 -134.095 796.064 -134.183 796.243 -134.277L827.546 -77.5866C827.089 -77.2633 826.704 -76.8642 826.399 -76.4118L786.088 -92.1849L794.073 -133.749C794.608 -133.744 795.152 -133.829 795.685 -134.024ZM705.376 -122.506L784.755 -91.4492L773.116 -30.8648C772.508 -30.9023 771.883 -30.8198 771.274 -30.5965C771.062 -30.5182 770.863 -30.4224 770.67 -30.3174L704.716 -121.321C704.994 -121.682 705.216 -122.082 705.376 -122.506ZM652.173 -54.4144L659.964 3.63478L664.017 33.8362C663.888 33.8712 663.759 33.9086 663.632 33.9561C662.925 34.2144 662.325 34.6326 661.85 35.1508L614.76 1.97098L650.212 -54.8568C650.819 -54.5668 651.488 -54.4144 652.173 -54.4144ZM613.18 2.29091L598.862 25.2406C597.81 24.7591 596.576 24.6766 595.405 25.1065C595.19 25.1848 594.987 25.2831 594.791 25.3914L541.228 -48.0833L541.402 -48.285L613.18 2.29091ZM476.443 -72.4036L485.471 1.54359C485.324 1.58191 485.179 1.62607 485.032 1.68022C484.667 1.81352 484.333 1.99348 484.026 2.20427L443.576 -42.8954L473.723 -73.3334C474.499 -72.7427 475.454 -72.4111 476.443 -72.4036ZM379.761 -108.431L390.11 4.81868C389.918 4.862 389.726 4.91365 389.537 4.9828C389.31 5.06612 389.097 5.17024 388.892 5.28355L356.31 -38.7422L379.091 -108.509C379.311 -108.469 379.535 -108.439 379.761 -108.431ZM349.263 -45.1257C349.489 -45.209 349.701 -45.3132 349.906 -45.4273L355.009 -38.5314L335.769 20.3951L347.475 -44.8524C348.066 -44.8233 348.672 -44.9091 349.263 -45.1257ZM69.9608 -90.8768L94.6118 17.9215C94.2043 18.0706 93.8345 18.2747 93.4995 18.518L28.8185 -49.6363L66.869 -91.785C67.7437 -91.1243 68.8419 -90.791 69.9608 -90.8768ZM94.6559 300.853C94.1452 301.041 93.6928 301.313 93.2987 301.644L56.9454 268.259L117.889 240.037L97.1279 300.671C96.3289 300.507 95.4782 300.552 94.6559 300.853ZM684.786 44.2196L769.672 -23.0683C769.882 -22.8641 770.109 -22.6825 770.352 -22.5234L732.348 56.0927C731.404 55.7778 730.354 55.7661 729.347 56.1352C728.2 56.5568 727.327 57.3924 726.83 58.4097L684.786 44.2196ZM860.318 -109.203L832.698 -77.6524C831.531 -78.4322 830.023 -78.6672 828.604 -78.1473L828.58 -78.1365L797.207 -134.955C797.532 -135.255 797.808 -135.6 798.031 -135.975L860.318 -109.203ZM201.141 -68.8011L160.996 34.7326C160.147 34.5243 159.228 34.556 158.345 34.8801C158.185 34.9384 158.034 35.0067 157.885 35.08L129.772 -6.80865L200.329 -69.361C200.579 -69.1443 200.852 -68.9586 201.141 -68.8011ZM65.4559 -97.2512C65.2285 -96.7363 65.0927 -96.1806 65.0668 -95.6108L-71.3334 -78.6605C-71.3668 -78.8046 -71.4167 -78.9471 -71.4667 -79.0896L-71.525 -79.2304L13.747 -127.413L65.4559 -97.2512ZM-90.2457 -185.068C-90.1291 -185.101 -90.0042 -185.136 -89.8875 -185.179C-89.046 -185.487 -88.3628 -186.017 -87.8546 -186.674L12.5723 -128.097L-72.0999 -80.2518C-72.9664 -81.4107 -74.3411 -82.083 -75.7824 -82.068L-90.2457 -185.068ZM-95.7195 -187.884C-95.0446 -186.027 -93.2784 -184.886 -91.4038 -184.906L-76.9404 -81.9056C-77.0654 -81.8723 -77.1821 -81.8373 -77.2988 -81.7939C-79.6649 -80.9291 -80.8729 -78.3156 -80.0065 -75.9569C-79.4316 -74.384 -78.0735 -73.3267 -76.5405 -73.0501L-81.8727 38.5601C-82.2726 38.5926 -82.6725 38.6742 -83.064 38.8192C-85.4218 39.6848 -86.6382 42.2967 -85.7717 44.6553C-84.9053 47.014 -82.2892 48.2254 -79.9315 47.3605C-79.2899 47.1248 -78.7401 46.7582 -78.2902 46.305L-15.3213 94.8413C-15.9795 95.971 -16.1544 97.3749 -15.6628 98.6987C-14.8047 101.057 -12.1887 102.268 -9.83087 101.402C-9.33929 101.222 -8.89777 100.962 -8.51453 100.648L31.1763 138.052C30.3182 139.237 30.0516 140.812 30.5931 142.286C30.9847 143.372 31.7596 144.209 32.701 144.718L5.29065 216.212C4.44086 216.008 3.53265 216.041 2.6579 216.363C0.30011 217.227 -0.916321 219.841 -0.0498657 222.2C0.674988 224.169 2.61627 225.334 4.60748 225.161L16.838 281.197L16.8046 281.206C14.4468 282.071 13.2388 284.684 14.1053 287.043C14.9717 289.402 17.5795 290.612 19.9373 289.747C21.212 289.282 22.1368 288.311 22.6033 287.147L91.7083 304.588C91.6258 305.277 91.6958 305.994 91.9515 306.69C92.8163 309.049 95.4299 310.259 97.7885 309.394C100.147 308.529 101.358 305.916 100.493 303.557C100.46 303.467 100.419 303.382 100.381 303.296L224.154 228.541L224.466 228.863L224.724 228.195L226.74 226.978L225.138 227.127L255.94 147.782C256.79 147.992 257.71 147.959 258.594 147.634C260.407 146.969 261.537 145.271 261.572 143.45L328.689 136.022C328.729 136.186 328.777 136.348 328.835 136.51C329.702 138.869 332.315 140.08 334.672 139.215C336.821 138.426 338.012 136.188 337.553 134.011L517.244 171.271C517.196 171.9 517.274 172.548 517.506 173.179C518.371 175.538 520.984 176.748 523.342 175.884C525.701 175.019 526.911 172.405 526.047 170.047C525.717 169.146 525.129 168.414 524.401 167.9L595.382 33.6354C596.365 34.002 597.476 34.037 598.538 33.6479C599.513 33.2896 600.288 32.6306 600.805 31.8166L659.038 59.0695C658.741 59.9993 658.735 61.0291 659.098 62.0155C659.963 64.3741 662.575 65.5855 664.934 64.7207C666.581 64.1158 667.665 62.6587 667.877 61.0324L726.406 60.9941C726.45 61.3215 726.525 61.6489 726.643 61.9722C727.509 64.3308 730.121 65.5414 732.479 64.6766C734.839 63.8118 736.049 61.1982 735.184 58.8396C735.118 58.6605 735.039 58.4897 734.954 58.3239L821.588 -1.58569C822.796 -0.248505 824.735 0.297195 826.531 -0.360977C828.889 -1.22578 830.099 -3.83934 829.235 -6.19795C828.671 -7.73344 827.365 -8.77737 825.871 -9.08315L830.209 -69.3318C830.717 -69.336 831.232 -69.4209 831.737 -69.6059C833.909 -70.4024 835.103 -72.6827 834.603 -74.8797L895.72 -91.4284C895.747 -91.3367 895.772 -91.2451 895.804 -91.1535C896.67 -88.7948 899.284 -87.5843 901.642 -88.4491C904 -89.3147 905.211 -91.9283 904.346 -94.2861C903.481 -96.6447 900.868 -97.8552 898.509 -96.9904C898.371 -96.9396 898.237 -96.8813 898.106 -96.8188L882.446 -126.894C884.1 -128.047 884.843 -130.204 884.115 -132.187C883.251 -134.546 880.637 -135.756 878.279 -134.891C876.769 -134.338 875.733 -133.066 875.408 -131.605L798.663 -138.475C798.644 -138.937 798.556 -139.403 798.389 -139.861C797.524 -142.218 794.911 -143.43 792.552 -142.565C790.815 -141.928 789.704 -140.341 789.584 -138.608L776.718 -136.648L705.343 -125.77C704.438 -128.056 701.873 -129.22 699.551 -128.367C697.192 -127.503 695.982 -124.889 696.847 -122.53C697.098 -121.846 697.501 -121.261 697.998 -120.792L654.351 -62.9474C653.242 -63.5531 651.889 -63.6981 650.609 -63.229L650.596 -63.2232L631.118 -100.314L541.615 -53.7654C540.462 -55.42 538.304 -56.1631 536.321 -55.4358C535.285 -55.0559 534.471 -54.3378 533.955 -53.4513L480.86 -75.7428C481.104 -76.6259 481.088 -77.5891 480.749 -78.5138C479.884 -80.8725 477.27 -82.0839 474.912 -81.2191C473.813 -80.8158 472.968 -80.031 472.461 -79.0712L384.363 -111.947C384.557 -112.781 384.521 -113.677 384.204 -114.542C383.339 -116.9 380.726 -118.111 378.367 -117.246C376.009 -116.381 374.798 -113.767 375.663 -111.409C376.003 -110.482 376.615 -109.737 377.373 -109.221L349.214 -53.6846C348.25 -54.0262 347.165 -54.047 346.13 -53.6671C344.064 -52.9097 342.88 -50.8119 343.198 -48.7174L200.096 -7.73096L200.257 -7.16774C199.714 -8.64824 198.482 -9.67467 197.057 -10.0221L203.408 -68.247C203.899 -68.257 204.396 -68.342 204.881 -68.5203C207.24 -69.3851 208.451 -71.9987 207.586 -74.3573C206.721 -76.7159 204.107 -77.9265 201.749 -77.0617C200.361 -76.5526 199.375 -75.4362 198.971 -74.1249L74.1565 -95.3725C74.1606 -95.9049 74.0765 -96.4464 73.8824 -96.9763C73.2426 -98.7209 71.6428 -99.8356 69.8991 -99.9473L67.6462 -153.462C67.8295 -153.504 68.012 -153.555 68.192 -153.621C70.5506 -154.486 71.762 -157.099 70.8972 -159.458C70.0324 -161.816 67.4188 -163.027 65.0602 -162.162C63.8005 -161.7 62.8732 -160.737 62.4092 -159.583L-86.9131 -189.149C-86.8715 -189.765 -86.9548 -190.399 -87.1798 -191.016C-88.0463 -193.375 -90.6623 -194.585 -93.0201 -193.721C-95.3779 -192.856 -96.5859 -190.242 -95.7195 -187.884Z" fill="#EBEFF6"/>
<path d="M415 1073L328 1127" stroke="#EBEFF6"/>
<path d="M1236 848L1290 567.5" stroke="#EBEFF6"/>
</g>
<defs>
<linearGradient id="paint0_linear_1597_26440" x1="871" y1="1259.5" x2="199.325" y2="-115.654" gradientUnits="userSpaceOnUse">
<stop stop-color="#1B448F"/>
<stop offset="1" stop-color="#497AD2"/>
</linearGradient>
<clipPath id="clip0_1597_26440">
<rect width="1262" height="1117" fill="white"/>
</clipPath>
</defs>
</svg>
