<svg width="150" height="150" viewBox="0 0 150 150" fill="none" xmlns="http://www.w3.org/2000/svg">
<rect width="150" height="150" rx="8" fill="#FAFAFA"/>
<!-- <path d="M39.8513 108.078C41.655 108.078 42.7373 107.035 42.7373 105.055V101.175H41.7915V105.016C41.7915 106.528 41.0895 107.21 39.861 107.21C38.6325 107.21 37.9403 106.528 37.9403 105.016V101.175H36.9653V105.055C36.9653 107.035 38.0573 108.078 39.8513 108.078ZM47.3394 102.784C46.5789 102.784 45.9159 103.076 45.4967 103.651V102.832H44.5997V109.892H45.5357V107.22C45.9647 107.776 46.6082 108.059 47.3394 108.059C48.8507 108.059 49.9524 107.005 49.9524 105.416C49.9524 103.837 48.8507 102.784 47.3394 102.784ZM47.2614 107.239C46.2767 107.239 45.5259 106.518 45.5259 105.416C45.5259 104.324 46.2767 103.603 47.2614 103.603C48.2559 103.603 49.0067 104.324 49.0067 105.416C49.0067 106.518 48.2559 107.239 47.2614 107.239ZM51.2456 108H52.1816V100.765H51.2456V108ZM56.182 108.059C57.7323 108.059 58.8633 106.957 58.8633 105.416C58.8633 103.876 57.7323 102.784 56.182 102.784C54.6318 102.784 53.491 103.876 53.491 105.416C53.491 106.957 54.6318 108.059 56.182 108.059ZM56.182 107.239C55.1875 107.239 54.4368 106.518 54.4368 105.416C54.4368 104.314 55.1875 103.603 56.182 103.603C57.1765 103.603 57.9175 104.314 57.9175 105.416C57.9175 106.518 57.1765 107.239 56.182 107.239ZM61.9919 102.784C61.1632 102.784 60.3929 103.018 59.8567 103.447L60.2467 104.149C60.6464 103.807 61.2704 103.593 61.8847 103.593C62.8109 103.593 63.2692 104.051 63.2692 104.841V105.026H61.7872C60.2467 105.026 59.7104 105.709 59.7104 106.537C59.7104 107.434 60.4514 108.059 61.6214 108.059C62.4307 108.059 63.0059 107.785 63.3179 107.317V108H64.2052V104.88C64.2052 103.466 63.4057 102.784 61.9919 102.784ZM61.7774 107.337C61.0657 107.337 60.6367 107.015 60.6367 106.498C60.6367 106.06 60.8999 105.699 61.8262 105.699H63.2692V106.42C63.0352 107.015 62.4794 107.337 61.7774 107.337ZM69.9049 100.765V103.612C69.4759 103.057 68.8324 102.784 68.1011 102.784C66.5899 102.784 65.4881 103.837 65.4881 105.416C65.4881 106.996 66.5899 108.059 68.1011 108.059C68.8616 108.059 69.5246 107.766 69.9439 107.181V108H70.8409V100.765H69.9049ZM68.1791 107.239C67.1846 107.239 66.4339 106.518 66.4339 105.416C66.4339 104.314 67.1846 103.603 68.1791 103.603C69.1639 103.603 69.9146 104.314 69.9146 105.416C69.9146 106.518 69.1639 107.239 68.1791 107.239ZM80.0955 106.771C79.608 107.083 79.0718 107.21 78.4965 107.21C76.9268 107.21 75.786 106.089 75.786 104.587C75.786 103.066 76.9268 101.965 78.5063 101.965C79.2765 101.965 79.92 102.208 80.4855 102.754L81.09 102.15C80.466 101.458 79.5495 101.097 78.4673 101.097C76.3515 101.097 74.811 102.569 74.811 104.587C74.811 106.606 76.3515 108.078 78.4478 108.078C79.4033 108.078 80.349 107.785 81.0315 107.21V104.548H80.0955V106.771ZM84.6435 102.784C83.8148 102.784 83.0445 103.018 82.5083 103.447L82.8983 104.149C83.298 103.807 83.922 103.593 84.5363 103.593C85.4625 103.593 85.9208 104.051 85.9208 104.841V105.026H84.4388C82.8983 105.026 82.362 105.709 82.362 106.537C82.362 107.434 83.103 108.059 84.273 108.059C85.0823 108.059 85.6575 107.785 85.9695 107.317V108H86.8568V104.88C86.8568 103.466 86.0573 102.784 84.6435 102.784ZM84.429 107.337C83.7173 107.337 83.2883 107.015 83.2883 106.498C83.2883 106.06 83.5515 105.699 84.4778 105.699H85.9208V106.42C85.6868 107.015 85.131 107.337 84.429 107.337ZM95.0532 102.784C94.1757 102.784 93.4542 103.154 93.0642 103.739C92.7229 103.096 92.0599 102.784 91.2702 102.784C90.4902 102.784 89.8564 103.076 89.4859 103.603V102.832H88.5889V108H89.5249V105.338C89.5249 104.217 90.1392 103.622 91.0752 103.622C91.9234 103.622 92.4109 104.119 92.4109 105.134V108H93.3469V105.338C93.3469 104.217 93.9612 103.622 94.8972 103.622C95.7454 103.622 96.2329 104.119 96.2329 105.134V108H97.1689V105.026C97.1689 103.505 96.3109 102.784 95.0532 102.784ZM101.631 102.784C100.9 102.784 100.256 103.057 99.8272 103.612V100.765H98.8912V108H99.7882V107.181C100.207 107.766 100.87 108.059 101.631 108.059C103.142 108.059 104.244 106.996 104.244 105.416C104.244 103.837 103.142 102.784 101.631 102.784ZM101.553 107.239C100.568 107.239 99.8174 106.518 99.8174 105.416C99.8174 104.314 100.568 103.603 101.553 103.603C102.547 103.603 103.298 104.314 103.298 105.416C103.298 106.518 102.547 107.239 101.553 107.239ZM107.371 102.784C106.543 102.784 105.772 103.018 105.236 103.447L105.626 104.149C106.026 103.807 106.65 103.593 107.264 103.593C108.19 103.593 108.649 104.051 108.649 104.841V105.026H107.167C105.626 105.026 105.09 105.709 105.09 106.537C105.09 107.434 105.831 108.059 107.001 108.059C107.81 108.059 108.385 107.785 108.697 107.317V108H109.585V104.88C109.585 103.466 108.785 102.784 107.371 102.784ZM107.157 107.337C106.445 107.337 106.016 107.015 106.016 106.498C106.016 106.06 106.279 105.699 107.206 105.699H108.649V106.42C108.415 107.015 107.859 107.337 107.157 107.337ZM112.214 103.7V102.832H111.317V108H112.253V105.426C112.253 104.295 112.877 103.681 113.881 103.681C113.949 103.681 114.017 103.681 114.095 103.69V102.784C113.189 102.784 112.545 103.096 112.214 103.7Z" fill="#939393"/> -->
<path d="M68.0003 46H82.0003L86.667 50.6667H96.0003C96.6192 50.6667 97.2127 50.9125 97.6502 51.3501C98.0878 51.7877 98.3337 52.3812 98.3337 53V85.6667C98.3337 86.2855 98.0878 86.879 97.6502 87.3166C97.2127 87.7542 96.6192 88 96.0003 88H54.0003C53.3815 88 52.788 87.7542 52.3504 87.3166C51.9128 86.879 51.667 86.2855 51.667 85.6667V53C51.667 52.3812 51.9128 51.7877 52.3504 51.3501C52.788 50.9125 53.3815 50.6667 54.0003 50.6667H63.3337L68.0003 46ZM75.0003 83.3333C78.7134 83.3333 82.2743 81.8583 84.8998 79.2328C87.5253 76.6073 89.0003 73.0464 89.0003 69.3333C89.0003 65.6203 87.5253 62.0593 84.8998 59.4338C82.2743 56.8083 78.7134 55.3333 75.0003 55.3333C71.2873 55.3333 67.7263 56.8083 65.1008 59.4338C62.4753 62.0593 61.0003 65.6203 61.0003 69.3333C61.0003 73.0464 62.4753 76.6073 65.1008 79.2328C67.7263 81.8583 71.2873 83.3333 75.0003 83.3333V83.3333ZM75.0003 78.6667C72.525 78.6667 70.151 77.6833 68.4007 75.933C66.6503 74.1827 65.667 71.8087 65.667 69.3333C65.667 66.858 66.6503 64.484 68.4007 62.7337C70.151 60.9833 72.525 60 75.0003 60C77.4757 60 79.8496 60.9833 81.6 62.7337C83.3503 64.484 84.3337 66.858 84.3337 69.3333C84.3337 71.8087 83.3503 74.1827 81.6 75.933C79.8496 77.6833 77.4757 78.6667 75.0003 78.6667Z" fill="#939393"/>
</svg>
