<svg width="958" height="1200" viewBox="0 0 958 1200" fill="none" xmlns="http://www.w3.org/2000/svg">
<g clip-path="url(#clip0_277_12350)">
<rect width="958" height="1200" fill="#492C9E"/>
<path d="M306 1085.64V1194C306 1216.09 323.909 1234 346 1234H955C977.091 1234 995 1216.09 995 1194V544C995 521.909 977.091 504 955 504H888.628C866.537 504 848.628 521.909 848.628 544V602.239C848.628 624.331 830.719 642.239 808.628 642.239H751.96C729.869 642.239 711.96 660.148 711.96 682.239V734.819C711.96 756.911 694.051 774.819 671.96 774.819H617.718C595.627 774.819 577.718 792.728 577.718 814.819V870.633C577.718 892.725 559.81 910.633 537.718 910.633H483.477C461.385 910.633 443.477 928.542 443.477 950.633V1005.64C443.477 1027.73 425.568 1045.64 403.477 1045.64H346C323.909 1045.64 306 1063.55 306 1085.64Z" fill="#5536AF"/>
<path d="M507 -3.85602V-49C507 -71.0914 489.091 -89 467 -89H-23C-45.0914 -89 -63 -71.0914 -63 -49V356C-63 378.091 -45.0914 396 -23 396H18.0916C40.1829 396 58.0916 378.091 58.0916 356V344.156C58.0916 322.065 76.0001 304.156 98.0915 304.156H131.155C153.246 304.156 171.155 286.248 171.155 264.156V256.072C171.155 233.981 189.064 216.072 211.155 216.072H242.211C264.303 216.072 282.211 198.163 282.211 176.072V165.839C282.211 143.748 300.12 125.839 322.211 125.839H353.268C375.359 125.839 393.268 107.931 393.268 85.8394V76.144C393.268 54.0526 411.176 36.144 433.268 36.144H467C489.091 36.144 507 18.2354 507 -3.85602Z" fill="#5536AF"/>
<path d="M804.794 1045.33H958V1199.52C958 1114.91 889.407 1045.33 804.794 1045.33Z" fill="#F3E4CE"/>
<path d="M804.794 1115.11V1045.33C889.407 1045.33 958 1114.91 958 1199.52H888.226C888.226 1153.44 850.872 1115.11 804.794 1115.11" fill="#FF8152"/>
<path d="M888.226 1199.52H804.794V1115.11C850.872 1115.11 888.226 1153.44 888.226 1199.52Z" fill="#F3E4CE"/>
<path d="M804.398 1115.11V1045.34C719.784 1045.34 651.192 1114.91 651.192 1199.52H720.966C720.966 1153.44 758.32 1115.11 804.398 1115.11" fill="#F3E4CE"/>
<path d="M881.001 892.521H804.119V815.636C804.119 858.098 838.54 892.521 881.001 892.521" fill="#F3E4CE"/>
<path d="M881.001 892.521H957.884V815.636C957.884 858.098 923.462 892.521 881.001 892.521" fill="#FAB814"/>
<path d="M881.001 739.315H957.884V816.197C957.884 773.736 923.462 739.315 881.001 739.315Z" fill="#F3E4CE"/>
<path d="M881.001 739.315H804.119V816.197C804.119 773.736 838.54 739.315 881.001 739.315" fill="#FF8152"/>
<path d="M881.001 774.33C903.935 774.33 922.538 792.775 922.841 815.637H922.87C922.87 815.732 922.857 815.823 922.856 815.917C922.857 816.012 922.87 816.103 922.87 816.198H922.841C922.538 839.061 903.935 857.507 881.001 857.507C858.067 857.507 839.464 839.061 839.161 816.198H839.132C839.132 816.103 839.146 816.012 839.147 815.917C839.146 815.823 839.132 815.732 839.132 815.637H839.161C839.464 792.775 858.067 774.33 881.001 774.33Z" fill="#F3E4CE"/>
<path d="M957.999 584.937C872.9 584.937 803.667 654.168 803.667 739.27H806.921C806.921 655.963 874.696 588.191 957.999 588.191V584.937" fill="white"/>
<path d="M957.999 654.484C911.247 654.484 873.213 692.518 873.213 739.269H876.466C876.466 694.311 913.043 657.736 957.999 657.736V654.484" fill="white"/>
<path d="M957.999 617.599C890.911 617.599 836.331 672.181 836.331 739.269H839.584C839.584 673.974 892.707 620.852 957.999 620.852V617.599" fill="white"/>
<path d="M957.999 689.175C930.377 689.175 907.905 711.648 907.905 739.269H911.158C911.158 713.441 932.173 692.428 957.999 692.428V689.175" fill="white"/>
<path d="M723.645 892.521L652.095 964.071V892.521H723.645Z" fill="#F3E4CE"/>
<path d="M651.888 1045.54L804.908 892.521V968.927L728.502 1045.33L651.888 1045.54" fill="#F3E4CE"/>
<path d="M728.502 1045.34H804.908V968.929L728.502 1045.34Z" fill="#FAB814"/>
<path d="M652.442 1122.72H580.858C538.118 1122.72 503.469 1157.37 503.469 1200.11H652.442V1122.72" fill="#FAB814"/>
<path d="M652.442 1045.33H580.858C538.118 1045.33 503.469 1079.98 503.469 1122.72H652.442V1045.33" fill="#F3E4CE"/>
<path d="M502.611 1046.91C460.469 1046.91 426.305 1081.07 426.305 1123.22C426.305 1165.36 460.469 1199.52 502.611 1199.52" fill="#FF8152"/>
<path d="M426.306 1046.91C384.164 1046.91 350 1081.07 350 1123.22C350 1165.36 384.164 1199.52 426.306 1199.52" fill="#F3E4CE"/>
<path d="M804.398 1081.62C869.212 1081.62 921.754 1134.17 921.754 1198.98" stroke="#FFFDFE" stroke-width="1.9085" stroke-miterlimit="10"/>
<path d="M804.908 1045.54H957.884V892.566H804.908V1045.54Z" fill="#FF8152"/>
<path d="M913 937.451L944.674 969.055H881.396V905.777L913 937.451Z" fill="#F3E4CE"/>
<path d="M849.793 937.451L881.396 905.777V969.055H818.119L849.793 937.451" fill="#FAB814"/>
<path d="M849.793 1000.66L818.119 969.055H881.396V1032.33L849.793 1000.66" fill="#F3E4CE"/>
<path d="M780.215 815.687C751.691 815.687 728.502 840.158 728.502 868.681C728.502 840.158 705.446 815.687 676.921 815.687C676.437 815.687 675.958 815.71 675.477 815.723C675.477 815.69 675.474 815.656 675.474 815.622V815.619C675.474 815.607 675.475 815.597 675.475 815.586C675.935 815.597 676.392 815.62 676.855 815.62C705.379 815.62 728.502 791.117 728.502 762.594C728.502 791.117 751.624 815.62 780.148 815.62C780.611 815.62 781.068 815.597 781.528 815.586C781.528 815.597 781.529 815.609 781.529 815.62C781.529 815.655 781.526 815.687 781.526 815.72C781.089 815.71 780.655 815.687 780.215 815.687" fill="#FAB814"/>
<g opacity="0.05">
<path d="M958 396C739.644 396 562.002 218.36 562.002 0H570.351C570.351 213.754 744.252 387.65 958 387.65V396" fill="white"/>
<path d="M958 217.55C838.04 217.55 740.448 119.96 740.448 0.00195312H748.795C748.795 115.358 842.648 209.205 958 209.205V217.55" fill="white"/>
<path d="M958 312.191C785.859 312.191 645.812 172.141 645.812 0.00195312H654.16C654.16 167.54 790.467 303.846 958 303.846V312.191" fill="white"/>
<path d="M958 128.535C887.124 128.535 829.464 70.874 829.464 0.00195312H837.811C837.811 66.2725 891.732 120.19 958 120.19V128.535" fill="white"/>
</g>
</g>
<defs>
<clipPath id="clip0_277_12350">
<rect width="958" height="1200" fill="white"/>
</clipPath>
</defs>
</svg>
