<svg width="164" height="160" viewBox="0 0 164 160" fill="none" xmlns="http://www.w3.org/2000/svg">
<path d="M76.3726 159.916C118.552 159.916 152.745 155.754 152.745 150.62C152.745 145.486 118.552 141.324 76.3726 141.324C34.1932 141.324 0 145.486 0 150.62C0 155.754 34.1932 159.916 76.3726 159.916Z" fill="#EBEBEB"/>
<path d="M137.56 76.4988H21.6844V151.417H137.56V76.4988Z" fill="#C5C5C5"/>
<path d="M101.044 68.739H137.56V76.4988H98.9443L101.044 68.739Z" fill="#C5C5C5"/>
<g opacity="0.1">
<path opacity="0.1" d="M137.56 76.4988H21.6844V151.417H137.56V76.4988Z" fill="#D9D9D9"/>
<path opacity="0.1" d="M101.044 68.739H137.56V76.4988H98.9443L101.044 68.739Z" fill="#D9D9D9"/>
</g>
<path d="M129.407 39.958H54.0427V136.699H129.407V39.958Z" fill="#EBEBEB"/>
<path d="M129.403 136.699L54.0427 136.832H53.9091V136.699L53.8381 39.9579V39.7534H54.0427L129.403 39.7993H129.562V39.9579L129.403 136.699ZM129.403 136.699L129.249 39.9579L129.403 40.1124L54.0427 40.1625L54.2472 39.9579L54.1721 136.699L54.0427 136.569L129.403 136.699Z" fill="#DBDBDB"/>
<path d="M62.2867 60.6328L91.723 60.5576L121.159 60.6328L91.723 60.7079L62.2867 60.6328Z" fill="#C7C7C7"/>
<path d="M62.2867 63.0329L91.723 62.9578L121.159 63.0329L91.723 63.108L62.2867 63.0329Z" fill="#C7C7C7"/>
<path d="M62.2867 65.4372L91.723 65.3621L121.159 65.4372L91.723 65.5082L62.2867 65.4372Z" fill="#C7C7C7"/>
<path d="M62.2867 67.8373L91.723 67.7622L121.159 67.8373L91.723 67.9125L62.2867 67.8373Z" fill="#C7C7C7"/>
<path d="M62.2867 70.2375L91.723 70.1624L121.159 70.2375L91.723 70.3126L62.2867 70.2375Z" fill="#C7C7C7"/>
<path d="M62.2867 72.6376L91.723 72.5625L121.159 72.6376L91.723 72.7128L62.2867 72.6376Z" fill="#C7C7C7"/>
<path d="M62.2867 75.0378L91.723 74.9626L121.159 75.0378L91.723 75.1129L62.2867 75.0378Z" fill="#C7C7C7"/>
<path d="M62.2867 77.4379L91.723 77.3669L121.159 77.4379L91.723 77.513L62.2867 77.4379Z" fill="#C7C7C7"/>
<path d="M62.2867 79.8422L91.723 79.7671L121.159 79.8422L91.723 79.9132L62.2867 79.8422Z" fill="#C7C7C7"/>
<path d="M62.2867 82.2424L91.723 82.1672L121.159 82.2424L91.723 82.3133L62.2867 82.2424Z" fill="#C7C7C7"/>
<path d="M62.2867 84.6425L91.723 84.5674L121.159 84.6425L91.723 84.7177L62.2867 84.6425Z" fill="#C7C7C7"/>
<path d="M62.2867 87.0427L91.723 86.9675L121.159 87.0427L91.723 87.1178L62.2867 87.0427Z" fill="#C7C7C7"/>
<path d="M62.2867 89.4428L91.723 89.3677L121.159 89.4428L91.723 89.518L62.2867 89.4428Z" fill="#C7C7C7"/>
<path d="M62.2867 91.8429L91.723 91.772L121.159 91.8429L91.723 91.9181L62.2867 91.8429Z" fill="#C7C7C7"/>
<path d="M62.2867 94.2431L91.723 94.1721L121.159 94.2431L91.723 94.3182L62.2867 94.2431Z" fill="#C7C7C7"/>
<path d="M72.9767 86.9675H68.5104V97.044H72.9767V86.9675Z" fill="#FFC727"/>
<path d="M81.2583 81.5955H76.7919V97.0441H81.2583V81.5955Z" fill="#FFC727"/>
<path d="M89.5398 75.5762H85.0735V97.044H89.5398V75.5762Z" fill="#FFC727"/>
<path d="M97.8256 72.9924H93.3593V97.044H97.8256V72.9924Z" fill="#FFC727"/>
<path d="M106.107 68.3882H101.641V97.0439H106.107V68.3882Z" fill="#FFC727"/>
<path d="M114.389 63.8384H109.922V97.044H114.389V63.8384Z" fill="#FFC727"/>
<path d="M63.8812 58.9504L63.9981 68.4717L64.0774 77.9972C64.1317 84.3461 64.1484 90.6951 64.1609 97.044L63.8812 96.7685H78.2028L92.5202 96.8019L106.842 96.8937L121.159 97.0565L106.842 97.2193L92.5202 97.3111L78.2028 97.3445H63.8812H63.6057V97.069C63.6057 90.7201 63.6308 84.3712 63.685 78.0223L63.7685 68.4968L63.8812 58.9504Z" fill="#C7C7C7"/>
<path d="M72.9767 99.0559H68.5104V99.4608H72.9767V99.0559Z" fill="#C7C7C7"/>
<path d="M81.2583 99.0559H76.7919V99.4608H81.2583V99.0559Z" fill="#C7C7C7"/>
<path d="M89.5398 99.0559H85.0735V99.4608H89.5398V99.0559Z" fill="#C7C7C7"/>
<path d="M97.8256 99.0559H93.3593V99.4608H97.8256V99.0559Z" fill="#C7C7C7"/>
<path d="M106.107 99.0559H101.641V99.4608H106.107V99.0559Z" fill="#C7C7C7"/>
<path d="M114.389 99.0559H109.922V99.4608H114.389V99.0559Z" fill="#C7C7C7"/>
<path d="M69.0154 88.2406C71.1968 88.2068 73.3742 88.041 75.5355 87.7439C77.6951 87.4678 79.8392 87.0819 81.9596 86.5876C86.2038 85.6326 90.3213 84.1826 94.2275 82.2673C98.1427 80.3808 101.754 77.9201 104.943 74.9667L105.548 74.4199L106.12 73.8397L107.259 72.6751C107.96 71.8402 108.716 71.0638 109.346 70.1706C110.697 68.4541 111.919 66.6404 113.003 64.7441H113.04C111.068 68.6729 108.444 72.2393 105.281 75.2923C103.703 76.8273 101.997 78.2238 100.18 79.4665C98.3732 80.7215 96.4741 81.8378 94.4988 82.8058C86.5525 86.6118 77.8145 88.4719 69.0071 88.2322L69.0154 88.2406Z" fill="#263238"/>
<path d="M114.276 67.8749L113.658 68.0293L112.899 64.9822L109.914 65.9631L109.718 65.3579L113.349 64.1641L114.276 67.8749Z" fill="#263238"/>
<path d="M61.0261 114.509L122.42 114.509V112.025L61.0261 112.025V114.509Z" fill="#DBDBDB"/>
<path d="M61.0302 120.778H95.5924V118.295H61.0302V120.778Z" fill="#DBDBDB"/>
<path d="M74.4419 53.1316L109.004 53.1316V50.648L74.4419 50.648V53.1316Z" fill="#DBDBDB"/>
<path d="M115.073 131.523L39.7086 131.485L39.7586 34.7444L95.7135 34.7736L115.111 53.2151L115.073 131.523Z" fill="#799BAB"/>
<path opacity="0.6" d="M115.073 131.523L39.7086 131.485L39.7586 34.7444L95.7135 34.7736L115.111 53.2151L115.073 131.523Z" fill="white"/>
<path d="M95.7135 34.7737L115.111 53.2152L95.7051 53.2069L95.7135 34.7737Z" fill="#648595"/>
<path opacity="0.4" d="M95.7135 34.7737L115.111 53.2152L95.7051 53.2069L95.7135 34.7737Z" fill="white"/>
<path d="M47.0593 53.5742H88.9597V51.0906H47.0593V53.5742Z" fill="white"/>
<path d="M47.1029 59.7307L89.0033 59.7527L89.0046 57.2691L47.1042 57.2471L47.1029 59.7307Z" fill="white"/>
<path d="M47.0936 66.0005L88.994 66.0225L88.9953 63.5388L47.0949 63.5169L47.0936 66.0005Z" fill="white"/>
<path d="M47.0886 72.2681L108.482 72.3003L108.484 69.8167L47.0899 69.7845L47.0886 72.2681Z" fill="white"/>
<path d="M47.0877 78.5421L108.482 78.5742L108.483 76.0906L47.089 76.0584L47.0877 78.5421Z" fill="white"/>
<path d="M47.0868 84.8116L108.481 84.8438L108.482 82.3601L47.0881 82.328L47.0868 84.8116Z" fill="white"/>
<path d="M47.0817 91.0811L108.476 91.1133L108.477 88.6296L47.083 88.5975L47.0817 91.0811Z" fill="white"/>
<path d="M47.0767 97.3509L108.47 97.3831L108.472 94.8994L47.078 94.8673L47.0767 97.3509Z" fill="white"/>
<path d="M47.0758 103.625L108.47 103.657L108.471 101.173L47.0771 101.141L47.0758 103.625Z" fill="white"/>
<path d="M47.0749 109.894L108.469 109.927L108.47 107.443L47.0762 107.411L47.0749 109.894Z" fill="white"/>
<path d="M47.0698 116.16L108.464 116.192L108.465 113.708L47.0711 113.676L47.0698 116.16Z" fill="white"/>
<path d="M47.0648 122.429L108.459 122.461L108.46 119.978L47.0661 119.946L47.0648 122.429Z" fill="white"/>
<path d="M21.9557 151.417H137.831L145.804 82.7141H29.9284L21.9557 151.417Z" fill="#DBDBDB"/>
<path d="M110.11 75.5972H146.63L145.804 82.7141H107.188L110.11 75.5972Z" fill="#DBDBDB"/>
<path d="M129.462 54.5301C128.127 53.3466 127.201 51.7717 126.815 50.0303C126.367 47.9078 126.74 45.6943 127.859 43.8358C128.401 42.9082 129.128 42.102 129.994 41.4672C130.861 40.8324 131.849 40.3826 132.897 40.1459L144.318 37.6414L144.639 39.119L133.223 41.6235C132.376 41.816 131.578 42.1806 130.879 42.6948C130.179 43.209 129.593 43.8617 129.157 44.6122C128.241 46.1415 127.934 47.9595 128.297 49.7047C129.09 53.3237 132.684 55.7448 136.145 54.9892L157.767 50.2557C159.115 49.9607 160.29 49.1423 161.035 47.9806C161.779 46.8189 162.032 45.4091 161.736 44.0612C161.441 42.7134 160.623 41.538 159.461 40.7935C158.3 40.049 156.89 39.7966 155.542 40.0916L134.629 44.6832C133.604 44.8893 132.692 45.4696 132.071 46.3111C131.783 46.7157 131.585 47.1772 131.49 47.6645C131.395 48.1519 131.405 48.6539 131.52 49.137C131.979 51.2241 133.945 52.3762 136.203 51.8836L154.185 47.9474L154.511 49.4292L136.529 53.3613C133.461 54.0333 130.685 52.3553 130.038 49.4585C129.391 46.5616 131.24 43.8734 134.304 43.1972L155.221 38.6056C156.946 38.2636 158.738 38.612 160.209 39.576C161.681 40.5401 162.716 42.0428 163.092 43.7616C163.468 45.4804 163.155 47.2781 162.22 48.7686C161.286 50.2591 159.803 51.3236 158.092 51.7334L136.47 56.4669C135.232 56.7188 133.952 56.6746 132.734 56.338C131.516 56.0015 130.395 55.382 129.462 54.5301Z" fill="#648595"/>
<path d="M121.719 35.4457C120.294 36.5189 118.568 37.115 116.785 37.1488C114.614 37.1684 112.517 36.3644 110.916 34.8989C110.113 34.1847 109.467 33.3127 109.016 32.3374C108.566 31.3621 108.322 30.3044 108.299 29.2304L108.107 17.5427L109.622 17.5177L109.814 29.2054C109.834 30.0725 110.033 30.9261 110.399 31.7127C110.764 32.4992 111.289 33.2017 111.939 33.7761C113.253 34.9826 114.976 35.645 116.76 35.6294C120.466 35.5668 123.551 32.5238 123.493 28.9799L123.129 6.85681C123.107 5.47741 122.538 4.16331 121.547 3.20358C120.556 2.24386 119.224 1.71713 117.845 1.73927C116.466 1.76141 115.151 2.33061 114.192 3.32164C113.232 4.31268 112.705 5.64438 112.727 7.02377L113.074 28.4331C113.073 29.4778 113.461 30.4854 114.163 31.259C114.503 31.6212 114.915 31.9065 115.374 32.0958C115.833 32.2852 116.326 32.3742 116.822 32.3569C118.959 32.3235 120.479 30.6204 120.441 28.3121L120.141 9.90396L121.66 9.87891L121.957 28.287C122.011 31.4218 119.811 33.8262 116.847 33.8721C113.884 33.918 111.613 31.593 111.559 28.4457L111.212 7.04047C111.181 6.14775 111.328 5.25773 111.644 4.42245C111.961 3.58717 112.441 2.82338 113.056 2.17576C113.671 1.52813 114.41 1.00965 115.228 0.650642C116.045 0.29163 116.927 0.0992893 117.82 0.0848611C118.713 0.070433 119.6 0.234207 120.429 0.566612C121.258 0.899016 122.013 1.39338 122.649 2.0208C123.285 2.64821 123.789 3.39609 124.132 4.22071C124.476 5.04533 124.651 5.93015 124.649 6.82342L125.008 28.9466C125.012 30.2127 124.716 31.4617 124.144 32.5914C123.573 33.7211 122.741 34.6993 121.719 35.4457V35.4457Z" fill="#648595"/>
</svg>
