<svg width="512" height="512" viewBox="0 0 512 512" fill="none" xmlns="http://www.w3.org/2000/svg">
<rect width="512" height="512" fill="var(--primary-light)"/>
<path d="M16 112C16 58.9806 58.9806 16 112 16H400C453.019 16 496 58.9806 496 112V400C496 453.019 453.019 496 400 496H112C58.9806 496 16 453.019 16 400V112Z" fill="var(--primary-light)"/>
<path fill-rule="evenodd" clip-rule="evenodd" d="M255.998 112C216.744 112 184.922 143.822 184.922 183.077C184.922 222.331 216.744 254.154 255.998 254.154C295.253 254.154 327.075 222.331 327.075 183.077C327.075 143.822 295.253 112 255.998 112V112Z" fill="var(--primary)"/>
<path fill-rule="evenodd" clip-rule="evenodd" d="M372.45 299.45C299.638 260.757 212.362 260.757 139.55 299.45C132.443 303.226 128.001 310.618 128.001 318.666V366.872C128.001 379.56 138.287 389.846 150.975 389.846H361.026C373.714 389.846 384.001 379.56 384.001 366.872V318.666C384.001 310.618 379.559 303.226 372.45 299.45H372.45Z" fill="#0EAEC2"/>
</svg>
