<svg width="386" height="150" viewBox="0 0 386 150" fill="none" xmlns="http://www.w3.org/2000/svg">
<path fill-rule="evenodd" clip-rule="evenodd" d="M70.5044 149.811C89.0465 149.016 98.7289 129.094 112.796 117.012C129.023 103.074 155.62 96.0539 157.833 74.8009C160.085 53.1657 139.142 36.9673 122.604 22.8017C107.644 9.9886 90.2163 -0.169471 70.5044 0.00210296C50.9487 0.172317 32.6971 9.47569 19.306 23.7008C6.33027 37.4845 -0.903323 55.9136 0.0906101 74.8009C1.03781 92.8001 12.0688 107.648 24.4158 120.801C37.3253 134.553 51.6404 150.62 70.5044 149.811Z" fill="#E5E9F0"/>
<path fill-rule="evenodd" clip-rule="evenodd" d="M135.333 12.1163L133.492 37.5118C133.262 40.6779 130.505 43.0593 127.333 42.8296L123.268 42.5365L118.001 115.186C117.984 115.431 117.952 115.673 117.908 115.909C117.313 119.107 114.392 121.414 111.067 121.173L39.191 115.983C35.62 115.726 32.9341 112.626 33.1939 109.062L40.664 6.00452C40.9219 2.44034 44.0272 -0.24034 47.5983 0.0170939L124.269 5.55305L125.941 5.67397L130.006 5.96685C133.178 6.19653 135.564 8.9481 135.333 12.1163Z" fill="#ADB9D2"/>
<path fill-rule="evenodd" clip-rule="evenodd" d="M40.7439 5.49996L39.6722 5.47365L39.6733 5.42651L40.7516 5.45282C40.749 5.46839 40.7464 5.48438 40.7439 5.49996Z" fill="#71B2CF"/>
<path fill-rule="evenodd" clip-rule="evenodd" d="M116.246 115.449L115.745 115.437L116.186 115.383L114.632 102.722L116.971 7.37044L102.881 7.02467L102.875 6.97713L118.898 7.37044L116.246 115.449ZM97.0615 6.88183L40.7438 5.49978C40.7462 5.4842 40.7488 5.46822 40.7515 5.45264L97.3826 6.84238L97.0615 6.88183Z" fill="#8D9CB9"/>
<path fill-rule="evenodd" clip-rule="evenodd" d="M35.0942 113.506L37.7465 5.42651L116.971 7.37062L114.319 115.45L35.0942 113.506Z" fill="white"/>
<path fill-rule="evenodd" clip-rule="evenodd" d="M34.6432 120.845L28.6697 12.8982L107.797 8.51953L113.771 116.466L34.6432 120.845Z" fill="#F1F2F2"/>
<path fill-rule="evenodd" clip-rule="evenodd" d="M116.186 115.383L34.9194 125.362L21.511 16.1585L102.778 6.18018L116.186 115.383Z" fill="white"/>
<path fill-rule="evenodd" clip-rule="evenodd" d="M92.4671 19.2196L34.6695 26.3162L33.9667 20.5917L91.7642 13.4951L92.4671 19.2196Z" fill="#EEF3F8"/>
<path fill-rule="evenodd" clip-rule="evenodd" d="M97.6923 36.0205L57.4267 40.9646L57.0874 38.2019L97.3532 33.2578L97.6923 36.0205Z" fill="#F0F0F0"/>
<path fill-rule="evenodd" clip-rule="evenodd" d="M88.3644 42.7534L58.1024 46.4693L57.7631 43.7064L88.0251 39.9907L88.3644 42.7534Z" fill="#F0F0F0"/>
<path fill-rule="evenodd" clip-rule="evenodd" d="M87.0105 31.7234L56.7485 35.439L56.4092 32.6763L86.6712 28.9607L87.0105 31.7234Z" fill="#EEF3F8"/>
<path fill-rule="evenodd" clip-rule="evenodd" d="M44.8535 36.1447C44.1246 36.6166 40.8247 41.4502 38.9988 43.7514L37.2121 42.3607C36.9992 42.1604 36.5181 41.515 36.196 42.0129L35.7173 42.928C35.3932 43.4261 35.8858 44.118 36.2122 44.3135L39.1331 46.9499C39.4603 47.1448 39.9861 46.8997 40.3092 46.4012L40.5837 45.977L40.5848 45.9764L45.4983 36.7404C45.821 36.2404 46.5824 35.1176 44.8535 36.1447Z" fill="#AEC3DB"/>
<path fill-rule="evenodd" clip-rule="evenodd" d="M34.7992 35.9028C34.3098 35.9629 33.9606 36.41 34.0207 36.8992L35.3576 47.788C35.4177 48.2772 35.8647 48.6264 36.3541 48.5663L47.2428 47.2294C47.732 47.1693 48.0812 46.7223 48.0211 46.2329L46.6842 35.3444C46.6241 34.855 46.1772 34.5058 45.6878 34.5659L34.7992 35.9028ZM47.3897 48.4257L36.501 49.7626C35.352 49.9036 34.3025 49.0836 34.1613 47.9349L32.8244 37.0461C32.6834 35.8971 33.5034 34.8477 34.6523 34.7065L45.5409 33.3695C46.6899 33.2285 47.7395 34.0485 47.8805 35.1975L49.2175 46.086C49.3585 47.235 48.5385 48.2845 47.3897 48.4257Z" fill="#DAE3E8"/>
<path fill-rule="evenodd" clip-rule="evenodd" d="M100.342 57.6021L60.0768 62.546L59.7375 59.7833L100.003 54.8394L100.342 57.6021Z" fill="#F0F0F0"/>
<path fill-rule="evenodd" clip-rule="evenodd" d="M91.0138 64.3352L60.7518 68.0508L60.4125 65.2881L90.6745 61.5725L91.0138 64.3352Z" fill="#F0F0F0"/>
<path fill-rule="evenodd" clip-rule="evenodd" d="M89.6606 53.3049L59.3984 57.0206L59.0593 54.2579L89.3213 50.5422L89.6606 53.3049Z" fill="#EEF3F8"/>
<path fill-rule="evenodd" clip-rule="evenodd" d="M48.9209 55.7229C47.9225 56.3691 43.4032 62.989 40.9025 66.1404L38.4555 64.2358C38.1641 63.9616 37.5051 63.0775 37.0639 63.7595L36.4084 65.0127C35.9647 65.6949 36.6392 66.6426 37.0861 66.9102L41.0864 70.5209C41.5346 70.7877 42.2546 70.4523 42.6971 69.7694L43.0732 69.1884L43.0744 69.1876L49.8039 56.5386C50.2459 55.854 51.2887 54.3161 48.9209 55.7229Z" fill="#AEC3DB"/>
<path fill-rule="evenodd" clip-rule="evenodd" d="M35.1506 55.3914C34.4805 55.4738 34.0022 56.086 34.0846 56.7561L35.9156 71.6686C35.9979 72.3387 36.61 72.817 37.2801 72.7346L52.1925 70.9036C52.8628 70.8213 53.3409 70.2092 53.2588 69.5391L51.4278 54.6266C51.3454 53.9564 50.7334 53.4781 50.0631 53.5604L35.1506 55.3914ZM52.3939 72.542L37.4814 74.373C35.9077 74.5662 34.4704 73.4431 34.2772 71.8697L32.4462 56.9574C32.253 55.3837 33.3759 53.9462 34.9495 53.753L49.862 51.922C51.4355 51.7288 52.873 52.8519 53.0662 54.4255L54.8972 69.3378C55.0904 70.9113 53.9673 72.3488 52.3939 72.542Z" fill="#DAE3E8"/>
<path fill-rule="evenodd" clip-rule="evenodd" d="M88.1325 81.0083L87.6399 78.2644H87.6403L87.6759 78.4617L87.6757 78.4631L88.1327 81.0083H88.1325Z" fill="#E7EDF0"/>
<path fill-rule="evenodd" clip-rule="evenodd" d="M88.7183 84.2702L88.6216 83.7314H88.6218L88.7185 84.269L88.7183 84.2702Z" fill="#E7EDF0"/>
<path fill-rule="evenodd" clip-rule="evenodd" d="M91.1006 84.6358L91.1132 84.6084L91.1145 84.6086L91.1006 84.6358Z" fill="#BFC4C7"/>
<path fill-rule="evenodd" clip-rule="evenodd" d="M88.7404 84.3815C88.7398 84.3815 88.739 84.3815 88.7384 84.3815L88.72 84.2761L88.7404 84.3813V84.3815Z" fill="#E3EAEE"/>
<path fill-rule="evenodd" clip-rule="evenodd" d="M64.6779 89.4761L63.2087 88.052L63.2042 88.0164L64.7065 89.4725L64.6779 89.4761Z" fill="#A9B0B4"/>
<path fill-rule="evenodd" clip-rule="evenodd" d="M61.6639 62.3511C61.5957 61.4261 61.4516 60.5054 61.2323 59.5998L61.938 59.5132C62.2196 60.4072 62.4252 61.3199 62.5551 62.2417L61.6639 62.3511Z" fill="#A9B0B4"/>
<path fill-rule="evenodd" clip-rule="evenodd" d="M61.1322 68.0041C61.3847 67.0619 61.5544 66.1027 61.6414 65.1372L62.7172 65.0051C62.6955 65.9573 62.5942 66.9084 62.4127 67.8469L61.1322 68.0041Z" fill="#A9B0B4"/>
<path fill-rule="evenodd" clip-rule="evenodd" d="M60.3344 56.9058C59.9874 56.0987 59.5742 55.3123 59.0959 54.5564L59.0593 54.258L59.1775 54.2434C59.8178 55.0685 60.3718 55.9395 60.8387 56.8438L60.3344 56.9058Z" fill="#6CA19D"/>
<path fill-rule="evenodd" clip-rule="evenodd" d="M82.6586 100.283C84.4773 98.4065 84.5461 95.5224 82.8126 93.8419L67.093 78.6059C65.3593 76.9248 62.4791 77.0839 60.66 78.9608C58.8407 80.8371 58.7721 83.7212 60.506 85.4019L76.225 100.638C77.9593 102.318 80.8393 102.16 82.6586 100.283Z" fill="#AEC3DB"/>
<path fill-rule="evenodd" clip-rule="evenodd" d="M61.2237 86.0974L60.5061 85.4016C59.6667 84.5885 59.2493 83.4909 59.2493 82.3637C59.2493 81.7835 59.3599 81.1947 59.5807 80.6321C58.9328 82.2877 59.2345 84.1687 60.5067 85.4018L61.2219 86.095C61.2225 86.0958 61.2231 86.0966 61.2237 86.0974Z" fill="#EDEDED"/>
<path fill-rule="evenodd" clip-rule="evenodd" d="M64.7065 89.4723L63.2042 88.0162V88.0156L64.7071 89.4723H64.7065Z" fill="#9DA4A7"/>
<path fill-rule="evenodd" clip-rule="evenodd" d="M79.1587 101.802C78.5479 101.802 77.9456 101.678 77.3918 101.43L77.3929 101.429C77.9464 101.678 78.5485 101.801 79.1589 101.801C79.8349 101.801 80.5207 101.65 81.1629 101.352C80.5209 101.651 79.8347 101.802 79.1587 101.802Z" fill="#9DA4A7"/>
<path fill-rule="evenodd" clip-rule="evenodd" d="M74.5125 98.9789L71.9448 96.4897H71.9458L74.5137 98.9787L74.5125 98.9789Z" fill="#649692"/>
<path fill-rule="evenodd" clip-rule="evenodd" d="M59.5808 80.632C59.6417 80.4764 59.7111 80.3228 59.7888 80.1721C59.7111 80.3228 59.6419 80.4764 59.5808 80.632Z" fill="#B8B8B8"/>
<path fill-rule="evenodd" clip-rule="evenodd" d="M79.158 101.801C78.5476 101.801 77.9455 101.678 77.3919 101.43C76.9687 101.24 76.5733 100.976 76.2249 100.638L60.506 85.4019C59.2338 84.1687 58.9321 82.2877 59.5799 80.6322C59.641 80.4766 59.7102 80.323 59.7879 80.1723C60.0103 79.7407 60.301 79.3314 60.6599 78.9612L82.6581 100.283C82.2124 100.743 81.7028 101.1 81.162 101.352C80.5198 101.651 79.8339 101.801 79.158 101.801Z" fill="#9AB2CE"/>
<path fill-rule="evenodd" clip-rule="evenodd" d="M61.9523 77.9933C61.4883 78.2363 61.0501 78.5588 60.6614 78.9612C60.1836 79.4541 59.8257 80.0177 59.5908 80.6113L54.5576 75.732C55.0424 75.3303 55.5087 74.8992 55.9585 74.4413C56.3399 74.0521 56.702 73.6489 57.0421 73.2351L61.9523 77.9933Z" fill="#2C4761"/>
<path fill-rule="evenodd" clip-rule="evenodd" d="M34.7449 53.7831C40.1689 48.2455 49.0529 48.1549 54.5896 53.5779C60.1263 58.9997 60.217 67.8855 54.7946 73.4222C49.3717 78.9597 40.4868 79.05 34.9497 73.6273C29.4129 68.2053 29.3219 59.3214 34.7449 53.7831ZM32.9167 75.7042C39.5986 82.2509 50.3267 82.1406 56.8736 75.4571C63.4183 68.7743 63.3078 58.0484 56.6227 51.5019C49.9411 44.955 39.2144 45.0653 32.6677 51.7493C26.1224 58.4322 26.2351 69.1577 32.9167 75.7042Z" fill="#32526F"/>
<path fill-rule="evenodd" clip-rule="evenodd" d="M31.0625 62.8021C30.6524 70.4158 36.5106 76.9439 44.1241 77.354C51.7393 77.7639 58.267 71.9037 58.6771 64.2893C59.0874 56.677 53.2266 50.1483 45.6118 49.7384C37.9984 49.3281 31.4724 55.1893 31.0625 62.8021ZM30.3823 62.7654C30.812 54.7778 37.6622 48.6303 45.6482 49.0606C53.6359 49.4903 59.7832 56.3385 59.3526 64.3259C58.9223 72.3136 52.0753 78.4615 44.0881 78.031C36.1021 77.6006 29.9517 70.7531 30.3823 62.7654Z" fill="#414042"/>
<path fill-rule="evenodd" clip-rule="evenodd" d="M44.1447 77.3551C44.1378 77.3547 44.1305 77.3543 44.1236 77.3538C41.038 77.1875 38.2411 76.0167 36.0326 74.1758C36.3731 74.3174 36.7442 74.3947 37.1288 74.3947C37.2453 74.3947 37.3629 74.3876 37.4814 74.373L52.3939 72.542C53.9674 72.3488 55.0905 70.9113 54.8973 69.3379L53.1488 55.0985L54.5574 53.6901C54.0584 53.1991 53.5227 52.7449 52.9536 52.3332L52.3887 52.8981C51.8549 52.2814 51.0681 51.9004 50.2145 51.9004C50.0982 51.9004 49.9804 51.9075 49.8621 51.9221L48.2308 52.1224L49.7464 50.6066C48.529 50.1467 47.2279 49.8525 45.8681 49.7544C53.1055 50.2774 58.6958 56.3351 58.6968 63.5347C58.6968 63.7848 58.6902 64.0365 58.6766 64.2892C58.4051 69.3298 55.454 73.6012 51.2799 75.7944C51.2789 75.795 51.2775 75.7956 51.2765 75.7962C51.2652 75.802 51.2536 75.8081 51.2425 75.814C50.5018 76.2002 49.7239 76.5209 48.9152 76.7691L44.1447 77.3551ZM37.13 72.744C36.6978 72.7438 36.3057 72.5145 36.0874 72.1599L39.3201 68.9272L41.086 70.5209C41.1904 70.5832 41.3096 70.6125 41.4366 70.6125C41.8546 70.6125 42.3574 70.2932 42.6967 69.7694L43.0728 69.1884L43.074 69.1876L47.6374 60.6099L51.6676 56.5797L53.2589 69.5392C53.341 70.2093 52.8629 70.8213 52.1926 70.9036L37.2801 72.7347C37.2297 72.7409 37.1796 72.744 37.13 72.744ZM34.5047 72.6901C32.6049 70.5366 31.3691 67.7956 31.098 64.8024C31.0608 64.3915 31.0417 63.976 31.0417 63.5566C31.0417 63.3063 31.0484 63.0546 31.062 62.8019C31.167 60.8513 31.6736 59.0156 32.497 57.371L33.018 61.6145L31.0426 63.5899C31.0468 65.2838 31.3604 66.9135 31.9316 68.4228L33.6438 66.7105L34.1832 71.1035L33.6578 71.6288C33.9228 71.9956 34.205 72.3492 34.5039 72.6883C34.5041 72.6889 34.5045 72.6895 34.5047 72.6901ZM35.6644 69.6221L35.125 65.2291L46.335 54.0183L50.0632 53.5605C50.1136 53.5542 50.1637 53.5514 50.2133 53.5514C50.6194 53.5514 50.9898 53.7537 51.2144 54.0723L50.1275 55.159C49.9001 55.1995 49.5193 55.367 48.9205 55.7229C48.4762 56.0104 47.3343 57.4812 45.9834 59.3031L39.9148 65.372L38.455 64.2357C38.2416 64.035 37.8308 63.5068 37.4529 63.5068C37.3149 63.5068 37.1814 63.577 37.0634 63.7595L36.4079 65.0127C35.9642 65.6949 36.6388 66.6426 37.0857 66.9102L37.7641 67.5225L35.6644 69.6221ZM34.4992 60.1331L34.0847 56.7561C34.0023 56.086 34.4806 55.4738 35.1507 55.3915L39.8134 54.8189L34.4992 60.1331ZM35.1384 53.73C37.6498 51.2423 41.0979 49.7178 44.8591 49.7178C45.1083 49.7178 45.3594 49.7247 45.6113 49.7382C45.3778 49.7257 45.1456 49.719 44.9143 49.7182L41.7093 52.9232L35.1384 53.73ZM45.8456 49.7528C45.8377 49.7522 45.8296 49.7516 45.8215 49.751C45.8294 49.7516 45.8377 49.7522 45.8456 49.7528Z" fill="#E4F2F3"/>
<path fill-rule="evenodd" clip-rule="evenodd" d="M41.4371 70.6124C41.31 70.6124 41.1908 70.5831 41.0864 70.5208L39.3206 68.9271L47.6378 60.6099L43.0744 69.1875L43.0732 69.1883L42.6971 69.7694C42.3578 70.2932 41.8551 70.6124 41.4371 70.6124ZM37.7645 67.5224L37.0861 66.9102C36.6392 66.6425 35.9647 65.6948 36.4084 65.0126L37.0639 63.7594C37.1818 63.5769 37.3154 63.5067 37.4534 63.5067C37.8313 63.5067 38.242 64.035 38.4555 64.2357L39.9152 65.3719L37.7645 67.5224ZM45.9838 59.3031C47.3347 57.4812 48.4766 56.0103 48.9209 55.7228C49.5198 55.3669 49.9006 55.1994 50.128 55.1589L45.9838 59.3031Z" fill="#AEC3DB"/>
<path fill-rule="evenodd" clip-rule="evenodd" d="M37.1292 74.3947C36.7446 74.3947 36.3735 74.3174 36.033 74.1758C35.4861 73.7199 34.9751 73.2228 34.5051 72.6901C34.5049 72.6895 34.5043 72.6889 34.5043 72.6883C34.6687 72.875 34.8383 73.0573 35.0127 73.235L36.0878 72.1598C36.3061 72.5145 36.6982 72.7437 37.1304 72.7439C37.18 72.7439 37.2301 72.7409 37.2805 72.7346L52.193 70.9036C52.8633 70.8213 53.3414 70.2093 53.2592 69.5392L51.668 56.5797L53.1492 55.0985L54.8976 69.3379C55.0909 70.9113 53.9678 72.3488 52.3943 72.542L37.4818 74.373C37.3633 74.3876 37.2457 74.3947 37.1292 74.3947ZM34.1836 71.1035L33.6442 66.7105L35.1254 65.2291L35.6648 69.6221L34.1836 71.1035ZM33.0184 61.6144L32.4974 57.371C33.1774 56.0128 34.0739 54.7847 35.1387 53.73L41.7097 52.9231L39.8138 54.8189L35.1511 55.3914C34.481 55.4738 34.0027 56.086 34.0851 56.7561L34.4996 60.133L33.0184 61.6144ZM51.2148 54.0723C50.9902 53.7537 50.6198 53.5513 50.2137 53.5513C50.1641 53.5513 50.114 53.5542 50.0636 53.5604L46.3354 54.0183L48.2312 52.1223L49.8625 51.922C49.9808 51.9075 50.0986 51.9004 50.2149 51.9004C51.0685 51.9004 51.8553 52.2814 52.3891 52.898L51.2148 54.0723Z" fill="#C3D7DD"/>
<path fill-rule="evenodd" clip-rule="evenodd" d="M44.8751 77.3742C44.6331 77.3742 44.3887 77.368 44.1443 77.3552L48.9148 76.7693C47.6331 77.1628 46.2755 77.3744 44.8751 77.3742Z" fill="#C3D7DD"/>
<path fill-rule="evenodd" clip-rule="evenodd" d="M51.2425 75.814C51.2536 75.8081 51.2652 75.802 51.2765 75.7961C51.2652 75.802 51.2536 75.8081 51.2425 75.814ZM51.2799 75.7943C55.454 73.6012 58.4051 69.3298 58.6766 64.2891C58.6902 64.0364 58.6968 63.7847 58.6968 63.5347C58.6968 63.7847 58.6902 64.0364 58.6766 64.2891C58.4051 69.3298 55.454 73.6012 51.2799 75.7943ZM31.098 64.8024C31.0608 64.3915 31.0417 63.9759 31.0417 63.5565C31.0417 63.9759 31.0608 64.3915 31.098 64.8024Z" fill="#3A3D3F"/>
<path fill-rule="evenodd" clip-rule="evenodd" d="M45.6991 49.7431C45.6926 49.7427 45.6862 49.7423 45.6797 49.7419C45.6862 49.7423 45.6926 49.7427 45.6991 49.7431Z" fill="#949394"/>
<path fill-rule="evenodd" clip-rule="evenodd" d="M31.9325 68.4229C31.3613 66.9135 31.0477 65.2839 31.0435 63.59L33.0189 61.6146L33.6447 66.7106L31.9325 68.4229ZM35.1259 65.2292L34.5001 60.1332L39.8143 54.819L46.3359 54.0184L35.1259 65.2292ZM41.7102 52.9232L44.9152 49.7183C45.1465 49.7191 45.3787 49.7257 45.6122 49.7383C45.6193 49.7385 45.6256 49.7389 45.6324 49.7393C45.6345 49.7395 45.6363 49.7395 45.6381 49.7397C45.6434 49.7399 45.6486 49.7403 45.6539 49.7405C45.6555 49.7405 45.6571 49.7407 45.6589 49.7407C45.6654 49.7411 45.6711 49.7415 45.6776 49.7419C45.6782 49.7419 45.6788 49.7419 45.6796 49.7419C45.6865 49.7423 45.6931 49.7427 45.7 49.7431C45.7014 49.7433 45.7031 49.7433 45.7045 49.7436C45.7101 49.7438 45.7148 49.7442 45.7205 49.7444C45.7225 49.7446 45.7245 49.7448 45.7265 49.7448C45.7318 49.7452 45.737 49.7456 45.7421 49.7458C45.7437 49.746 45.7455 49.746 45.7472 49.7462C45.7536 49.7466 45.7599 49.747 45.7664 49.7474C45.7688 49.7476 45.7712 49.7476 45.7737 49.7478C45.7779 49.7482 45.7822 49.7484 45.7862 49.7486C45.7892 49.7488 45.7921 49.749 45.7949 49.7492C45.7985 49.7494 45.802 49.7498 45.8058 49.75C45.8091 49.7502 45.8123 49.7504 45.8155 49.7506C45.818 49.7508 45.8202 49.751 45.8224 49.751C45.8305 49.7516 45.8386 49.7522 45.8465 49.7529C45.8483 49.7529 45.8493 49.7531 45.8512 49.7531C45.8558 49.7535 45.8605 49.7539 45.8653 49.7541C45.8667 49.7543 45.8675 49.7543 45.869 49.7545C47.2288 49.8526 48.5299 50.1468 49.7473 50.6067L48.2317 52.1224L41.7102 52.9232Z" fill="#F0F8F8"/>
<path fill-rule="evenodd" clip-rule="evenodd" d="M33.6446 66.7105L33.0188 61.6144L34.5 60.133L35.1258 65.2291L33.6446 66.7105ZM39.8142 54.8189L41.7101 52.9231L48.2315 52.1223L46.3358 54.0183L39.8142 54.8189Z" fill="#DDE8EC"/>
<path fill-rule="evenodd" clip-rule="evenodd" d="M34.5033 72.6884C34.2045 72.3493 33.9223 71.9956 33.6572 71.6288L34.1827 71.1036L34.2767 71.8698C34.3123 72.1599 34.3902 72.4345 34.5033 72.6884ZM36.0869 72.1599C35.9975 72.0149 35.9372 71.8486 35.9151 71.6687L35.6638 69.6222L37.7635 67.5225L39.3196 68.9272L36.0869 72.1599ZM40.9015 66.1405L39.9142 65.3721L45.9828 59.3032C44.2985 61.5747 42.2893 64.3916 40.9015 66.1405ZM47.6368 60.61L49.8029 56.5387C50.1146 56.056 50.7248 55.1492 50.2279 55.1492C50.1984 55.1492 50.1648 55.1524 50.127 55.1591L51.2139 54.0724C51.3261 54.2316 51.4018 54.42 51.4273 54.6268L51.6671 56.5798L47.6368 60.61ZM53.1483 55.0986L53.0657 54.4257C52.9937 53.8387 52.7487 53.3147 52.3881 52.8981L52.953 52.3333C53.5221 52.745 54.0579 53.1992 54.5568 53.6902L53.1483 55.0986Z" fill="#F0F8F8"/>
<path fill-rule="evenodd" clip-rule="evenodd" d="M39.3207 68.9273L37.7646 67.5225L39.9153 65.3721L40.9027 66.1405C42.2904 64.3916 44.2996 61.5747 45.984 59.3032L50.1281 55.1591C50.1659 55.1524 50.1995 55.1492 50.2291 55.1492C50.726 55.1492 50.1158 56.056 49.804 56.5387L47.6379 60.61L39.3207 68.9273Z" fill="#AEC3DB"/>
<path fill-rule="evenodd" clip-rule="evenodd" d="M35.0128 73.2351C34.8384 73.0575 34.6689 72.8752 34.5044 72.6884C34.3913 72.4345 34.3134 72.16 34.2778 71.8699L34.1837 71.1037L35.6649 69.6223L35.9162 71.6687C35.9382 71.8486 35.9985 72.0149 36.088 72.16L35.0128 73.2351ZM51.6681 56.5798L51.4284 54.6268C51.4029 54.42 51.3272 54.2317 51.2149 54.0725L52.3892 52.8982C52.7497 53.3148 52.9947 53.8388 53.0668 54.4257L53.1493 55.0986L51.6681 56.5798Z" fill="#DDE8EC"/>
<path d="M212.576 52.32V54.552H208.136V69H205.4V54.552H200.936V52.32H212.576ZM216.739 54.024C216.243 54.024 215.827 53.856 215.491 53.52C215.155 53.184 214.987 52.768 214.987 52.272C214.987 51.776 215.155 51.36 215.491 51.024C215.827 50.688 216.243 50.52 216.739 50.52C217.219 50.52 217.627 50.688 217.963 51.024C218.299 51.36 218.467 51.776 218.467 52.272C218.467 52.768 218.299 53.184 217.963 53.52C217.627 53.856 217.219 54.024 216.739 54.024ZM218.083 55.776V69H215.347V55.776H218.083ZM220.763 62.328C220.763 61 221.035 59.824 221.579 58.8C222.139 57.776 222.891 56.984 223.835 56.424C224.795 55.848 225.859 55.56 227.027 55.56C227.891 55.56 228.739 55.752 229.571 56.136C230.419 56.504 231.091 57 231.587 57.624V51.24H234.347V69H231.587V67.008C231.139 67.648 230.515 68.176 229.715 68.592C228.931 69.008 228.027 69.216 227.003 69.216C225.851 69.216 224.795 68.928 223.835 68.352C222.891 67.76 222.139 66.944 221.579 65.904C221.035 64.848 220.763 63.656 220.763 62.328ZM231.587 62.376C231.587 61.464 231.395 60.672 231.011 60C230.643 59.328 230.155 58.816 229.547 58.464C228.939 58.112 228.283 57.936 227.579 57.936C226.875 57.936 226.219 58.112 225.611 58.464C225.003 58.8 224.507 59.304 224.123 59.976C223.755 60.632 223.571 61.416 223.571 62.328C223.571 63.24 223.755 64.04 224.123 64.728C224.507 65.416 225.003 65.944 225.611 66.312C226.235 66.664 226.891 66.84 227.579 66.84C228.283 66.84 228.939 66.664 229.547 66.312C230.155 65.96 230.643 65.448 231.011 64.776C231.395 64.088 231.587 63.288 231.587 62.376ZM237.029 62.328C237.029 61 237.301 59.824 237.845 58.8C238.405 57.776 239.157 56.984 240.101 56.424C241.061 55.848 242.117 55.56 243.269 55.56C244.309 55.56 245.213 55.768 245.981 56.184C246.765 56.584 247.389 57.088 247.853 57.696V55.776H250.613V69H247.853V67.032C247.389 67.656 246.757 68.176 245.957 68.592C245.157 69.008 244.245 69.216 243.221 69.216C242.085 69.216 241.045 68.928 240.101 68.352C239.157 67.76 238.405 66.944 237.845 65.904C237.301 64.848 237.029 63.656 237.029 62.328ZM247.853 62.376C247.853 61.464 247.661 60.672 247.277 60C246.909 59.328 246.421 58.816 245.813 58.464C245.205 58.112 244.549 57.936 243.845 57.936C243.141 57.936 242.485 58.112 241.877 58.464C241.269 58.8 240.773 59.304 240.389 59.976C240.021 60.632 239.837 61.416 239.837 62.328C239.837 63.24 240.021 64.04 240.389 64.728C240.773 65.416 241.269 65.944 241.877 66.312C242.501 66.664 243.157 66.84 243.845 66.84C244.549 66.84 245.205 66.664 245.813 66.312C246.421 65.96 246.909 65.448 247.277 64.776C247.661 64.088 247.853 63.288 247.853 62.376ZM259.438 62.4L265.534 69H261.838L256.942 63.312V69H254.206V51.24H256.942V61.56L261.742 55.776H265.534L259.438 62.4ZM283.786 65.592H276.802L275.602 69H272.746L278.722 52.296H281.89L287.866 69H284.986L283.786 65.592ZM283.018 63.36L280.306 55.608L277.57 63.36H283.018ZM289.552 62.328C289.552 61 289.824 59.824 290.368 58.8C290.928 57.776 291.68 56.984 292.624 56.424C293.584 55.848 294.648 55.56 295.816 55.56C296.68 55.56 297.528 55.752 298.36 56.136C299.208 56.504 299.88 57 300.376 57.624V51.24H303.136V69H300.376V67.008C299.928 67.648 299.304 68.176 298.504 68.592C297.72 69.008 296.816 69.216 295.792 69.216C294.64 69.216 293.584 68.928 292.624 68.352C291.68 67.76 290.928 66.944 290.368 65.904C289.824 64.848 289.552 63.656 289.552 62.328ZM300.376 62.376C300.376 61.464 300.184 60.672 299.8 60C299.432 59.328 298.944 58.816 298.336 58.464C297.728 58.112 297.072 57.936 296.368 57.936C295.664 57.936 295.008 58.112 294.4 58.464C293.792 58.8 293.296 59.304 292.912 59.976C292.544 60.632 292.36 61.416 292.36 62.328C292.36 63.24 292.544 64.04 292.912 64.728C293.296 65.416 293.792 65.944 294.4 66.312C295.024 66.664 295.68 66.84 296.368 66.84C297.072 66.84 297.728 66.664 298.336 66.312C298.944 65.96 299.432 65.448 299.8 64.776C300.184 64.088 300.376 63.288 300.376 62.376ZM305.818 62.328C305.818 61 306.09 59.824 306.634 58.8C307.194 57.776 307.946 56.984 308.89 56.424C309.85 55.848 310.906 55.56 312.058 55.56C313.098 55.56 314.002 55.768 314.77 56.184C315.554 56.584 316.178 57.088 316.642 57.696V55.776H319.402V69H316.642V67.032C316.178 67.656 315.546 68.176 314.746 68.592C313.946 69.008 313.034 69.216 312.01 69.216C310.874 69.216 309.834 68.928 308.89 68.352C307.946 67.76 307.194 66.944 306.634 65.904C306.09 64.848 305.818 63.656 305.818 62.328ZM316.642 62.376C316.642 61.464 316.45 60.672 316.066 60C315.698 59.328 315.21 58.816 314.602 58.464C313.994 58.112 313.338 57.936 312.634 57.936C311.93 57.936 311.274 58.112 310.666 58.464C310.058 58.8 309.562 59.304 309.178 59.976C308.81 60.632 308.626 61.416 308.626 62.328C308.626 63.24 308.81 64.04 309.178 64.728C309.562 65.416 310.058 65.944 310.666 66.312C311.29 66.664 311.946 66.84 312.634 66.84C313.338 66.84 313.994 66.664 314.602 66.312C315.21 65.96 315.698 65.448 316.066 64.776C316.45 64.088 316.642 63.288 316.642 62.376ZM334.678 52.32C336.454 52.32 338.006 52.664 339.334 53.352C340.678 54.024 341.71 55 342.43 56.28C343.166 57.544 343.534 59.024 343.534 60.72C343.534 62.416 343.166 63.888 342.43 65.136C341.71 66.384 340.678 67.344 339.334 68.016C338.006 68.672 336.454 69 334.678 69H329.23V52.32H334.678ZM334.678 66.768C336.63 66.768 338.126 66.24 339.166 65.184C340.206 64.128 340.726 62.64 340.726 60.72C340.726 58.784 340.206 57.272 339.166 56.184C338.126 55.096 336.63 54.552 334.678 54.552H331.966V66.768H334.678ZM345.333 62.328C345.333 61 345.605 59.824 346.149 58.8C346.709 57.776 347.461 56.984 348.405 56.424C349.365 55.848 350.421 55.56 351.573 55.56C352.613 55.56 353.517 55.768 354.285 56.184C355.069 56.584 355.693 57.088 356.157 57.696V55.776H358.917V69H356.157V67.032C355.693 67.656 355.061 68.176 354.261 68.592C353.461 69.008 352.549 69.216 351.525 69.216C350.389 69.216 349.349 68.928 348.405 68.352C347.461 67.76 346.709 66.944 346.149 65.904C345.605 64.848 345.333 63.656 345.333 62.328ZM356.157 62.376C356.157 61.464 355.965 60.672 355.581 60C355.213 59.328 354.725 58.816 354.117 58.464C353.509 58.112 352.853 57.936 352.149 57.936C351.445 57.936 350.789 58.112 350.181 58.464C349.573 58.8 349.077 59.304 348.693 59.976C348.325 60.632 348.141 61.416 348.141 62.328C348.141 63.24 348.325 64.04 348.693 64.728C349.077 65.416 349.573 65.944 350.181 66.312C350.805 66.664 351.461 66.84 352.149 66.84C352.853 66.84 353.509 66.664 354.117 66.312C354.725 65.96 355.213 65.448 355.581 64.776C355.965 64.088 356.157 63.288 356.157 62.376ZM365.703 58.008V65.328C365.703 65.824 365.815 66.184 366.039 66.408C366.279 66.616 366.679 66.72 367.239 66.72H368.919V69H366.759C365.527 69 364.583 68.712 363.927 68.136C363.271 67.56 362.943 66.624 362.943 65.328V58.008H361.383V55.776H362.943V52.488H365.703V55.776H368.919V58.008H365.703ZM370.529 62.328C370.529 61 370.801 59.824 371.345 58.8C371.905 57.776 372.657 56.984 373.601 56.424C374.561 55.848 375.617 55.56 376.769 55.56C377.809 55.56 378.713 55.768 379.481 56.184C380.265 56.584 380.889 57.088 381.353 57.696V55.776H384.113V69H381.353V67.032C380.889 67.656 380.257 68.176 379.457 68.592C378.657 69.008 377.745 69.216 376.721 69.216C375.585 69.216 374.545 68.928 373.601 68.352C372.657 67.76 371.905 66.944 371.345 65.904C370.801 64.848 370.529 63.656 370.529 62.328ZM381.353 62.376C381.353 61.464 381.161 60.672 380.777 60C380.409 59.328 379.921 58.816 379.313 58.464C378.705 58.112 378.049 57.936 377.345 57.936C376.641 57.936 375.985 58.112 375.377 58.464C374.769 58.8 374.273 59.304 373.889 59.976C373.521 60.632 373.337 61.416 373.337 62.328C373.337 63.24 373.521 64.04 373.889 64.728C374.273 65.416 374.769 65.944 375.377 66.312C376.001 66.664 376.657 66.84 377.345 66.84C378.049 66.84 378.705 66.664 379.313 66.312C379.921 65.96 380.409 65.448 380.777 64.776C381.161 64.088 381.353 63.288 381.353 62.376Z" fill="#343434"/>
</svg>
