<svg width="294" height="224" viewBox="0 0 294 224" fill="none" xmlns="http://www.w3.org/2000/svg">
<g opacity="0.9">
<path d="M184.96 182.554C184.96 188.646 180.94 194.247 174.786 195.987L158.316 200.641L80.8197 222.543C74.4368 224.347 67.837 221.409 64.7779 215.831C64.2783 214.921 63.8743 213.941 63.5798 212.9C63.2215 211.631 63.0483 210.351 63.0483 209.094C63.0483 207.895 63.2036 206.715 63.5021 205.58C64.7122 200.945 68.2789 197.057 73.2228 195.66L127.749 180.25L167.189 169.104C174.613 167.006 182.331 171.323 184.429 178.747C184.789 180.017 184.96 181.295 184.96 182.554Z" fill="#F78F1E"/>
<path d="M158.316 200.641L135.437 185.377L142.495 183.382L148.317 187.265L165.376 198.645L158.316 200.641ZM127.749 180.249L134.809 178.254H134.81L127.749 180.249Z" fill="#F6841D"/>
<path d="M135.436 185.376L127.749 180.249L134.81 178.253L142.495 183.382L135.436 185.376Z" fill="#F57A1C"/>
<path d="M284.263 79.7541L195.087 213.426C193.802 215.352 191.197 215.872 189.27 214.586L148.316 187.266L101.209 155.839C100.284 155.221 99.6412 154.262 99.4243 153.171L97.5537 143.803C97.3358 142.712 97.56 141.579 98.1777 140.654L178.395 20.4124L183.604 12.6032C184.89 10.6764 187.495 10.1549 189.421 11.4403L218.311 30.7168L240.469 45.4955L283.1 73.9381C285.029 75.2235 285.548 77.827 284.263 79.7541Z" fill="white"/>
<path d="M99.7636 154.874L97.2139 142.099L104.877 147.211L99.7636 154.874Z" fill="#ECDBD5"/>
<path d="M240.468 45.4953L201.457 196.649C200.879 198.892 198.59 200.24 196.348 199.662L148.316 187.265L101.208 155.838C100.282 155.221 99.6413 154.262 99.4245 153.171L97.5529 143.803C97.3338 142.711 97.5599 141.579 98.1775 140.654L178.393 20.4132L218.311 30.7155L240.468 45.4953Z" fill="#F6F3F1"/>
<path d="M189.462 82.4068L166.005 66.7586C164.943 66.0495 163.503 66.3372 162.796 67.3989C162.086 68.4606 162.376 69.8992 163.436 70.6063L186.893 86.2565C187.955 86.9637 189.393 86.6759 190.102 85.6163C190.809 84.5545 190.522 83.1139 189.462 82.4068Z" fill="#ECDBD5"/>
<path d="M241.017 116.801L199.021 88.7825C197.96 88.0748 196.522 88.362 195.812 89.4232C195.105 90.4843 195.391 91.9238 196.452 92.6317L238.45 120.65C239.511 121.358 240.952 121.07 241.659 120.009C242.367 118.948 242.079 117.508 241.017 116.801Z" fill="#ECDBD5"/>
<path d="M199.321 106.936L157.715 79.1816C156.655 78.4721 155.215 78.7601 154.505 79.8222C153.798 80.8822 154.086 82.322 155.146 83.0294L196.752 110.786C197.814 111.494 199.254 111.206 199.961 110.146C200.669 109.084 200.381 107.644 199.321 106.936Z" fill="#ECDBD5"/>
<path d="M232.73 129.224L209.931 114.015C208.87 113.306 207.431 113.593 206.723 114.655C206.015 115.717 206.301 117.155 207.362 117.864L230.161 133.073C231.222 133.781 232.662 133.494 233.37 132.433C234.078 131.372 233.791 129.932 232.73 129.224Z" fill="#ECDBD5"/>
<path d="M166.318 102.876L149.426 91.6065C148.364 90.8981 146.926 91.1864 146.217 92.2472C145.509 93.308 145.797 94.7475 146.858 95.456L163.752 106.725C164.813 107.434 166.252 107.147 166.959 106.085C167.667 105.024 167.381 103.584 166.318 102.876Z" fill="#ECDBD5"/>
<path d="M206.552 129.717L175.475 108.984C174.414 108.276 172.975 108.563 172.266 109.625C171.558 110.686 171.846 112.125 172.907 112.833L203.984 133.566C205.045 134.274 206.484 133.986 207.194 132.925C207.901 131.864 207.613 130.424 206.552 129.717Z" fill="#ECDBD5"/>
<path d="M224.44 141.651L215.279 135.54C214.219 134.833 212.781 135.12 212.073 136.181C211.365 137.242 211.652 138.682 212.714 139.389L221.872 145.5C222.934 146.208 224.372 145.92 225.081 144.859C225.789 143.798 225.502 142.359 224.44 141.651Z" fill="#ECDBD5"/>
<path d="M178.471 130.881L140.24 105.376C139.178 104.669 137.74 104.957 137.031 106.016C136.324 107.078 136.61 108.518 137.672 109.225L175.903 134.73C176.964 135.438 178.404 135.151 179.111 134.089C179.82 133.028 179.532 131.589 178.471 130.881Z" fill="#ECDBD5"/>
<path d="M215.255 155.421L187.537 136.929C186.476 136.222 185.036 136.509 184.328 137.57C183.62 138.631 183.909 140.071 184.97 140.779L212.686 159.27C213.748 159.978 215.188 159.69 215.895 158.629C216.603 157.568 216.315 156.129 215.255 155.421Z" fill="#ECDBD5"/>
<path d="M192.625 189.343L176.585 178.643C175.524 177.934 174.083 178.221 173.376 179.283C172.668 180.344 172.956 181.783 174.016 182.492L190.057 193.192C191.117 193.9 192.557 193.612 193.265 192.551C193.973 191.49 193.686 190.051 192.625 189.343Z" fill="#ECDBD5"/>
<path d="M237.454 33.3856L197.298 188.975C196.719 191.218 194.434 192.566 192.19 191.987L149.528 180.977L89.6893 165.533C88.6127 165.255 87.6898 164.561 87.1247 163.603L82.2722 155.375C81.7071 154.416 81.5457 153.272 81.8246 152.195L113.134 30.8822L120.29 3.14705C120.872 0.905273 123.157 -0.444931 125.399 0.134048L234.441 28.2768C236.685 28.8557 238.033 31.1438 237.454 33.3856Z" fill="white"/>
<path d="M88.0076 165.1L81.3894 153.878L90.3095 156.18L88.0076 165.1Z" fill="#ECDBD5"/>
<path d="M168.936 175.491L149.526 180.977L89.6888 165.534C88.612 165.256 87.6891 164.562 87.1238 163.604L82.2707 155.375C81.7054 154.417 81.5439 153.273 81.8246 152.196L113.133 30.8827L132.709 25.349L140.258 23.2166C143.43 22.3206 146.73 24.1664 147.626 27.339L162.954 81.5786C163.85 84.7531 162.006 88.0507 158.834 88.9467L151.285 91.081L173.058 168.124C173.954 171.297 172.109 174.595 168.936 175.491Z" fill="#F6F3F1"/>
<path d="M148.821 67.1229L121.517 60.0765C120.283 59.7578 119.019 60.5039 118.7 61.738C118.381 62.9738 119.126 64.2381 120.361 64.5569L147.664 71.6033C148.899 71.922 150.164 71.1759 150.483 69.9418C150.801 68.706 150.055 67.4417 148.821 67.1229Z" fill="#ECDBD5"/>
<path d="M208.831 82.612L159.948 69.9979C158.712 69.6778 157.449 70.4234 157.131 71.659C156.81 72.8946 157.556 74.1582 158.792 74.4784L207.675 87.0924C208.91 87.4126 210.174 86.6669 210.494 85.4313C210.812 84.1957 210.067 82.9321 208.831 82.612Z" fill="#ECDBD5"/>
<path d="M166.213 87.0371L117.785 74.5385C116.549 74.2195 115.286 74.9651 114.967 76.1994C114.648 77.4357 115.394 78.7003 116.628 79.0193L165.056 91.5178C166.29 91.8349 167.555 91.0894 167.874 89.855C168.193 88.6206 167.447 87.356 166.213 87.0371Z" fill="#ECDBD5"/>
<path d="M205.099 97.0753L178.562 90.2253C177.327 89.9064 176.062 90.6526 175.743 91.8878C175.424 93.123 176.17 94.388 177.405 94.7069L203.942 101.555C205.177 101.874 206.442 101.127 206.761 99.8922C207.08 98.657 206.334 97.3942 205.099 97.0753Z" fill="#ECDBD5"/>
<path d="M133.716 94.0756L114.053 89.0013C112.818 88.6822 111.553 89.4283 111.234 90.664C110.915 91.898 111.661 93.1623 112.897 93.4814L132.559 98.5557C133.793 98.8747 135.058 98.1303 135.377 96.8946C135.696 95.659 134.95 94.3946 133.716 94.0756Z" fill="#ECDBD5"/>
<path d="M180.546 106.161L144.373 96.8277C143.138 96.5077 141.874 97.2544 141.554 98.489C141.236 99.7236 141.981 100.988 143.217 101.308L179.39 110.641C180.625 110.962 181.889 110.215 182.209 108.98C182.527 107.746 181.783 106.481 180.546 106.161Z" fill="#ECDBD5"/>
<path d="M201.366 111.537L190.706 108.786C189.471 108.466 188.205 109.213 187.888 110.447C187.568 111.683 188.315 112.947 189.549 113.266L200.21 116.017C201.446 116.336 202.71 115.59 203.028 114.355C203.348 113.12 202.603 111.856 201.366 111.537Z" fill="#ECDBD5"/>
<path d="M154.416 116.517L109.914 105.031C108.68 104.712 107.417 105.458 107.097 106.694C106.78 107.93 107.524 109.193 108.76 109.511L153.259 120.996C154.494 121.316 155.759 120.57 156.076 119.336C156.396 118.099 155.65 116.834 154.416 116.517Z" fill="#ECDBD5"/>
<path d="M197.229 127.566L164.968 119.239C163.732 118.92 162.469 119.666 162.149 120.901C161.831 122.136 162.577 123.4 163.811 123.719L196.074 132.046C197.31 132.364 198.573 131.619 198.891 130.384C199.211 129.149 198.465 127.884 197.229 127.566Z" fill="#ECDBD5"/>
<path d="M187.039 167.049L168.37 162.23C167.133 161.911 165.869 162.657 165.551 163.892C165.233 165.127 165.978 166.392 167.214 166.71L185.882 171.529C187.118 171.848 188.383 171.103 188.702 169.866C189.02 168.631 188.274 167.368 187.039 167.049Z" fill="#ECDBD5"/>
<path d="M63.0512 209.094C63.0512 203 67.07 197.399 73.2248 195.659L59.7827 199.458L63.5823 212.9C63.2235 211.63 63.0512 210.351 63.0512 209.094Z" fill="#FAB445"/>
<path d="M165.717 163.316L157.598 134.587L143.945 86.2734L151.491 84.1403C154.665 83.2446 156.51 79.9454 155.613 76.772L140.285 22.53C139.387 19.3566 136.088 17.5127 132.915 18.4102L125.368 20.5415L75.6253 34.6001L73.7907 35.1183L71.3309 35.8131L69.4231 36.352L60.7611 38.8005L58.8534 39.3394L55.6612 40.2407L53.8361 40.7571L23.5546 49.3158C20.3818 50.2115 18.5364 53.5107 19.4339 56.6841L29.9169 93.7787L29.9179 93.7805L59.7828 199.458L161.595 170.685C164.769 169.789 166.613 166.489 165.717 163.316Z" fill="#FAB445"/>
<path d="M63.5823 212.9L59.7827 199.458L73.2248 195.659C73.2143 195.662 73.2039 195.664 73.1934 195.668C73.1869 195.67 73.1817 195.672 73.1752 195.673C73.1713 195.674 73.1673 195.675 73.1634 195.677C73.1556 195.679 73.1478 195.681 73.1412 195.683C73.1386 195.683 73.1373 195.684 73.1347 195.684C70.7026 196.39 68.6071 197.698 66.9669 199.403C66.9656 199.405 66.9656 199.405 66.9643 199.407C66.9591 199.412 66.9539 199.417 66.9487 199.422C66.9461 199.425 66.9435 199.427 66.9408 199.43C66.9369 199.435 66.9317 199.439 66.9278 199.444C66.9239 199.447 66.92 199.452 66.9174 199.455C66.9121 199.46 66.9082 199.464 66.9043 199.468C66.8978 199.475 66.8913 199.481 66.886 199.487C66.8834 199.49 66.8808 199.493 66.8769 199.498C66.873 199.502 66.8678 199.507 66.8639 199.511C66.8599 199.515 66.8586 199.518 66.8547 199.521C66.8495 199.526 66.8456 199.53 66.8404 199.537C66.8378 199.539 66.8352 199.542 66.8325 199.544C66.8182 199.56 66.8038 199.575 66.7882 199.592C66.7882 199.592 66.7882 199.592 66.7882 199.593C66.7791 199.6 66.7725 199.609 66.7647 199.617C66.7647 199.617 66.7634 199.618 66.7634 199.619C66.7569 199.627 66.7477 199.635 66.7412 199.644C65.8826 200.578 65.1585 201.622 64.5844 202.745C64.5844 202.747 64.5831 202.747 64.5818 202.749C64.5792 202.758 64.5739 202.765 64.57 202.773C64.5687 202.775 64.5674 202.778 64.5661 202.781C64.5622 202.788 64.5583 202.795 64.5544 202.804C64.5531 202.806 64.5531 202.808 64.5518 202.81C64.5478 202.819 64.5426 202.829 64.5374 202.837C64.5361 202.843 64.5322 202.847 64.5309 202.852C64.5283 202.856 64.527 202.86 64.5244 202.865C64.5217 202.87 64.5191 202.876 64.5152 202.881C64.5139 202.884 64.5126 202.888 64.51 202.891C64.5074 202.897 64.5048 202.904 64.5009 202.911C64.4996 202.912 64.4996 202.913 64.4996 202.914C63.962 204 63.5653 205.158 63.3239 206.357C63.1582 207.18 63.0656 208.023 63.0538 208.878C63.0538 208.879 63.0538 208.881 63.0538 208.882C63.0538 208.891 63.0525 208.902 63.0525 208.912C63.0525 208.913 63.0525 208.915 63.0525 208.916C63.0525 208.94 63.0525 208.963 63.0525 208.985C63.0525 208.987 63.0525 208.989 63.0525 208.991C63.0525 209 63.0512 209.009 63.0512 209.017C63.0512 209.021 63.0512 209.025 63.0512 209.028C63.0512 209.035 63.0512 209.043 63.0512 209.052C63.0512 209.055 63.0512 209.057 63.0512 209.06C63.0512 209.072 63.0512 209.082 63.0512 209.094C63.0512 210.351 63.2235 211.63 63.5823 212.9Z" fill="#F9AA3D"/>
<path d="M59.8714 199.625L50.595 166.801C58.5074 165.814 64.6304 159.065 64.6304 150.886C64.6304 148.176 63.9577 145.623 62.7717 143.385L50.6588 115.458L81.5023 133.982C92.6391 138.475 105.443 141.476 119.797 141.475C131.432 141.474 144.093 139.501 157.686 134.754L165.806 163.483C165.96 164.028 166.033 164.577 166.031 165.117C166.031 165.396 166.012 165.671 165.973 165.943C165.65 168.212 164.032 170.188 161.684 170.852L136.89 177.859L134.899 178.421L127.841 180.416L73.2865 195.834L59.8714 199.625ZM37.2168 119.458L30.0073 93.9486C30.1257 94.1191 37.2807 104.465 50.6588 115.458H46.9994C43.1901 115.458 39.7363 116.985 37.2168 119.458Z" fill="#F9AA3D"/>
<path d="M86.1885 79.8457C85.314 82.1347 83.6013 83.9475 81.3649 84.9493C80.1522 85.4911 78.8813 85.7493 77.6304 85.7493C74.1213 85.7493 70.7668 83.7256 69.2431 80.322L52.2886 42.4457C52.1232 42.0748 51.9777 41.6985 51.8541 41.3185C51.0486 38.8548 51.1086 36.2094 52.045 33.753C53.1268 30.9185 55.2486 28.673 58.0177 27.4349C63.7359 24.8749 70.4704 27.444 73.0286 33.1639L73.8922 35.0912L72.0577 35.6094L71.3068 33.933C69.1722 29.1658 63.5559 27.024 58.7886 29.1567C56.4795 30.1912 54.7104 32.0621 53.8086 34.4276C53.0177 36.4985 52.9759 38.7312 53.6723 40.8039C53.7704 41.0985 53.885 41.3894 54.0123 41.6748L70.9649 79.5511C72.6068 83.2184 76.9268 84.8675 80.594 83.2256C82.3704 82.4311 83.7304 80.9911 84.4249 79.1729C85.1194 77.3548 85.0631 75.3729 84.2686 73.5984L67.8031 36.8112L67.6086 36.3767C66.5213 33.9494 63.665 32.8585 61.2377 33.9439C59.0977 34.9021 57.9977 37.2348 58.5104 39.4367C58.5813 39.733 58.6777 40.0276 58.8068 40.3148L68.7959 62.6311C69.0086 63.1057 68.7959 63.6639 68.3195 63.8766C67.8431 64.0893 67.285 63.8766 67.0722 63.4002L57.085 41.0857C56.9177 40.713 56.7868 40.3348 56.6941 39.9512C55.9304 36.8621 57.4632 33.5676 60.4668 32.2221C63.8431 30.7112 67.8195 32.2276 69.3304 35.6039L69.6395 36.2912L85.9904 72.8257C86.9922 75.0638 87.0613 77.5566 86.1885 79.8457Z" fill="#1C1B3E"/>
<path d="M70.2866 64.8535C69.9279 64.8535 69.5814 64.6456 69.4254 64.2956L68.8762 63.0688C68.8848 62.9232 68.8606 62.7725 68.7965 62.6304L59.0481 40.8551C59.0481 40.8517 59.0481 40.8482 59.0463 40.8447C58.9233 40.3457 58.8592 39.8415 58.8523 39.3407L60.76 38.8018C60.7132 39.3061 60.7462 39.8224 60.864 40.3318C60.9333 40.6281 61.0303 40.9227 61.1603 41.2086L71.1478 63.5245C71.3609 64.001 71.1478 64.559 70.6713 64.7703C70.5465 64.8275 70.4166 64.8535 70.2866 64.8535Z" fill="#F9AA3D"/>
<path d="M68.8763 63.0688L59.4361 41.9799C59.271 41.6101 59.142 41.2351 59.0474 40.8549L68.7954 62.6302C68.8591 62.773 68.8831 62.9226 68.8763 63.0688Z" fill="#1C1B39"/>
<path d="M79.9813 86.6433C78.4317 86.6433 76.91 86.2476 75.5634 85.5139C76.2376 85.668 76.931 85.7485 77.6297 85.7485C78.8799 85.7485 80.1512 85.4929 81.3647 84.9483C81.8182 84.7452 82.2507 84.5088 82.6587 84.2408C82.755 84.2041 82.8496 84.162 82.9459 84.12C84.7215 83.325 86.0821 81.8857 86.7772 80.0681C87.4707 78.2487 87.4164 76.2683 86.6196 74.4927L86.4673 74.1512C86.343 73.7012 86.1854 73.2599 85.991 72.8257L69.6396 36.2915L71.3294 35.8152C71.4589 36.0341 71.5763 36.2617 71.6831 36.4981L71.9912 37.1863L88.3427 73.7205C89.3443 75.9583 89.4143 78.4501 88.5405 80.7405C87.6668 83.0291 85.9542 84.8415 83.7164 85.8431C82.5029 86.3859 81.2334 86.6433 79.9813 86.6433ZM76.2428 83.7278C73.9892 83.2918 71.972 81.8016 70.9651 79.5515L54.0989 41.8721C53.9921 41.5027 53.9045 41.1314 53.8345 40.7585L55.6608 40.2437C55.7431 40.734 55.8622 41.2207 56.0251 41.6988C56.1231 41.993 56.2369 42.2836 56.3648 42.5691L73.3168 80.4463C73.9542 81.8682 74.9943 82.9871 76.2428 83.7278Z" fill="#F9AA3D"/>
<path d="M77.6308 85.7487C76.9315 85.7487 76.2375 85.6682 75.5645 85.5127C73.8653 84.5844 72.4458 83.116 71.5945 81.2175L54.641 43.3406C54.4767 42.97 54.3299 42.5941 54.2058 42.2131C54.169 42.0994 54.1341 41.9858 54.0991 41.8704L70.9651 79.5515C71.9721 81.8014 73.9894 83.2908 76.2428 83.7278C77.3668 84.3956 78.6605 84.7557 79.9803 84.7557C80.8753 84.7557 81.7826 84.5897 82.6584 84.2418C82.2511 84.5092 81.8193 84.7452 81.3648 84.9498C80.1516 85.4917 78.8807 85.7487 77.6308 85.7487ZM86.4676 74.1498L70.1558 37.7064L69.96 37.2711C69.8131 36.9389 69.6313 36.633 69.4233 36.3533L69.6401 36.2921L85.9904 72.8264C86.1844 73.26 86.3435 73.7022 86.4676 74.1498Z" fill="#1C1B39"/>
<path d="M43.8017 142.905C43.787 142.89 43.7711 142.876 43.7563 142.861C43.7677 142.863 43.779 142.866 43.7915 142.869L43.8017 142.905Z" fill="#E9A96F"/>
<path d="M7.8565 44.1161C12.0201 44.5247 15.0786 48.0883 15.0786 48.0883C15.0786 48.0883 11.3868 50.9896 7.22313 50.5827C3.05966 50.1741 0 46.6104 0 46.6104C0 46.6104 3.69286 43.7074 7.8565 44.1161Z" fill="#F78F1E"/>
<path d="M18.025 38.2726C20.6097 41.5625 20.1505 46.2358 20.1505 46.2358C20.1505 46.2358 15.5014 45.5758 12.9158 42.2877C10.3311 38.9961 10.7904 34.3227 10.7904 34.3227C10.7904 34.3227 15.4394 34.9828 18.025 38.2726Z" fill="#1C1B3E"/>
<path d="M14.1676 61.4809C14.0283 62.636 12.9796 63.4565 11.8253 63.3182C10.6719 63.1782 9.84982 62.1292 9.9893 60.9757C10.1288 59.8222 11.1772 59.0001 12.3306 59.14C13.4851 59.2784 14.3071 60.3274 14.1676 61.4809Z" fill="#F7911E"/>
<path d="M48.9842 183.987C48.8442 185.141 47.7959 185.964 46.6428 185.824C45.4875 185.685 44.6662 184.636 44.8051 183.482C44.9462 182.328 45.9946 181.507 47.1477 181.646C48.3008 181.786 49.1243 182.834 48.9842 183.987Z" fill="#F7911E"/>
<path d="M47.4404 191.548C48.852 187.791 52.9127 185.841 52.9127 185.841C52.9127 185.841 54.6868 189.982 53.2752 193.74C51.8648 197.497 47.803 199.447 47.803 199.447C47.803 199.447 46.0289 195.306 47.4404 191.548Z" fill="#1C1B3E"/>
<path d="M244.208 194.519C243.509 193.617 243.676 192.32 244.577 191.621C245.478 190.922 246.774 191.086 247.474 191.988C248.173 192.89 248.009 194.187 247.107 194.886C246.204 195.584 244.908 195.421 244.208 194.519Z" fill="#F7911E"/>
<path d="M251.637 152.239C254.049 154.691 254.102 158.554 254.102 158.554C254.102 158.554 250.241 158.44 247.826 155.987C245.414 153.534 245.361 149.672 245.361 149.672C245.361 149.672 249.222 149.786 251.637 152.239Z" fill="#F46B21"/>
<path d="M254.632 143.56C258.395 143.265 261.675 145.948 261.675 145.948C261.675 145.948 258.852 149.11 255.09 149.404C251.327 149.699 248.046 147.015 248.046 147.015C248.046 147.015 250.869 143.853 254.632 143.56Z" fill="#1C1B3E"/>
<path d="M253.957 40.1887C253.257 39.2867 253.423 37.9897 254.325 37.2901C255.227 36.5928 256.524 36.7562 257.223 37.6582C257.921 38.5602 257.755 39.8572 256.855 40.5569C255.953 41.2541 254.656 41.0908 253.957 40.1887Z" fill="#F7911E"/>
<path d="M283.065 81.5505L283.578 80.7788C287.011 79.0362 290.484 77.3481 294 75.726L293.91 76.244C290.261 77.9385 286.642 79.7135 283.065 81.5505Z" fill="#EAB282"/>
<path d="M227.89 199.769C226.866 199.868 225.802 199.697 224.806 199.219C223.391 198.541 222.325 197.353 221.804 195.873C221.282 194.392 221.369 192.798 222.048 191.383L231.306 172.06C233.127 168.261 237.699 166.651 241.498 168.472C243.338 169.354 244.726 170.899 245.403 172.825C246.081 174.75 245.968 176.823 245.086 178.664L242.467 184.132C242.316 184.448 241.935 184.581 241.618 184.43C241.301 184.278 241.169 183.899 241.32 183.582L243.941 178.114C244.676 176.58 244.769 174.851 244.206 173.247C243.64 171.642 242.484 170.353 240.949 169.618C239.416 168.883 237.687 168.789 236.081 169.354C234.477 169.919 233.188 171.076 232.453 172.61L223.193 191.932C222.663 193.042 222.594 194.291 223.004 195.45C223.41 196.611 224.245 197.542 225.355 198.074C227.644 199.17 230.4 198.2 231.497 195.911L240.322 177.49C241.013 176.051 240.402 174.317 238.962 173.627C237.522 172.937 235.79 173.547 235.1 174.988L230.724 184.118C230.572 184.435 230.192 184.568 229.875 184.417C229.56 184.265 229.425 183.885 229.579 183.569L233.952 174.438C234.946 172.366 237.439 171.488 239.511 172.481C241.585 173.474 242.463 175.968 241.469 178.04L232.642 196.46C231.72 198.386 229.877 199.58 227.89 199.769Z" fill="#1C1B3E"/>
</g>
</svg>
