<svg width="327" height="387" viewBox="0 0 327 387" fill="none" xmlns="http://www.w3.org/2000/svg">
<g clip-path="url(#clip0_1107_14351)">
<path fill-rule="evenodd" clip-rule="evenodd" d="M145.917 310.052C184.293 308.407 204.331 267.177 233.445 242.17C267.028 213.323 322.075 198.795 326.654 154.81C331.315 110.033 287.971 76.5084 253.743 47.191C222.783 20.6728 186.713 -0.350539 145.917 0.00455364C105.444 0.356832 67.6706 19.6113 39.956 49.0518C13.1013 77.579 -1.86954 115.72 0.187528 154.81C2.14786 192.061 24.9778 222.791 50.5315 250.013C77.2493 278.474 106.876 311.726 145.917 310.052Z" fill="#E5E9F0"/>
<path fill-rule="evenodd" clip-rule="evenodd" d="M280.088 25.0762L276.278 77.6351C275.801 84.1879 270.096 89.1163 263.53 88.641L255.118 88.0344L244.217 238.391C244.182 238.899 244.114 239.399 244.023 239.887C242.792 246.506 236.748 251.28 229.865 250.783L81.1097 240.041C73.7189 239.508 68.1602 233.094 68.6978 225.717L84.158 12.4271C84.6918 5.05057 91.1187 -0.497413 98.5094 0.035378L257.188 11.4927L260.649 11.743L269.061 12.3491C275.627 12.8245 280.564 18.5192 280.088 25.0762Z" fill="#ADB9D2"/>
<path fill-rule="evenodd" clip-rule="evenodd" d="M84.3254 11.3827L82.1074 11.3283L82.1095 11.2307L84.3413 11.2851C84.3359 11.3174 84.3304 11.3505 84.3254 11.3827Z" fill="#71B2CF"/>
<path fill-rule="evenodd" clip-rule="evenodd" d="M240.585 238.937L239.548 238.911L240.461 238.799L237.244 212.595L242.087 15.2543L212.925 14.5387L212.913 14.4403L246.074 15.2543L240.585 238.937ZM200.881 14.2431L84.3243 11.3827C84.3294 11.3505 84.3348 11.3174 84.3403 11.2852L201.545 14.1614L200.881 14.2431Z" fill="#8D9CB9"/>
<path fill-rule="evenodd" clip-rule="evenodd" d="M72.6328 234.913L78.1219 11.2307L242.088 15.2543L236.598 238.937L72.6328 234.913Z" fill="white"/>
<path fill-rule="evenodd" clip-rule="evenodd" d="M71.6989 250.102L59.3359 26.6942L223.1 17.6321L235.463 241.04L71.6989 250.102Z" fill="#F1F2F2"/>
<path fill-rule="evenodd" clip-rule="evenodd" d="M240.462 238.799L72.2709 259.451L44.5205 33.4418L212.712 12.7905L240.462 238.799Z" fill="white"/>
<path fill-rule="evenodd" clip-rule="evenodd" d="M191.372 39.7774L71.7535 54.4647L70.2988 42.6172L189.918 27.9299L191.372 39.7774Z" fill="#EEF3F8"/>
<path fill-rule="evenodd" clip-rule="evenodd" d="M202.185 74.5485L118.851 84.781L118.148 79.0633L201.483 68.8308L202.185 74.5485Z" fill="#F0F0F0"/>
<path fill-rule="evenodd" clip-rule="evenodd" d="M182.881 88.4836L120.25 96.174L119.548 90.4558L182.179 82.7659L182.881 88.4836Z" fill="#F0F0F0"/>
<path fill-rule="evenodd" clip-rule="evenodd" d="M180.079 65.6552L117.448 73.3452L116.746 67.6274L179.377 59.9375L180.079 65.6552Z" fill="#EEF3F8"/>
<path fill-rule="evenodd" clip-rule="evenodd" d="M92.8318 74.8057C91.3232 75.7822 84.4937 85.786 80.7147 90.5487L77.0169 87.6703C76.5764 87.2558 75.5806 85.92 74.914 86.9505L73.9233 88.8444C73.2525 89.8753 74.2721 91.3074 74.9475 91.7119L80.9927 97.1683C81.6698 97.5716 82.7581 97.0645 83.4268 96.0327L83.995 95.1547L83.9971 95.1534L94.1663 76.0385C94.8342 75.0038 96.4099 72.6798 92.8318 74.8057Z" fill="#AEC3DB"/>
<path fill-rule="evenodd" clip-rule="evenodd" d="M72.0232 74.3051C71.0103 74.4295 70.2876 75.3548 70.4119 76.3673L73.1789 98.9029C73.3032 99.9154 74.2282 100.638 75.2411 100.514L97.7766 97.7468C98.7891 97.6224 99.5119 96.6974 99.3875 95.6845L96.6205 73.1494C96.4962 72.1365 95.5712 71.4138 94.5583 71.5381L72.0232 74.3051ZM98.0806 100.223L75.5451 102.99C73.1671 103.282 70.9952 101.584 70.7029 99.2069L67.936 76.6713C67.6441 74.2934 69.3412 72.1214 71.7192 71.8292L94.2543 69.0622C96.6323 68.7703 98.8046 70.4674 99.0965 72.8454L101.863 95.3805C102.155 97.7585 100.458 99.9304 98.0806 100.223Z" fill="#DAE3E8"/>
<path fill-rule="evenodd" clip-rule="evenodd" d="M207.67 119.214L124.336 129.446L123.634 123.729L206.968 113.497L207.67 119.214Z" fill="#F0F0F0"/>
<path fill-rule="evenodd" clip-rule="evenodd" d="M188.364 133.149L125.733 140.839L125.031 135.122L187.662 127.432L188.364 133.149Z" fill="#F0F0F0"/>
<path fill-rule="evenodd" clip-rule="evenodd" d="M185.564 110.321L122.932 118.011L122.23 112.293L184.861 104.604L185.564 110.321Z" fill="#EEF3F8"/>
<path fill-rule="evenodd" clip-rule="evenodd" d="M101.248 115.325C99.1818 116.663 89.8287 130.364 84.6532 136.886L79.5887 132.944C78.9857 132.376 77.6219 130.546 76.7087 131.958L75.352 134.552C74.4337 135.964 75.8297 137.925 76.7547 138.479L85.0338 145.952C85.9613 146.504 87.4515 145.81 88.3673 144.396L89.1457 143.194L89.1482 143.192L103.076 117.014C103.99 115.597 106.149 112.414 101.248 115.325Z" fill="#AEC3DB"/>
<path fill-rule="evenodd" clip-rule="evenodd" d="M72.7503 114.639C71.3635 114.81 70.3736 116.077 70.544 117.464L74.3335 148.327C74.5039 149.714 75.7706 150.704 77.1574 150.533L108.021 146.744C109.408 146.573 110.397 145.307 110.227 143.92L106.438 113.057C106.267 111.669 105.001 110.68 103.614 110.85L72.7503 114.639ZM108.437 150.135L77.5741 153.924C74.3172 154.324 71.3425 152 70.9427 148.743L67.1532 117.88C66.7533 114.624 69.0772 111.648 72.3341 111.249L103.197 107.459C106.454 107.059 109.429 109.384 109.829 112.64L113.618 143.503C114.018 146.76 111.694 149.735 108.437 150.135Z" fill="#DAE3E8"/>
<path fill-rule="evenodd" clip-rule="evenodd" d="M182.401 167.656L181.382 161.978H181.383L181.456 162.386L181.456 162.389L182.402 167.656H182.401Z" fill="#E7EDF0"/>
<path fill-rule="evenodd" clip-rule="evenodd" d="M183.613 174.408L183.413 173.292H183.413L183.614 174.405L183.613 174.408Z" fill="#E7EDF0"/>
<path fill-rule="evenodd" clip-rule="evenodd" d="M188.543 175.162L188.569 175.107L188.571 175.108L188.543 175.162Z" fill="#BFC4C7"/>
<path fill-rule="evenodd" clip-rule="evenodd" d="M183.659 174.638C183.657 174.638 183.656 174.638 183.655 174.638L183.616 174.42L183.659 174.637V174.638Z" fill="#E3EAEE"/>
<path fill-rule="evenodd" clip-rule="evenodd" d="M133.858 185.181L130.818 182.234L130.808 182.16L133.918 185.174L133.858 185.181Z" fill="#A9B0B4"/>
<path fill-rule="evenodd" clip-rule="evenodd" d="M127.621 129.043C127.48 127.129 127.182 125.223 126.728 123.349L128.188 123.17C128.771 125.02 129.196 126.909 129.465 128.817L127.621 129.043Z" fill="#A9B0B4"/>
<path fill-rule="evenodd" clip-rule="evenodd" d="M126.519 140.743C127.042 138.793 127.393 136.808 127.573 134.81L129.8 134.536C129.755 136.507 129.545 138.475 129.17 140.418L126.519 140.743Z" fill="#A9B0B4"/>
<path fill-rule="evenodd" clip-rule="evenodd" d="M124.869 117.773C124.151 116.103 123.296 114.475 122.306 112.911L122.23 112.293L122.475 112.263C123.8 113.971 124.947 115.773 125.913 117.645L124.869 117.773Z" fill="#6CA19D"/>
<path fill-rule="evenodd" clip-rule="evenodd" d="M171.073 207.548C174.837 203.664 174.98 197.695 171.392 194.217L138.859 162.684C135.27 159.205 129.309 159.534 125.545 163.419C121.779 167.302 121.638 173.271 125.226 176.749L157.758 208.283C161.348 211.76 167.308 211.432 171.073 207.548Z" fill="#AEC3DB"/>
<path fill-rule="evenodd" clip-rule="evenodd" d="M126.71 178.189L125.225 176.749C123.488 175.066 122.624 172.795 122.624 170.462C122.624 169.261 122.853 168.042 123.31 166.878C121.969 170.304 122.593 174.197 125.226 176.749L126.707 178.184C126.708 178.186 126.709 178.187 126.71 178.189Z" fill="#EDEDED"/>
<path fill-rule="evenodd" clip-rule="evenodd" d="M133.918 185.174L130.808 182.16V182.159L133.919 185.174H133.918Z" fill="#9DA4A7"/>
<path fill-rule="evenodd" clip-rule="evenodd" d="M163.83 210.691C162.565 210.691 161.319 210.436 160.173 209.921L160.175 209.92C161.321 210.435 162.567 210.69 163.83 210.69C165.229 210.69 166.648 210.378 167.978 209.759C166.649 210.378 165.229 210.691 163.83 210.691Z" fill="#9DA4A7"/>
<path fill-rule="evenodd" clip-rule="evenodd" d="M154.214 204.848L148.9 199.697H148.902L154.216 204.848L154.214 204.848Z" fill="#649692"/>
<path fill-rule="evenodd" clip-rule="evenodd" d="M123.312 166.878C123.438 166.556 123.581 166.238 123.742 165.926C123.581 166.238 123.438 166.556 123.312 166.878Z" fill="#B8B8B8"/>
<path fill-rule="evenodd" clip-rule="evenodd" d="M163.828 210.69C162.565 210.69 161.319 210.435 160.173 209.92C159.297 209.527 158.479 208.982 157.758 208.283L125.226 176.749C122.593 174.197 121.969 170.304 123.309 166.878C123.436 166.556 123.579 166.238 123.74 165.926C124.2 165.033 124.802 164.186 125.545 163.419L171.072 207.547C170.15 208.499 169.095 209.238 167.976 209.759C166.647 210.378 165.227 210.69 163.828 210.69Z" fill="#9AB2CE"/>
<path fill-rule="evenodd" clip-rule="evenodd" d="M128.218 161.416C127.258 161.919 126.351 162.587 125.547 163.419C124.558 164.439 123.817 165.606 123.331 166.835L112.914 156.736C113.917 155.905 114.882 155.013 115.813 154.065C116.603 153.259 117.352 152.425 118.056 151.569L128.218 161.416Z" fill="#2C4761"/>
<path fill-rule="evenodd" clip-rule="evenodd" d="M71.9093 111.311C83.135 99.85 101.521 99.6624 112.98 110.886C124.439 122.107 124.627 140.497 113.404 151.956C102.181 163.417 83.7928 163.603 72.333 152.381C60.8741 141.159 60.6857 122.773 71.9093 111.311ZM68.1257 156.679C81.9546 170.228 104.158 170 117.707 156.168C131.252 142.337 131.024 120.138 117.188 106.589C103.36 93.0398 81.1594 93.268 67.6102 107.102C54.0639 120.933 54.2972 143.13 68.1257 156.679Z" fill="#32526F"/>
<path fill-rule="evenodd" clip-rule="evenodd" d="M64.2887 129.976C63.44 145.734 75.5643 159.244 91.3214 160.093C107.082 160.941 120.592 148.813 121.441 133.054C122.29 117.3 110.16 103.788 94.4003 102.939C78.6436 102.09 65.1371 114.221 64.2887 129.976ZM62.881 129.9C63.7704 113.369 77.9477 100.646 94.4757 101.536C111.007 102.426 123.73 116.599 122.839 133.13C121.948 149.661 107.777 162.385 91.2469 161.494C74.7188 160.604 61.9899 146.432 62.881 129.9Z" fill="#414042"/>
<path fill-rule="evenodd" clip-rule="evenodd" d="M91.3642 160.096C91.35 160.095 91.3349 160.094 91.3206 160.093C84.9346 159.749 79.1461 157.326 74.5753 153.516C75.28 153.809 76.048 153.969 76.844 153.969C77.0851 153.969 77.3284 153.954 77.5738 153.924L108.437 150.135C111.693 149.735 114.018 146.76 113.618 143.503L109.999 114.033L112.914 111.118C111.882 110.102 110.773 109.162 109.595 108.31L108.426 109.479C107.322 108.203 105.693 107.414 103.926 107.414C103.686 107.414 103.442 107.429 103.197 107.459L99.8208 107.874L102.958 104.736C100.438 103.785 97.7452 103.176 94.9309 102.973C109.91 104.055 121.48 116.592 121.482 131.493C121.482 132.01 121.468 132.531 121.44 133.054C120.878 143.486 114.77 152.327 106.131 156.866C106.129 156.867 106.126 156.868 106.124 156.869C106.101 156.882 106.077 156.894 106.054 156.906C104.521 157.706 102.911 158.369 101.237 158.883L91.3642 160.096ZM76.8465 150.552C75.9521 150.552 75.1406 150.078 74.6888 149.344L81.3792 142.653L85.0339 145.951C85.2499 146.08 85.4966 146.141 85.7595 146.141C86.6246 146.141 87.6651 145.48 88.3674 144.396L89.1458 143.194L89.1483 143.192L98.5927 125.44L106.934 117.099L110.227 143.92C110.397 145.307 109.408 146.573 108.02 146.744L77.1572 150.533C77.0529 150.546 76.9491 150.552 76.8465 150.552ZM71.413 150.441C67.4812 145.984 64.9236 140.311 64.3625 134.117C64.2855 133.266 64.2461 132.406 64.2461 131.538C64.2461 131.02 64.2599 130.499 64.288 129.976C64.5053 125.939 65.5538 122.14 67.258 118.736L68.3362 127.519L64.2478 131.607C64.2566 135.113 64.9056 138.486 66.0877 141.609L69.6314 138.066L70.7477 147.157L69.6602 148.244C70.2088 149.004 70.7929 149.735 71.4114 150.437C71.4118 150.439 71.4126 150.44 71.413 150.441ZM73.8132 144.091L72.6969 135L95.8973 111.797L103.613 110.85C103.718 110.837 103.821 110.831 103.924 110.831C104.764 110.831 105.531 111.25 105.996 111.909L103.746 114.158C103.276 114.242 102.488 114.589 101.248 115.325C100.329 115.92 97.9654 118.964 95.1696 122.735L82.6098 135.295L79.5887 132.944C79.147 132.528 78.2969 131.435 77.5148 131.435C77.2292 131.435 76.9528 131.58 76.7087 131.958L75.352 134.552C74.4338 135.964 75.8298 137.925 76.7548 138.479L78.1588 139.746L73.8132 144.091ZM71.4017 124.453L70.5438 117.464C70.3733 116.077 71.3632 114.81 72.75 114.639L82.4001 113.454L71.4017 124.453ZM72.7245 111.201C77.9222 106.052 85.0586 102.897 92.8427 102.897C93.3586 102.897 93.8782 102.911 94.3996 102.939C93.9163 102.913 93.4356 102.899 92.957 102.898L86.324 109.531L72.7245 111.201ZM94.8844 102.969C94.8681 102.968 94.8514 102.967 94.8346 102.966C94.8509 102.967 94.8681 102.968 94.8844 102.969Z" fill="#E4F2F3"/>
<path fill-rule="evenodd" clip-rule="evenodd" d="M85.7595 146.141C85.4965 146.141 85.2499 146.08 85.0338 145.951L81.3792 142.653L98.5927 125.44L89.1482 143.192L89.1457 143.194L88.3673 144.396C87.6651 145.48 86.6246 146.141 85.7595 146.141ZM78.1587 139.746L76.7547 138.479C75.8297 137.925 74.4337 135.963 75.352 134.552L76.7087 131.958C76.9528 131.58 77.2291 131.435 77.5147 131.435C78.2969 131.435 79.1469 132.528 79.5887 132.944L82.6098 135.295L78.1587 139.746ZM95.1695 122.735C97.9654 118.964 100.329 115.92 101.248 115.325C102.488 114.589 103.276 114.242 103.746 114.158L95.1695 122.735Z" fill="#AEC3DB"/>
<path fill-rule="evenodd" clip-rule="evenodd" d="M76.8438 153.969C76.0478 153.969 75.2798 153.809 74.5751 153.516C73.4433 152.572 72.3856 151.544 71.4129 150.441C71.4124 150.44 71.4112 150.439 71.4112 150.437C71.7516 150.824 72.1025 151.201 72.4634 151.569L74.6886 149.344C75.1404 150.078 75.9519 150.552 76.8463 150.553C76.9489 150.553 77.0527 150.546 77.157 150.533L108.02 146.744C109.407 146.573 110.397 145.307 110.227 143.92L106.934 117.099L109.999 114.033L113.618 143.503C114.018 146.76 111.693 149.735 108.437 150.135L77.5736 153.924C77.3282 153.954 77.0849 153.969 76.8438 153.969ZM70.7475 147.157L69.6312 138.066L72.6967 135L73.813 144.092L70.7475 147.157ZM68.336 127.519L67.2578 118.736C68.6652 115.925 70.5205 113.384 72.7243 111.201L86.3238 109.531L82.3999 113.454L72.7499 114.639C71.363 114.81 70.3732 116.077 70.5436 117.464L71.4015 124.453L68.336 127.519ZM105.996 111.909C105.531 111.25 104.764 110.831 103.924 110.831C103.821 110.831 103.717 110.837 103.613 110.85L95.8972 111.798L99.8206 107.874L103.197 107.459C103.442 107.429 103.685 107.414 103.926 107.414C105.693 107.414 107.321 108.203 108.426 109.479L105.996 111.909Z" fill="#C3D7DD"/>
<path fill-rule="evenodd" clip-rule="evenodd" d="M92.8757 160.135C92.3749 160.135 91.8691 160.122 91.3633 160.096L101.236 158.883C98.5838 159.697 95.7742 160.135 92.8757 160.135Z" fill="#C3D7DD"/>
<path fill-rule="evenodd" clip-rule="evenodd" d="M106.054 156.906C106.077 156.894 106.101 156.881 106.124 156.869C106.101 156.881 106.077 156.894 106.054 156.906ZM106.131 156.866C114.77 152.327 120.878 143.486 121.44 133.054C121.468 132.531 121.482 132.01 121.482 131.493C121.482 132.01 121.468 132.531 121.44 133.054C120.878 143.486 114.77 152.327 106.131 156.866ZM64.3625 134.116C64.2855 133.266 64.2461 132.406 64.2461 131.538C64.2461 132.406 64.2855 133.266 64.3625 134.116Z" fill="#3A3D3F"/>
<path fill-rule="evenodd" clip-rule="evenodd" d="M94.5807 102.949C94.5669 102.948 94.5536 102.948 94.5398 102.947C94.5536 102.948 94.5669 102.948 94.5807 102.949Z" fill="#949394"/>
<path fill-rule="evenodd" clip-rule="evenodd" d="M66.0879 141.609C64.9059 138.486 64.2568 135.113 64.248 131.607L68.3365 127.519L69.6316 138.066L66.0879 141.609ZM72.6971 135L71.402 124.453L82.4003 113.455L95.8976 111.798L72.6971 135ZM86.3242 109.531L92.9573 102.898C93.4359 102.9 93.9166 102.913 94.3998 102.939C94.4145 102.94 94.4275 102.941 94.4417 102.941C94.4459 102.942 94.4497 102.942 94.4534 102.942C94.4643 102.943 94.4752 102.944 94.4861 102.944C94.4894 102.944 94.4928 102.944 94.4966 102.944C94.51 102.945 94.5217 102.946 94.5351 102.947C94.5363 102.947 94.5376 102.947 94.5393 102.947C94.5535 102.948 94.5673 102.949 94.5816 102.949C94.5845 102.95 94.5878 102.95 94.5908 102.95C94.6025 102.951 94.6121 102.952 94.6239 102.952C94.628 102.952 94.6322 102.953 94.6364 102.953C94.6473 102.954 94.6582 102.954 94.6687 102.955C94.672 102.955 94.6758 102.955 94.6791 102.956C94.6925 102.957 94.7055 102.957 94.7189 102.958C94.7239 102.959 94.729 102.959 94.734 102.959C94.7428 102.96 94.7516 102.96 94.7599 102.961C94.7662 102.961 94.7721 102.962 94.7779 102.962C94.7855 102.962 94.7926 102.963 94.8006 102.964C94.8073 102.964 94.814 102.965 94.8207 102.965C94.8257 102.965 94.8303 102.966 94.8349 102.966C94.8516 102.967 94.8684 102.968 94.8847 102.97C94.8885 102.97 94.8906 102.97 94.8944 102.97C94.904 102.971 94.9136 102.972 94.9237 102.972C94.9266 102.972 94.9283 102.972 94.9312 102.973C97.7455 103.176 100.438 103.785 102.958 104.737L99.8211 107.874L86.3242 109.531Z" fill="#F0F8F8"/>
<path fill-rule="evenodd" clip-rule="evenodd" d="M69.6313 138.066L68.3362 127.519L71.4017 124.453L72.6968 135L69.6313 138.066ZM82.4 113.454L86.3239 109.531L99.8208 107.874L95.8973 111.797L82.4 113.454Z" fill="#DDE8EC"/>
<path fill-rule="evenodd" clip-rule="evenodd" d="M71.4105 150.437C70.7921 149.735 70.208 149.004 69.6594 148.244L70.7469 147.157L70.9416 148.743C71.0153 149.344 71.1765 149.912 71.4105 150.437ZM74.6879 149.344C74.5029 149.043 74.3781 148.699 74.3324 148.327L73.8124 144.091L78.1579 139.746L81.3784 142.653L74.6879 149.344ZM84.6524 136.886L82.609 135.295L95.1688 122.735C91.6829 127.436 87.5245 133.266 84.6524 136.886ZM98.5919 125.44L103.075 117.014C103.72 116.014 104.983 114.138 103.955 114.138C103.893 114.138 103.824 114.144 103.746 114.158L105.995 111.909C106.227 112.239 106.384 112.629 106.437 113.057L106.933 117.099L98.5919 125.44ZM109.998 114.033L109.828 112.64C109.679 111.426 109.171 110.341 108.425 109.479L109.594 108.31C110.772 109.162 111.881 110.102 112.914 111.118L109.998 114.033Z" fill="#F0F8F8"/>
<path fill-rule="evenodd" clip-rule="evenodd" d="M81.3786 142.653L78.1582 139.746L82.6093 135.295L84.6527 136.886C87.5247 133.266 91.6831 127.436 95.169 122.735L103.746 114.158C103.824 114.144 103.894 114.138 103.955 114.138C104.983 114.138 103.72 116.014 103.075 117.014L98.5921 125.44L81.3786 142.653Z" fill="#AEC3DB"/>
<path fill-rule="evenodd" clip-rule="evenodd" d="M72.464 151.569C72.1031 151.201 71.7522 150.824 71.4117 150.437C71.1777 149.912 71.0165 149.344 70.9428 148.743L70.748 147.157L73.8136 144.091L74.3336 148.327C74.3793 148.699 74.504 149.043 74.6891 149.344L72.464 151.569ZM106.934 117.099L106.438 113.057C106.385 112.629 106.229 112.239 105.996 111.909L108.426 109.479C109.173 110.341 109.68 111.426 109.829 112.64L110 114.033L106.934 117.099Z" fill="#DDE8EC"/>
<path d="M83.6229 359.597V361.829H79.1829V376.277H76.4469V361.829H71.9829V359.597H83.6229ZM87.7858 361.301C87.2898 361.301 86.8738 361.133 86.5378 360.797C86.2018 360.461 86.0338 360.045 86.0338 359.549C86.0338 359.053 86.2018 358.637 86.5378 358.301C86.8738 357.965 87.2898 357.797 87.7858 357.797C88.2658 357.797 88.6738 357.965 89.0098 358.301C89.3458 358.637 89.5138 359.053 89.5138 359.549C89.5138 360.045 89.3458 360.461 89.0098 360.797C88.6738 361.133 88.2658 361.301 87.7858 361.301ZM89.1298 363.053V376.277H86.3938V363.053H89.1298ZM91.8099 369.605C91.8099 368.277 92.0819 367.101 92.6259 366.077C93.1859 365.053 93.9379 364.261 94.8819 363.701C95.8419 363.125 96.9059 362.837 98.0739 362.837C98.9379 362.837 99.7859 363.029 100.618 363.413C101.466 363.781 102.138 364.277 102.634 364.901V358.517H105.394V376.277H102.634V374.285C102.186 374.925 101.562 375.453 100.762 375.869C99.9779 376.285 99.0739 376.493 98.0499 376.493C96.8979 376.493 95.8419 376.205 94.8819 375.629C93.9379 375.037 93.1859 374.221 92.6259 373.181C92.0819 372.125 91.8099 370.933 91.8099 369.605ZM102.634 369.653C102.634 368.741 102.442 367.949 102.058 367.277C101.69 366.605 101.202 366.093 100.594 365.741C99.9859 365.389 99.3299 365.213 98.6259 365.213C97.9219 365.213 97.2659 365.389 96.6579 365.741C96.0499 366.077 95.5539 366.581 95.1699 367.253C94.8019 367.909 94.6179 368.693 94.6179 369.605C94.6179 370.517 94.8019 371.317 95.1699 372.005C95.5539 372.693 96.0499 373.221 96.6579 373.589C97.2819 373.941 97.9379 374.117 98.6259 374.117C99.3299 374.117 99.9859 373.941 100.594 373.589C101.202 373.237 101.69 372.725 102.058 372.053C102.442 371.365 102.634 370.565 102.634 369.653ZM108.076 369.605C108.076 368.277 108.348 367.101 108.892 366.077C109.452 365.053 110.204 364.261 111.148 363.701C112.108 363.125 113.164 362.837 114.316 362.837C115.356 362.837 116.26 363.045 117.028 363.461C117.812 363.861 118.436 364.365 118.9 364.973V363.053H121.66V376.277H118.9V374.309C118.436 374.933 117.804 375.453 117.004 375.869C116.204 376.285 115.292 376.493 114.268 376.493C113.132 376.493 112.092 376.205 111.148 375.629C110.204 375.037 109.452 374.221 108.892 373.181C108.348 372.125 108.076 370.933 108.076 369.605ZM118.9 369.653C118.9 368.741 118.708 367.949 118.324 367.277C117.956 366.605 117.468 366.093 116.86 365.741C116.252 365.389 115.596 365.213 114.892 365.213C114.188 365.213 113.532 365.389 112.924 365.741C112.316 366.077 111.82 366.581 111.436 367.253C111.068 367.909 110.884 368.693 110.884 369.605C110.884 370.517 111.068 371.317 111.436 372.005C111.82 372.693 112.316 373.221 112.924 373.589C113.548 373.941 114.204 374.117 114.892 374.117C115.596 374.117 116.252 373.941 116.86 373.589C117.468 373.237 117.956 372.725 118.324 372.053C118.708 371.365 118.9 370.565 118.9 369.653ZM130.485 369.677L136.581 376.277H132.885L127.989 370.589V376.277H125.253V358.517H127.989V368.837L132.789 363.053H136.581L130.485 369.677ZM154.833 372.869H147.849L146.649 376.277H143.793L149.769 359.573H152.937L158.913 376.277H156.033L154.833 372.869ZM154.065 370.637L151.353 362.885L148.617 370.637H154.065ZM160.599 369.605C160.599 368.277 160.871 367.101 161.415 366.077C161.975 365.053 162.727 364.261 163.671 363.701C164.631 363.125 165.695 362.837 166.863 362.837C167.727 362.837 168.575 363.029 169.407 363.413C170.255 363.781 170.927 364.277 171.423 364.901V358.517H174.183V376.277H171.423V374.285C170.975 374.925 170.351 375.453 169.551 375.869C168.767 376.285 167.863 376.493 166.839 376.493C165.687 376.493 164.631 376.205 163.671 375.629C162.727 375.037 161.975 374.221 161.415 373.181C160.871 372.125 160.599 370.933 160.599 369.605ZM171.423 369.653C171.423 368.741 171.231 367.949 170.847 367.277C170.479 366.605 169.991 366.093 169.383 365.741C168.775 365.389 168.119 365.213 167.415 365.213C166.711 365.213 166.055 365.389 165.447 365.741C164.839 366.077 164.343 366.581 163.959 367.253C163.591 367.909 163.407 368.693 163.407 369.605C163.407 370.517 163.591 371.317 163.959 372.005C164.343 372.693 164.839 373.221 165.447 373.589C166.071 373.941 166.727 374.117 167.415 374.117C168.119 374.117 168.775 373.941 169.383 373.589C169.991 373.237 170.479 372.725 170.847 372.053C171.231 371.365 171.423 370.565 171.423 369.653ZM176.865 369.605C176.865 368.277 177.137 367.101 177.681 366.077C178.241 365.053 178.993 364.261 179.937 363.701C180.897 363.125 181.953 362.837 183.105 362.837C184.145 362.837 185.049 363.045 185.817 363.461C186.601 363.861 187.225 364.365 187.689 364.973V363.053H190.449V376.277H187.689V374.309C187.225 374.933 186.593 375.453 185.793 375.869C184.993 376.285 184.081 376.493 183.057 376.493C181.921 376.493 180.881 376.205 179.937 375.629C178.993 375.037 178.241 374.221 177.681 373.181C177.137 372.125 176.865 370.933 176.865 369.605ZM187.689 369.653C187.689 368.741 187.497 367.949 187.113 367.277C186.745 366.605 186.257 366.093 185.649 365.741C185.041 365.389 184.385 365.213 183.681 365.213C182.977 365.213 182.321 365.389 181.713 365.741C181.105 366.077 180.609 366.581 180.225 367.253C179.857 367.909 179.673 368.693 179.673 369.605C179.673 370.517 179.857 371.317 180.225 372.005C180.609 372.693 181.105 373.221 181.713 373.589C182.337 373.941 182.993 374.117 183.681 374.117C184.385 374.117 185.041 373.941 185.649 373.589C186.257 373.237 186.745 372.725 187.113 372.053C187.497 371.365 187.689 370.565 187.689 369.653ZM205.725 359.597C207.501 359.597 209.053 359.941 210.381 360.629C211.725 361.301 212.757 362.277 213.477 363.557C214.213 364.821 214.581 366.301 214.581 367.997C214.581 369.693 214.213 371.165 213.477 372.413C212.757 373.661 211.725 374.621 210.381 375.293C209.053 375.949 207.501 376.277 205.725 376.277H200.277V359.597H205.725ZM205.725 374.045C207.677 374.045 209.173 373.517 210.213 372.461C211.253 371.405 211.773 369.917 211.773 367.997C211.773 366.061 211.253 364.549 210.213 363.461C209.173 362.373 207.677 361.829 205.725 361.829H203.013V374.045H205.725ZM216.38 369.605C216.38 368.277 216.652 367.101 217.196 366.077C217.756 365.053 218.508 364.261 219.452 363.701C220.412 363.125 221.468 362.837 222.62 362.837C223.66 362.837 224.564 363.045 225.332 363.461C226.116 363.861 226.74 364.365 227.204 364.973V363.053H229.964V376.277H227.204V374.309C226.74 374.933 226.108 375.453 225.308 375.869C224.508 376.285 223.596 376.493 222.572 376.493C221.436 376.493 220.396 376.205 219.452 375.629C218.508 375.037 217.756 374.221 217.196 373.181C216.652 372.125 216.38 370.933 216.38 369.605ZM227.204 369.653C227.204 368.741 227.012 367.949 226.628 367.277C226.26 366.605 225.772 366.093 225.164 365.741C224.556 365.389 223.9 365.213 223.196 365.213C222.492 365.213 221.836 365.389 221.228 365.741C220.62 366.077 220.124 366.581 219.74 367.253C219.372 367.909 219.188 368.693 219.188 369.605C219.188 370.517 219.372 371.317 219.74 372.005C220.124 372.693 220.62 373.221 221.228 373.589C221.852 373.941 222.508 374.117 223.196 374.117C223.9 374.117 224.556 373.941 225.164 373.589C225.772 373.237 226.26 372.725 226.628 372.053C227.012 371.365 227.204 370.565 227.204 369.653ZM236.75 365.285V372.605C236.75 373.101 236.862 373.461 237.086 373.685C237.326 373.893 237.726 373.997 238.286 373.997H239.966V376.277H237.806C236.574 376.277 235.63 375.989 234.974 375.413C234.318 374.837 233.99 373.901 233.99 372.605V365.285H232.43V363.053H233.99V359.765H236.75V363.053H239.966V365.285H236.75ZM241.576 369.605C241.576 368.277 241.848 367.101 242.392 366.077C242.952 365.053 243.704 364.261 244.648 363.701C245.608 363.125 246.664 362.837 247.816 362.837C248.856 362.837 249.76 363.045 250.528 363.461C251.312 363.861 251.936 364.365 252.4 364.973V363.053H255.16V376.277H252.4V374.309C251.936 374.933 251.304 375.453 250.504 375.869C249.704 376.285 248.792 376.493 247.768 376.493C246.632 376.493 245.592 376.205 244.648 375.629C243.704 375.037 242.952 374.221 242.392 373.181C241.848 372.125 241.576 370.933 241.576 369.605ZM252.4 369.653C252.4 368.741 252.208 367.949 251.824 367.277C251.456 366.605 250.968 366.093 250.36 365.741C249.752 365.389 249.096 365.213 248.392 365.213C247.688 365.213 247.032 365.389 246.424 365.741C245.816 366.077 245.32 366.581 244.936 367.253C244.568 367.909 244.384 368.693 244.384 369.605C244.384 370.517 244.568 371.317 244.936 372.005C245.32 372.693 245.816 373.221 246.424 373.589C247.048 373.941 247.704 374.117 248.392 374.117C249.096 374.117 249.752 373.941 250.36 373.589C250.968 373.237 251.456 372.725 251.824 372.053C252.208 371.365 252.4 370.565 252.4 369.653Z" fill="#343434"/>
</g>
<defs>
<clipPath id="clip0_1107_14351">
<rect width="327" height="386.277" fill="white"/>
</clipPath>
</defs>
</svg>
