<svg width="64" height="64" viewBox="0 0 64 64" fill="none" xmlns="http://www.w3.org/2000/svg">
<rect width="64" height="64" fill="white"/>
<path fill-rule="evenodd" clip-rule="evenodd" d="M58.8717 29.306L35.3517 7.90841C34.0235 6.6972 31.9791 6.6972 30.6501 7.90841L7.13014 29.306C5.71043 30.5952 5.61891 32.7964 6.90891 34.2161C7.59807 34.9578 8.54906 35.3485 9.48652 35.3485C10.3333 35.3485 11.18 35.0493 11.8437 34.4373L32.9946 15.1757L54.1574 34.4373C55.5771 35.7265 57.791 35.635 59.0802 34.2161C60.3829 32.7964 60.2914 30.5952 58.8717 29.306Z" fill="#E57E34"/>
<path fill-rule="evenodd" clip-rule="evenodd" d="M14.394 35.3096V54.0328C14.4075 54.8532 14.9415 55.3745 15.3839 55.622C15.8399 55.8822 16.3349 56 16.8689 56H49.1801C49.7133 56 50.2091 55.8822 50.6643 55.622C51.1068 55.3745 51.628 54.8532 51.6551 54.0328V35.3096L33.0182 18.3661L14.394 35.3096ZM25 44H41V35H25V44Z" fill="#CA651B"/>
<path fill-rule="evenodd" clip-rule="evenodd" d="M14.394 35.3096V49.5328C14.4075 50.3532 14.9415 50.8745 15.3839 51.122C15.8399 51.3822 16.3349 51.5 16.8689 51.5H49.1801C49.7133 51.5 50.2091 51.3822 50.6643 51.122C51.1068 50.8745 51.628 50.3532 51.6551 49.5328V35.3096L33.0182 18.3661L14.394 35.3096ZM25 44H41V35H25V44Z" fill="#E57E34"/>
<path d="M25.167 10.2394H11.7402V23.1847L25.167 10.2394Z" fill="#F29858"/>
</svg>
