<svg width="64" height="64" viewBox="0 0 64 64" fill="none" xmlns="http://www.w3.org/2000/svg">
<rect width="64" height="64" fill="white"/>
<path fill-rule="evenodd" clip-rule="evenodd" d="M57.2014 32.7333L50.1799 32.1221V18.3711H46.4679C42.8941 11.5828 36.1101 7 28.3231 7C16.8227 7 7.49949 17.0031 7.49949 29.3391C7.49949 30.2468 7.55331 31.1415 7.65175 32.018L5 36H58.8671C58.8671 36 59.6987 34.9336 57.2014 32.7333Z" fill="#F29858"/>
<path fill-rule="evenodd" clip-rule="evenodd" d="M9 39H47V36H9V39Z" fill="#E57E34"/>
<path fill-rule="evenodd" clip-rule="evenodd" d="M35.651 39L30.2018 43.4643H25.7998L20.3509 39H16L25.5672 47.0363V56H30.4328V47.0363L40 39H35.651Z" fill="#CA651B"/>
<path fill-rule="evenodd" clip-rule="evenodd" d="M27 51H25V57H31V51H29V55H27V51Z" fill="#F2B284"/>
<path fill-rule="evenodd" clip-rule="evenodd" d="M57.2014 32.7333L50.1799 32.1221V29.3573C49.9811 29.6954 49.7532 30.0153 49.4816 30.2962C47.8862 31.9504 45.5974 32.2339 43.5002 32.481C41.4539 32.7229 39.0511 33.3497 37.1042 32.3327C32.8297 30.1038 37.737 22.9981 32.8175 21.5C31.8477 21.2061 29.4634 21.1411 26.2547 21.3309C24.5321 21.435 22.5791 21.7419 21.4822 23.3492C20.3402 25.0216 20.3419 27.3 20.3667 29.2819C20.379 30.2312 20.6319 32.7801 19.3333 32.9778C17.7176 33.2248 14.6406 32.1533 14.0371 30.6057C13.2474 28.5874 13.5124 26.1998 13.9758 24.1269C14.4473 22.0254 15.1652 19.9004 16.2211 18.046C17.6048 15.6142 19.4422 13.4658 21.5307 11.7076C23.9599 9.66331 26.7634 8.02994 29.7354 7.05201C29.2704 7.01819 28.7976 7 28.3231 7C16.8227 7 7.49949 17.0031 7.49949 29.3391C7.49949 30.2468 7.55331 31.1415 7.65175 32.018L5 36H58.8671C58.8671 36 59.6987 34.9336 57.2014 32.7333Z" fill="#E57E34"/>
</svg>
