<svg width="64" height="64" viewBox="0 0 64 64" fill="none" xmlns="http://www.w3.org/2000/svg">
<rect width="64" height="64" fill="white"/>
<path d="M46.4194 40.7649L39.5491 39.3914C38.8169 39.2469 38.2857 38.5994 38.2857 37.8546V36.2769C38.7383 35.6483 39.1594 34.806 39.6026 33.9291C39.9389 33.266 40.4449 32.2634 40.6711 32.0309C42.0037 30.7266 43.4243 29.1111 43.858 26.9991C44.254 25.0883 43.8611 24.0951 43.4023 23.3094C43.4023 21.7726 43.4023 18.9566 42.868 16.9326C42.8114 14.4811 42.3651 13.0983 41.2337 11.8726C40.4354 11.0083 39.26 10.8103 38.3171 10.65C37.9431 10.5871 37.4309 10.5023 37.2517 10.4017C35.6237 9.49657 33.9674 9.05029 31.9403 9C27.7917 9.15714 22.7003 11.7877 20.9969 16.5177C20.4783 17.954 20.5286 20.3111 20.5663 22.2063L20.5223 23.3094C20.1231 24.0951 19.7303 25.0883 20.1263 26.996C20.56 29.1143 21.9806 30.7297 23.3069 32.0277C23.5363 32.2666 24.0486 33.2723 24.388 33.9354C24.8343 34.8091 25.2617 35.6483 25.7143 36.2769V37.8546C25.7143 38.5994 25.1831 39.2469 24.454 39.3946L17.5806 40.768C13.1869 41.648 10 45.5357 10 50.0143V53C10 54.7349 11.4111 56.1429 13.1429 56.1429H50.8571C52.592 56.1429 54 54.7349 54 53V50.0143C54 45.5357 50.81 41.648 46.4194 40.7649Z" fill="#CA651B"/>
<path d="M46.4194 40.7649L39.5491 39.3914C38.8169 39.2469 38.2857 38.5994 38.2857 37.8546V36.2769C38.7383 35.6483 39.1594 34.806 39.6026 33.9291C39.9389 33.266 40.4449 32.2634 40.6711 32.0309C42.0037 30.7266 43.4243 29.1111 43.858 26.9991C44.254 25.0883 43.8611 24.0951 43.4023 23.3094C43.4023 21.7726 43.4023 18.9566 42.868 16.9326C42.8114 14.4811 42.3651 13.0983 41.2337 11.8726C40.4354 11.0083 39.26 10.8103 38.3171 10.65C37.9431 10.5871 37.4309 10.5023 37.2517 10.4017C35.6237 9.49657 33.9674 9.05029 31.9403 9C27.7917 9.15714 22.7003 11.7877 20.9969 16.5177C20.4783 17.954 20.5286 20.3111 20.5663 22.2063L20.5223 23.3094C20.1231 24.0951 19.7303 25.0883 20.1263 26.996C20.56 29.1143 21.9806 30.7297 23.3069 32.0277C23.5363 32.2666 24.0486 33.2723 24.388 33.9354C24.8343 34.8091 25.2617 35.6483 25.7143 36.2769V37.8546C25.7143 38.5994 25.1831 39.2469 24.454 39.3946L17.5806 40.768C13.1869 41.648 10 45.5357 10 50.0143V50C10 51.7349 11.4111 51.5 13.1429 51.5H50.8571C52.592 51.5 54 51.7349 54 50V50.0143C54 45.5357 50.81 41.648 46.4194 40.7649Z" fill="#E57E34"/>
<path d="M12.5 7H6.5C5.672 7 5 7.672 5 8.5V17.5C5 18.328 5.672 19 6.5 19C7.328 19 8 18.328 8 17.5V10H12.5C13.328 10 14 9.328 14 8.5C14 7.672 13.328 7 12.5 7Z" fill="#F29858"/>
<path d="M10.8333 7H6.16667C5.52267 7 5 7.672 5 8.5V17.5C5 18.328 5.52267 19 6.16667 19C6.81067 19 7.33333 18.328 7.33333 17.5V10H10.8333C11.4773 10 12 9.328 12 8.5C12 7.672 11.4773 7 10.8333 7Z" fill="#F2B284"/>
<path d="M12.5 34.9999H8V27.4999C8 26.6719 7.328 25.9999 6.5 25.9999C5.672 25.9999 5 26.6719 5 27.4999V36.4999C5 37.3279 5.672 37.9999 6.5 37.9999H12.5C13.328 37.9999 14 37.3279 14 36.4999C14 35.6719 13.328 34.9999 12.5 34.9999Z" fill="#F29858"/>
<path d="M10.8333 34.9999H7.33333V27.4999C7.33333 26.6719 6.81067 25.9999 6.16667 25.9999C5.52267 25.9999 5 26.6719 5 27.4999V36.4999C5 37.3279 5.52267 37.9999 6.16667 37.9999H10.8333C11.4773 37.9999 12 37.3279 12 36.4999C12 35.6719 11.4773 34.9999 10.8333 34.9999Z" fill="#F2B284"/>
<path d="M57.5 7H51.5C50.672 7 50 7.672 50 8.5C50 9.328 50.672 10 51.5 10H56V17.5C56 18.328 56.672 19 57.5 19C58.328 19 59 18.328 59 17.5V8.5C59 7.672 58.328 7 57.5 7Z" fill="#F29858"/>
<path d="M57.8333 7H53.1667C52.5227 7 52 7.672 52 8.5C52 9.328 52.5227 10 53.1667 10H56.6667V17.5C56.6667 18.328 57.1893 19 57.8333 19C58.4773 19 59 18.328 59 17.5V8.5C59 7.672 58.4773 7 57.8333 7Z" fill="#F2B284"/>
<path d="M57.5 25.9999C56.672 25.9999 56 26.6719 56 27.4999V34.9999H51.5C50.672 34.9999 50 35.6719 50 36.4999C50 37.3279 50.672 37.9999 51.5 37.9999H57.5C58.328 37.9999 59 37.3279 59 36.4999V27.4999C59 26.6719 58.328 25.9999 57.5 25.9999Z" fill="#F29858"/>
<path d="M57.8333 26C57.1893 26 56.6667 26.672 56.6667 27.5V35H53.1667C52.5227 35 52 35.672 52 36.5C52 37.328 52.5227 38 53.1667 38H57.8333C58.4773 38 59 37.328 59 36.5V27.5C59 26.672 58.4773 26 57.8333 26Z" fill="#F2B284"/>
</svg>
