<svg width="64" height="64" viewBox="0 0 64 64" fill="none" xmlns="http://www.w3.org/2000/svg">
<rect width="64" height="64" fill="white"/>
<path fill-rule="evenodd" clip-rule="evenodd" d="M52.3163 47.1214C50.8522 45.7728 44.1534 42.7111 36.3282 42.7111H28.5029C21.7263 42.7111 13.7478 45.7728 12.2836 47.1214C11.5682 47.7808 11.2071 48.8679 11.0688 50.1305C10.8913 51.7536 11.0817 53.6668 11.3605 55.3333H53.2395C53.7351 52.3704 53.9519 48.6288 52.3163 47.1214Z" fill="#E57E34"/>
<path fill-rule="evenodd" clip-rule="evenodd" d="M36.795 43.6504C36.795 46.084 27.0592 46.084 27.0592 43.6504C27.0592 39.7842 27.0592 26.3535 27.0592 26.3535H36.795C36.795 26.3535 36.795 39.3008 36.795 43.6504Z" fill="#EF985A"/>
<path fill-rule="evenodd" clip-rule="evenodd" d="M20.6278 19.1765V23.5093C20.6278 34.0685 26.6555 37.8158 31.8173 37.8158C36.979 37.8158 43.006 34.0685 43.006 23.5093V19.1996C43.006 19.1996 20.7174 19.18 20.6278 19.1765Z" fill="#F2B284"/>
<path fill-rule="evenodd" clip-rule="evenodd" d="M26.1645 22.9945L22.0024 27.3273C22.0024 37.8865 27.29 41.6338 31.8173 41.6338C36.3445 41.6338 41.6315 37.8865 41.6315 27.3273L37.4694 23.0183L26.1645 22.9945Z" fill="#F2B284"/>
<path fill-rule="evenodd" clip-rule="evenodd" d="M20.8965 24.3719C21.9206 26.8643 26.466 27.7351 31.9215 27.7351C37.3777 27.7351 41.9225 26.8643 42.9473 24.3719L31.6725 15.1901L20.8965 24.3719Z" fill="#CA651B"/>
<path fill-rule="evenodd" clip-rule="evenodd" d="M31.9215 26.7733C27.2243 26.7733 23.1545 26.2255 21.1007 24.7664C22.4277 26.9558 26.7661 27.7351 31.9215 27.7351C37.0776 27.7351 41.416 26.9558 42.7423 24.7664C40.6892 26.2255 36.6195 26.7733 31.9215 26.7733Z" fill="#E57E34"/>
<path fill-rule="evenodd" clip-rule="evenodd" d="M31.9215 8.2489C25.4979 8.2489 20.2907 14.2102 20.2907 21.5635C20.2907 22.6204 20.4096 23.6438 20.6132 24.6301C20.6132 24.6301 27.823 23.7277 31.9215 23.7277C39.1859 23.7277 42.4646 24.8673 43.2305 24.6301C43.4341 23.6438 43.553 22.6204 43.553 21.5635C43.553 14.2102 38.3458 8.2489 31.9215 8.2489Z" fill="#E57E34"/>
<path fill-rule="evenodd" clip-rule="evenodd" d="M33.6416 8.39573V23.7557C35.5548 23.8053 37.1644 23.9284 38.4654 24.0732V10.5572C38.4654 8.71541 33.6416 7.47937 33.6416 8.39573Z" fill="#E57E34"/>
<path fill-rule="evenodd" clip-rule="evenodd" d="M30.5967 8.34603C30.5967 7.47933 25.9987 8.30336 25.9987 10.1193V24.0606C27.5307 23.9242 29.1578 23.8081 30.5967 23.7577V8.34603Z" fill="#E57E34"/>
</svg>
