<svg width="64" height="64" viewBox="0 0 64 64" fill="none" xmlns="http://www.w3.org/2000/svg">
<rect width="64" height="64" fill="white"/>
<path fill-rule="evenodd" clip-rule="evenodd" d="M5 10.375C5 8.51104 6.51104 7 8.375 7H34.625C36.489 7 38 8.51104 38 10.375V57H8.375C6.51104 57 5 55.489 5 53.625V10.375ZM14 12.5938C14 12.1278 14.3778 11.75 14.8438 11.75H19.9062C20.3722 11.75 20.75 12.1278 20.75 12.5938V16.8125C20.75 17.2785 20.3722 17.6562 19.9062 17.6562H14.8438C14.3778 17.6562 14 17.2785 14 16.8125V12.5938ZM14.8438 20.1875C14.3778 20.1875 14 20.5653 14 21.0312V25.25C14 25.716 14.3778 26.0938 14.8438 26.0938H19.9062C20.3722 26.0938 20.75 25.716 20.75 25.25V21.0312C20.75 20.5653 20.3722 20.1875 19.9062 20.1875H14.8438ZM14 29.4688C14 29.0028 14.3778 28.625 14.8438 28.625H19.9062C20.3722 28.625 20.75 29.0028 20.75 29.4688V33.6875C20.75 34.1535 20.3722 34.5312 19.9062 34.5312H14.8438C14.3778 34.5312 14 34.1535 14 33.6875V29.4688ZM14.8438 37.0625C14.3778 37.0625 14 37.4403 14 37.9062V42.125C14 42.591 14.3778 42.9688 14.8438 42.9688H19.9062C20.3722 42.9688 20.75 42.591 20.75 42.125V37.9062C20.75 37.4403 20.3722 37.0625 19.9062 37.0625H14.8438ZM24.125 29.4688C24.125 29.0028 24.5028 28.625 24.9688 28.625H30.0312C30.4972 28.625 30.875 29.0028 30.875 29.4688V33.6875C30.875 34.1535 30.4972 34.5312 30.0312 34.5312H24.9688C24.5028 34.5312 24.125 34.1535 24.125 33.6875V29.4688ZM24.9688 20.1875C24.5028 20.1875 24.125 20.5653 24.125 21.0312V25.25C24.125 25.716 24.5028 26.0938 24.9688 26.0938H30.0312C30.4972 26.0938 30.875 25.716 30.875 25.25V21.0312C30.875 20.5653 30.4972 20.1875 30.0312 20.1875H24.9688ZM24.125 37.9062C24.125 37.4403 24.5028 37.0625 24.9688 37.0625H30.0312C30.4972 37.0625 30.875 37.4403 30.875 37.9062V42.125C30.875 42.591 30.4972 42.9688 30.0312 42.9688H24.9688C24.5028 42.9688 24.125 42.591 24.125 42.125V37.9062ZM24.9688 45.5C24.5028 45.5 24.125 45.8778 24.125 46.3438V50.5625C24.125 51.0285 24.5028 51.4062 24.9688 51.4062H30.0312C30.4972 51.4062 30.875 51.0285 30.875 50.5625V46.3438C30.875 45.8778 30.4972 45.5 30.0312 45.5H24.9688Z" fill="#E57E34"/>
<path d="M41 24L57.5822 30.0801C58.4338 30.3924 59 31.203 59 32.1101V54.8379C59 56.032 58.032 57 56.8379 57H41V24Z" fill="#CA651B"/>
<path d="M41 24L57.5822 30.0801C58.4338 30.3924 59 31.203 59 32.1101V39C59 48.9411 50.9411 57 41 57V57V24Z" fill="#F29858"/>
<path d="M41 35.4542C41 29.8934 46.5332 26.0288 51.754 27.9431L57.5822 30.0801C58.4338 30.3924 59 31.203 59 32.1101V39C59 48.9411 50.9411 57 41 57V57V35.4542Z" fill="#E57E34"/>
</svg>
