<svg width="64" height="64" viewBox="0 0 64 64" fill="none" xmlns="http://www.w3.org/2000/svg">
<rect width="64" height="64" fill="white"/>
<path d="M10.0348 30.5551C9.37478 30.5525 8.72073 30.6801 8.11016 30.9308C7.49959 31.1815 6.94451 31.5502 6.47676 32.0159C6.009 32.4816 5.63777 33.035 5.38436 33.6444C5.13094 34.2538 5.00032 34.9073 5 35.5673C5 39.8052 7.0876 43.0005 10.3506 45.0831C13.5634 47.1306 17.894 48.098 22.5429 48.098C23.5704 48.098 24.5879 48.0504 25.5753 47.9551C23.6078 45.5102 22.5375 42.4648 22.5429 39.3265C22.5429 35.9934 23.7258 32.9359 25.6931 30.5551H10.0373H10.0348Z" fill="#CA651B"/>
<path d="M15.4545 10.9361C17.3344 9.05615 19.8842 8 22.5429 8C25.2015 8 27.7513 9.05615 29.6313 10.9361C31.5112 12.8161 32.5674 15.3658 32.5674 18.0245C32.5674 20.6832 31.5112 23.2329 29.6313 25.1129C27.7513 26.9928 25.2015 28.049 22.5429 28.049C19.8842 28.049 17.3344 26.9928 15.4545 25.1129C13.5745 23.2329 12.5184 20.6832 12.5184 18.0245C12.5184 15.3658 13.5745 12.8161 15.4545 10.9361Z" fill="#F29858"/>
<path d="M17.4896 13.4896C19.0837 11.8955 21.2457 11 23.5 11C25.7543 11 27.9164 11.8955 29.5104 13.4896C31.1045 15.0837 32 17.2457 32 19.5C32 21.7543 31.1045 23.9163 29.5104 25.5104C27.9164 27.1045 25.7543 28 23.5 28C21.2457 28 19.0837 27.1045 17.4896 25.5104C15.8955 23.9163 15 21.7543 15 19.5C15 17.2457 15.8955 15.0837 17.4896 13.4896Z" fill="#F2B284"/>
<path d="M26.9683 42.1667C26.6791 40.4269 26.6791 38.6513 26.9683 36.9115C28.7447 36.9535 30.3406 36.1023 30.9612 34.6048C31.5818 33.1056 31.0547 31.3743 29.7683 30.1508C30.7942 28.7149 32.0502 27.4584 33.4856 26.4319C34.7108 27.7183 36.4421 28.2454 37.9412 27.6248C39.4404 27.0041 40.2899 25.4066 40.2464 23.6318C41.9872 23.3423 43.7639 23.3423 45.5048 23.6318C45.4612 25.4082 46.3124 27.0041 47.8099 27.6248C49.3091 28.2454 51.0404 27.7183 52.2639 26.4319C53.6998 27.4578 54.9563 28.7138 55.9828 30.1492C54.6965 31.3743 54.1693 33.1056 54.79 34.6048C55.4106 36.1039 57.0081 36.9535 58.7829 36.9099C59.0724 38.6508 59.0724 40.4275 58.7829 42.1683C57.0065 42.1248 55.4106 42.9759 54.79 44.4735C54.1693 45.9727 54.6965 47.704 55.9828 48.9275C54.9569 50.3633 53.7009 51.6199 52.2655 52.6464C51.0404 51.36 49.3091 50.8329 47.8099 51.4535C46.3108 52.0741 45.4612 53.6716 45.5048 55.4464C43.7639 55.7359 41.9872 55.7359 40.2464 55.4464C40.2899 53.67 39.4388 52.0741 37.9412 51.4535C36.4421 50.8329 34.7108 51.36 33.4872 52.6464C32.0514 51.6205 30.7949 50.3645 29.7683 48.9291C31.0547 47.704 31.5818 45.9727 30.9612 44.4735C30.3406 42.9743 28.7431 42.1248 26.9683 42.1683V42.1667ZM42.8756 44.3752C44.1582 44.3752 45.3882 43.8656 46.2952 42.9587C47.2021 42.0518 47.7116 40.8217 47.7116 39.5391C47.7116 38.2565 47.2021 37.0265 46.2952 36.1195C45.3882 35.2126 44.1582 34.7031 42.8756 34.7031C41.593 34.7031 40.3629 35.2126 39.456 36.1195C38.5491 37.0265 38.0396 38.2565 38.0396 39.5391C38.0396 40.8217 38.5491 42.0518 39.456 42.9587C40.3629 43.8656 41.593 44.3752 42.8756 44.3752Z" fill="#E57E34"/>
</svg>
